<?xml version="1.0" encoding="utf-8"?>
<!-- Generator: Adobe Illustrator 23.0.1, SVG Export Plug-In . SVG Version: 6.00 Build 0)  -->
<svg version="1.1" id="Layer_1" xmlns="http://www.w3.org/2000/svg" xmlns:xlink="http://www.w3.org/1999/xlink" x="0px" y="0px"
	 viewBox="0 0 16 16" style="enable-background:new 0 0 16 16;" xml:space="preserve">
<style type="text/css">
	.st0{fill:#575757;}
</style>
<g id="amt-hairsalon" transform="translate(-1563 -6311)">
	<g id="pedicure" transform="translate(1565.998 6294.437)">
		<g id="Group_648" transform="translate(0.002 19.564)">
			<path id="Path_1653" class="st0" d="M10.7,7.2c-0.4-1-1.6-1.5-2.7-1.1C7.6,6.3,7.2,6.6,7,7L5.8,3.5l1.1-3.1
				c0.1-0.2,0-0.4-0.2-0.4C6.5,0,6.3,0.1,6.2,0.2L5.4,2.5L4.6,0.2C4.6,0,4.4-0.1,4.2,0C4,0.1,3.9,0.3,3.9,0.4c0,0,0,0,0,0L5,3.5
				L3.8,7C3.3,6,2,5.6,1,6.2C0.1,6.8-0.3,8,0.3,9s1.8,1.3,2.8,0.8c0.4-0.2,0.7-0.6,0.9-1l0,0v0C4,8.7,4,8.6,4,8.6l1.4-4l1.4,4
				c0,0.1,0,0.1,0.1,0.2v0l0,0C7.2,9.5,8,10,8.8,10l0,0c1.1,0,2-0.9,2-2C10.8,7.7,10.8,7.4,10.7,7.2L10.7,7.2z M3.3,8.3l0,0.1
				C3,9.2,2.2,9.5,1.5,9.2c-0.7-0.3-1-1.1-0.7-1.7c0.3-0.7,1.1-1,1.7-0.7C3.2,7,3.5,7.7,3.3,8.3z M9.3,9.2c-0.7,0.3-1.5,0-1.7-0.7
				l0-0.1C7.3,7.6,7.7,6.9,8.4,6.7c0.7-0.2,1.5,0.2,1.7,0.9C10.3,8.2,9.9,8.9,9.3,9.2L9.3,9.2z"/>
		</g>
	</g>
</g>
</svg>
