<?xml version="1.0" encoding="utf-8"?>
<!-- Generator: Adobe Illustrator 23.0.1, SVG Export Plug-In . SVG Version: 6.00 Build 0)  -->
<svg version="1.1" id="Layer_1" xmlns="http://www.w3.org/2000/svg" xmlns:xlink="http://www.w3.org/1999/xlink" x="0px" y="0px"
	 viewBox="0 0 48 48" style="enable-background:new 0 0 48 48;" xml:space="preserve">
<style type="text/css">
	.st0{fill:#7A7A7A;}
</style>
<g id="amt-meal--big" transform="translate(-1078 -3681)">
	<g id="cutlery" transform="translate(1083.667 3607.445)">
		<g id="Group_633" transform="translate(0 85.333)">
			<g id="Group_632">
				<path id="Path_1638" class="st0" d="M18.6,0C11.8,0,6.2,5.6,6.2,12.4s5.6,12.4,12.4,12.4S31,19.2,31,12.4C31,5.6,25.4,0,18.6,0z
					 M18.6,23.3c-6,0-10.9-4.9-10.9-10.9S12.6,1.6,18.6,1.6s10.9,4.9,10.9,10.9c0,0,0,0,0,0C29.4,18.4,24.6,23.2,18.6,23.3z"/>
				<path id="Path_1639" class="st0" d="M19.4,3.9c0-0.4-0.3-0.8-0.8-0.8c0,0,0,0,0,0c-5.1,0-9.3,4.2-9.3,9.3c0,0.4,0.3,0.8,0.8,0.8
					c0.4,0,0.8-0.3,0.8-0.8c0-4.3,3.5-7.7,7.8-7.8C19,4.6,19.4,4.3,19.4,3.9z"/>
				<path id="Path_1640" class="st0" d="M18.6,20.2c-0.4,0-0.8,0.3-0.8,0.8c0,0.4,0.3,0.8,0.8,0.8c5.1,0,9.3-4.2,9.3-9.3
					c0-0.4-0.3-0.8-0.8-0.8c-0.4,0-0.8,0.3-0.8,0.8C26.3,16.7,22.9,20.1,18.6,20.2z"/>
				<path id="Path_1641" class="st0" d="M36.4,0c-2.1,0-3.9,1.7-3.9,3.9v8.5c0,1.3,1,2.3,2.3,2.3h0.8V24c0,0.4,0.4,0.8,0.8,0.8
					c0.4,0,0.8-0.3,0.8-0.8V0.8C37.2,0.3,36.9,0,36.4,0z M35.7,13.2h-0.8c-0.4,0-0.8-0.3-0.8-0.8V3.9c0-1,0.6-1.9,1.5-2.2V13.2z"/>
				<path id="Path_1642" class="st0" d="M6.2,0.8C6.2,0.3,5.9,0,5.4,0S4.6,0.3,4.6,0.8v7c0,0.5-0.3,1-0.8,1.3V0.8
					C3.9,0.3,3.5,0,3.1,0S2.3,0.3,2.3,0.8c0,0,0,0,0,0v8.3C1.9,8.8,1.6,8.3,1.6,7.8v-7C1.6,0.3,1.2,0,0.8,0S0,0.3,0,0.8c0,0,0,0,0,0
					v7c0,1.4,1,2.6,2.3,3V24c0,0.4,0.3,0.8,0.8,0.8c0.4,0,0.8-0.3,0.8-0.8V10.7c1.4-0.4,2.3-1.6,2.3-3V0.8z"/>
			</g>
		</g>
	</g>
</g>
</svg>
