<?xml version="1.0" encoding="utf-8"?>
<!-- Generator: Adobe Illustrator 23.0.1, SVG Export Plug-In . SVG Version: 6.00 Build 0)  -->
<svg version="1.1" id="Layer_1" xmlns="http://www.w3.org/2000/svg" xmlns:xlink="http://www.w3.org/1999/xlink" x="0px" y="0px"
	 viewBox="0 0 16 16" style="enable-background:new 0 0 16 16;" xml:space="preserve">
<style type="text/css">
	.st0{fill:#575757;}
</style>
<g id="amt-refound" transform="translate(-995.285 -4142)">
	<g id="refund" transform="translate(996 4112.963)">
		<g id="Group_645" transform="translate(0 31.038)">
			<g id="Group_644" transform="translate(0 0)">
				<path id="Path_1651" class="st0" d="M14.3,5.2h-0.6c-0.6-2.8-3-4.9-5.9-5.2h0C4.3-0.2,1.2,2.4,0.9,5.9L0.1,7.1
					C-0.1,7.3,0,7.6,0.2,7.7c0.1,0,0.2,0.1,0.2,0.1H1v0c0.7,3.5,4.2,5.8,7.7,5c2.8-0.6,4.9-2.9,5.1-5.7l0.8-1.2
					c0.1-0.2,0.1-0.5-0.1-0.6C14.5,5.2,14.4,5.2,14.3,5.2z M8.2,12c-3,0.4-5.8-1.6-6.4-4.6c0-0.1,0-0.6-0.5-0.6H1.2l0.9-1.4l0.9,1.4
					c-0.2,0-0.4,0.2-0.4,0.5c0,0,0,0,0,0.1c0.5,2.6,3.1,4.2,5.7,3.7c1.7-0.4,3-1.5,3.5-3.1l0.3,0.5c0.1,0.1,0.2,0.2,0.4,0.2
					C11.8,10.5,10.1,11.7,8.2,12z M10.5,5.9L11.2,7c-0.3,2.1-2.3,3.6-4.4,3.3c-1.4-0.2-2.7-1.2-3.1-2.6h0.2c0.2,0,0.4-0.2,0.4-0.4
					c0-0.1,0-0.2-0.1-0.2L3.5,6c0.3-2.1,2.3-3.6,4.4-3.3c1.4,0.2,2.6,1.2,3.1,2.6h-0.2c-0.2,0-0.4,0.2-0.4,0.4
					C10.4,5.7,10.4,5.8,10.5,5.9L10.5,5.9z M12.6,7.4L11.7,6c0.2,0,0.4-0.2,0.4-0.5c0,0,0,0,0-0.1l0,0C11.5,2.9,9,1.3,6.4,1.8
					C4.7,2.2,3.4,3.4,2.8,5L2.5,4.5C2.4,4.4,2.3,4.3,2.2,4.3c1.2-2.9,4.5-4.2,7.4-3c1.7,0.7,3,2.3,3.3,4.1c0,0.3,0,0.3,0.1,0.3l0,0
					C13,5.9,13.2,6,13.4,6h0.1L12.6,7.4z"/>
			</g>
		</g>
		<g id="Group_647" transform="translate(6.074 34.49)">
			<g id="Group_646" transform="translate(0 0)">
				<path id="Path_1652" class="st0" d="M1.3,2.6c-0.2,0-0.4-0.2-0.4-0.4c0-0.2,0.2-0.4,0.4-0.4c0.1,0,0.2,0,0.3,0.1
					C1.8,2,2,2,2.2,1.9s0.2-0.4,0-0.6C2.1,1.1,1.9,1,1.7,0.9V0.4C1.7,0.2,1.5,0,1.3,0C1.1,0,0.9,0.2,0.9,0.4v0.5
					c-0.7,0.3-1,1-0.8,1.7c0.2,0.5,0.7,0.8,1.2,0.8c0.2,0,0.4,0.2,0.4,0.4c0,0.2-0.2,0.4-0.4,0.4c-0.1,0-0.2,0-0.3-0.1
					C0.8,4,0.5,4,0.4,4.2s-0.2,0.4,0,0.6l0,0C0.5,4.9,0.7,5,0.9,5.1v0.5C0.9,5.9,1.1,6,1.3,6c0.2,0,0.4-0.2,0.4-0.4V5.1
					c0.7-0.3,1-1,0.8-1.7C2.3,2.9,1.8,2.6,1.3,2.6L1.3,2.6z"/>
			</g>
		</g>
	</g>
</g>
</svg>
