<?xml version="1.0" encoding="utf-8"?>
<!-- Generator: Adobe Illustrator 23.0.1, SVG Export Plug-In . SVG Version: 6.00 Build 0)  -->
<svg version="1.1" id="Layer_1" xmlns="http://www.w3.org/2000/svg" xmlns:xlink="http://www.w3.org/1999/xlink" x="0px" y="0px"
	 viewBox="0 0 16 16" style="enable-background:new 0 0 16 16;" xml:space="preserve">
<style type="text/css">
	.st0{fill:#575757;}
</style>
<g id="amt-services" transform="translate(-961 -6480)">
	<g id="tie" transform="translate(964 6483)">
		<g id="Group_649" transform="translate(0 0)">
			<path id="Path_1654" class="st0" d="M8.9,0.6H8.4L7.9,0.1l0,0C7.8,0,7.8,0,7.7,0H2.8C2.7,0,2.6,0,2.6,0.1l0,0L2,0.6H1.5
				C0.7,0.6,0,1.3,0,2.1v6.8c0,0.8,0.7,1.5,1.5,1.5h7.4c0.8,0,1.5-0.7,1.5-1.5V2.1C10.4,1.3,9.8,0.6,8.9,0.6z M7.9,1L7.5,2.9
				L5.8,2.1l1.8-1.4L7.9,1z M5.7,5.2l0.2,1.4L4.4,8.1l0.2-1.9L5.7,5.2z M4.8,5.2l0.1-0.9h0.7l0,0.1L4.8,5.2z M5.6,3.7H4.8L4.4,2.9
				l0.8-0.4L6,2.9L5.6,3.7z M6.8,0.6L5.2,1.8L3.7,0.6H6.8z M2.8,0.7l1.8,1.4L3,2.9L2.5,1L2.8,0.7z M1.5,9.8C1,9.8,0.6,9.4,0.6,8.9
				V2.1c0-0.5,0.4-0.9,0.9-0.9h0.4l0.6,2.2c0,0.2,0.2,0.3,0.4,0.2c0,0,0,0,0.1,0l1-0.5L4.3,4L3.7,8.9l0,0c0,0.1,0,0.2,0.1,0.3
				l0.7,0.7L1.5,9.8z M4.4,8.9l1.5-1.5l0.2,1.4L5.2,9.7L4.4,8.9z M9.8,8.9c0,0.5-0.4,0.9-0.9,0.9H6l0.7-0.7C6.7,9.1,6.8,9,6.7,8.9
				L6.1,4l0.4-0.9l0.9,0.5c0.2,0.1,0.3,0,0.4-0.1c0,0,0,0,0-0.1l0.6-2.2h0.4c0.5,0,0.9,0.4,0.9,0.9L9.8,8.9z"/>
		</g>
	</g>
</g>
</svg>
