<?xml version="1.0" encoding="utf-8"?>
<!-- Generator: Adobe Illustrator 23.0.1, SVG Export Plug-In . SVG Version: 6.00 Build 0)  -->
<svg version="1.1" id="Layer_1" xmlns="http://www.w3.org/2000/svg" xmlns:xlink="http://www.w3.org/1999/xlink" x="0px" y="0px"
	 viewBox="0 0 48 48" style="enable-background:new 0 0 48 48;" xml:space="preserve">
<style type="text/css">
	.st0{fill:#7A7A7A;}
</style>
<g id="amt-game--big" transform="translate(-1136 -3681)">
	<g id="Group_630" transform="translate(1109.599 3549.891)">
		<path id="Path_1614" class="st0" d="M45.1,153.6h-2.8v-2.8c0-0.2-0.2-0.4-0.4-0.4h-1.8c-0.2,0-0.4,0.2-0.4,0.4c0,0,0,0,0,0v2.8
			h-2.9c-0.2,0-0.4,0.2-0.4,0.4c0,0,0,0,0,0v1.7c0,0.2,0.2,0.4,0.4,0.5h2.8v2.9c0,0.2,0.2,0.4,0.4,0.4c0,0,0,0,0,0h1.7
			c0.2,0,0.4-0.2,0.5-0.4v-2.8h2.8c0.2,0,0.4-0.2,0.4-0.4v-1.8C45.5,153.7,45.3,153.6,45.1,153.6C45.1,153.6,45.1,153.6,45.1,153.6z
			"/>
		<path id="Path_1615" class="st0" d="M58.6,156.7c-0.9,0-1.5,0.7-1.5,1.6c0,0.9,0.7,1.5,1.6,1.5c0.8,0,1.5-0.7,1.5-1.5
			C60.2,157.4,59.5,156.7,58.6,156.7C58.6,156.7,58.6,156.7,58.6,156.7z"/>
		<path id="Path_1616" class="st0" d="M55.2,153.3c-0.9,0-1.5,0.7-1.5,1.6c0,0.9,0.7,1.5,1.6,1.5c0.8,0,1.5-0.7,1.5-1.5
			C56.7,154,56,153.3,55.2,153.3C55.2,153.3,55.2,153.3,55.2,153.3z"/>
		<path id="Path_1617" class="st0" d="M62,153.3c-0.9,0-1.5,0.7-1.5,1.6c0,0.9,0.7,1.5,1.6,1.5c0.8,0,1.5-0.7,1.5-1.5
			C63.6,154,62.9,153.3,62,153.3z"/>
		<path id="Path_1618" class="st0" d="M58.6,150c-0.9,0-1.5,0.7-1.5,1.6c0,0.9,0.7,1.5,1.6,1.5c0.8,0,1.5-0.7,1.5-1.5
			C60.2,150.7,59.5,150,58.6,150C58.6,150,58.6,150,58.6,150z"/>
		<path id="Path_1619" class="st0" d="M59.2,147.3c2,0,4,0.7,5.4,2.1c1.4,1.4,2.2,3.4,2.2,5.4c0,2-0.8,4-2.2,5.5
			c-1.4,1.4-3.4,2.2-5.4,2.2H40.9c-2,0-4-0.8-5.4-2.2c-1.5-1.4-2.3-3.4-2.2-5.5c0-2,0.8-4,2.2-5.4c1.5-1.4,3.4-2.1,5.4-2.1
			L59.2,147.3 M59.2,146H40.9c-4.9-0.1-8.9,3.9-9,8.8c-0.1,4.9,3.9,8.9,8.8,9c0.1,0,0.1,0,0.2,0h18.2c4.9,0.1,8.9-3.9,9-8.8
			c0.1-4.9-3.9-8.9-8.8-9C59.3,146,59.2,146,59.2,146z"/>
	</g>
</g>
</svg>
