<?xml version="1.0" encoding="utf-8"?>
<!-- Generator: Adobe Illustrator 23.0.1, SVG Export Plug-In . SVG Version: 6.00 Build 0)  -->
<svg version="1.1" id="Layer_1" xmlns="http://www.w3.org/2000/svg" xmlns:xlink="http://www.w3.org/1999/xlink" x="0px" y="0px"
	 viewBox="0 0 16 16" style="enable-background:new 0 0 16 16;" xml:space="preserve">
<style type="text/css">
	.st0{fill:#575757;}
</style>
<g id="amt-elevator" transform="translate(-1563 -6285)">
	<g id="elevator" transform="translate(1565.642 6286.594)">
		<path id="Path_1633" class="st0" d="M10.8,0H0.4C0.2,0,0,0.2,0,0.4v11.9c0,0.2,0.2,0.4,0.4,0.4c0,0,0,0,0,0h1.5
			c0.2,0,0.4-0.2,0.4-0.4l0,0v-0.4h5.2v0.4c0,0.2,0.2,0.4,0.4,0.4l0,0h3c0.2,0,0.4-0.2,0.4-0.4c0,0,0,0,0,0l0-11.9
			C11.2,0.2,11,0,10.8,0C10.8,0,10.8,0,10.8,0z M4.5,11.2H2.2V4.5h2.2V11.2z M7.4,11.2H5.2V4.5h2.2L7.4,11.2z M10.4,11.9H8.2V4.1
			c0-0.2-0.2-0.4-0.4-0.4H1.9c-0.2,0-0.4,0.2-0.4,0.4v7.8H0.7V0.7h9.7L10.4,11.9z"/>
		<path id="Path_1634" class="st0" d="M2.9,3.5l0.6-0.6L4,3.5c0.2,0.2,0.5,0.2,0.6,0c0.2-0.2,0.2-0.5,0-0.6L3.8,1.9
			c-0.2-0.2-0.5-0.2-0.6,0c0,0,0,0,0,0L2.2,2.8C2.1,3,2.1,3.3,2.2,3.5C2.4,3.6,2.7,3.6,2.9,3.5L2.9,3.5z"/>
		<path id="Path_1635" class="st0" d="M6,3.5c0.2,0.2,0.5,0.2,0.6,0c0,0,0,0,0,0l0.9-0.9c0.2-0.2,0.2-0.5,0-0.6
			C7.3,1.7,7,1.7,6.9,1.9L6.3,2.5L5.7,1.9C5.5,1.8,5.2,1.8,5.1,2c-0.2,0.2-0.2,0.4,0,0.6L6,3.5z"/>
		<path id="Path_1636" class="st0" d="M9.3,7.1c0,0.2-0.2,0.4-0.4,0.5c-0.2,0-0.4-0.2-0.5-0.4c0-0.2,0.2-0.4,0.4-0.5c0,0,0,0,0,0
			C9.1,6.6,9.3,6.8,9.3,7.1z"/>
		<path id="Path_1637" class="st0" d="M9.3,5.6c0,0.2-0.2,0.4-0.4,0.4c-0.2,0-0.4-0.2-0.4-0.4c0-0.2,0.2-0.4,0.4-0.4
			S9.3,5.4,9.3,5.6C9.3,5.6,9.3,5.6,9.3,5.6z"/>
	</g>
</g>
</svg>
