<?xml version="1.0" encoding="utf-8"?>
<!-- Generator: Adobe Illustrator 23.0.1, SVG Export Plug-In . SVG Version: 6.00 Build 0)  -->
<svg version="1.1" id="Layer_1" xmlns="http://www.w3.org/2000/svg" xmlns:xlink="http://www.w3.org/1999/xlink" x="0px" y="0px"
	 viewBox="0 0 16 16" style="enable-background:new 0 0 16 16;" xml:space="preserve">
<style type="text/css">
	.st0{fill:#575757;}
</style>
<g id="amt-pool" transform="translate(-1563 -6337)">
	<g id="swimming-pool" transform="translate(1531.992 6338.557)">
		<g id="Group_641" transform="translate(33.007)">
			<g id="Group_640" transform="translate(0)">
				<path id="Path_1648" class="st0" d="M10.9,9.3c-0.2-0.1-0.4-0.1-0.5,0.1c0,0,0,0,0,0C10.2,9.5,10,9.7,9.9,9.7
					C9.3,9.9,8.8,9.9,8.3,9.6l-0.1,0V2.7c0-1.1,0.9-1.9,1.9-1.9c0.2,0,0.4-0.2,0.4-0.4S10.4,0,10.1,0C8.7,0,7.5,1.2,7.5,2.7v1.1H1.6
					V2.7c0-1.1,0.9-1.9,1.9-1.9c0.2,0,0.4-0.2,0.4-0.4S3.7,0,3.5,0C2.1,0,0.9,1.2,0.9,2.7v6.6C0.6,9.3,0.4,9.4,0.2,9.5
					C0,9.6-0.1,9.8,0,10c0.1,0.2,0.3,0.3,0.5,0.2C2.9,9,5.6,9,7.9,10.3c0.4,0.2,0.9,0.4,1.3,0.4c0.3,0,0.6-0.1,0.9-0.2
					c0.3-0.1,0.6-0.4,0.8-0.6C11.1,9.6,11,9.4,10.9,9.3C10.9,9.3,10.9,9.3,10.9,9.3z M7.5,9.2C5.6,8.5,3.5,8.4,1.6,9V7.2h5.9V9.2z
					 M7.5,6.5H1.6V4.6h5.9V6.5z"/>
			</g>
		</g>
		<g id="Group_643" transform="translate(33.007 10.631)">
			<g id="Group_642" transform="translate(0)">
				<path id="Path_1649" class="st0" d="M10.9,0.7c-0.2-0.1-0.4-0.1-0.5,0.1c0,0,0,0,0,0C10.2,0.9,10,1.1,9.9,1.2
					C9.3,1.4,8.8,1.3,8.3,1C5.8-0.3,2.8-0.3,0.2,0.9C0,1-0.1,1.3,0,1.4c0.1,0.2,0.3,0.3,0.5,0.2c2.3-1.2,5.1-1.2,7.4,0
					C8.4,1.9,8.8,2,9.3,2C9.6,2,9.9,2,10.2,1.8c0.3-0.1,0.6-0.4,0.8-0.6C11.1,1,11,0.8,10.9,0.7C10.9,0.7,10.9,0.7,10.9,0.7z"/>
			</g>
		</g>
	</g>
</g>
</svg>
