<?xml version="1.0" encoding="utf-8"?>
<!-- Generator: Adobe Illustrator 23.0.1, SVG Export Plug-In . SVG Version: 6.00 Build 0)  -->
<svg version="1.1" id="Layer_1" xmlns="http://www.w3.org/2000/svg" xmlns:xlink="http://www.w3.org/1999/xlink" x="0px" y="0px"
	 viewBox="0 0 16 16" style="enable-background:new 0 0 16 16;" xml:space="preserve">
<style type="text/css">
	.st0{fill:#575757;}
</style>
<g id="amt-breakfast" transform="translate(-995.285 -4090)">
	<g id="toast" transform="translate(997.228 4091.296)">
		<g id="Group_635" transform="translate(0.057)">
			<g id="Group_634">
				<path id="Path_1645" class="st0" d="M12.7,4.1c-0.2-1.1-1.1-1.9-2.2-1.9C10.5,1,9.4,0,8.2,0c0,0,0,0,0,0H2.4
					C1.2,0,0.2,0.8,0,1.9c-0.1,0.9,0.3,1.8,1.1,2.3v5.2c0,0.6,0.5,1.1,1.1,1.1h1.1v1.1c0,0.6,0.5,1.1,1.1,1.1h6
					c0.6,0,1.1-0.5,1.1-1.1V6.4C12.4,6,12.9,5.1,12.7,4.1z M2.3,9.8c-0.2,0-0.4-0.2-0.4-0.4V4c0-0.1-0.1-0.3-0.2-0.3
					C1,3.3,0.7,2.7,0.8,2c0.2-0.7,0.8-1.3,1.6-1.3h5.8c0.8,0,1.4,0.5,1.6,1.3c0.1,0.7-0.3,1.3-0.9,1.6C8.7,3.7,8.6,3.8,8.6,4v5.4
					c0,0.2-0.2,0.4-0.4,0.4H2.3z M11.1,5.9c-0.1,0.1-0.2,0.2-0.2,0.3v5.4c0,0.2-0.2,0.4-0.4,0.4h-6c-0.2,0-0.4-0.2-0.4-0.4v-1.1h4.1
					c0.6,0,1.1-0.5,1.1-1.1V4.2c0.5-0.3,0.8-0.7,1-1.2h0c0.8,0,1.4,0.5,1.6,1.3C12.1,4.9,11.7,5.6,11.1,5.9L11.1,5.9z"/>
			</g>
		</g>
		<g id="Group_637" transform="translate(3.823 2.245)">
			<g id="Group_636">
				<path id="Path_1646" class="st0" d="M2.9,0.1C2.7,0,2.5,0,2.4,0.1c0,0,0,0,0,0L0.1,2.4C0,2.5,0,2.7,0.1,2.9C0.3,3,0.5,3,0.6,2.9
					l2.2-2.2C3,0.5,3,0.3,2.9,0.1C2.9,0.1,2.9,0.1,2.9,0.1z"/>
			</g>
		</g>
		<g id="Group_639" transform="translate(3.823 5.239)">
			<g id="Group_638">
				<path id="Path_1647" class="st0" d="M2.9,0.1C2.7,0,2.5,0,2.4,0.1c0,0,0,0,0,0L0.1,2.4C0,2.5,0,2.7,0.1,2.9s0.4,0.1,0.5,0
					l2.2-2.2C3,0.5,3,0.3,2.9,0.1C2.9,0.1,2.9,0.1,2.9,0.1z"/>
			</g>
		</g>
	</g>
</g>
</svg>
