<?xml version="1.0" encoding="utf-8"?>
<!-- Generator: Adobe Illustrator 23.0.1, SVG Export Plug-In . SVG Version: 6.00 Build 0)  -->
<svg version="1.1" id="Layer_1" xmlns="http://www.w3.org/2000/svg" xmlns:xlink="http://www.w3.org/1999/xlink" x="0px" y="0px"
	 viewBox="0 0 48 48" style="enable-background:new 0 0 48 48;" xml:space="preserve">
<style type="text/css">
	.st0{fill:#7A7A7A;}
</style>
<g id="amt-elevator--big" transform="translate(-1020 -3681)">
	<g id="elevator" transform="translate(1029 3688)">
		<path id="Path_1633" class="st0" d="M29.8,0H1C0.5,0,0,0.5,0,1v32.9c0,0.6,0.5,1,1,1h4.1c0.6,0,1-0.5,1-1v-1h14.3v1
			c0,0.6,0.5,1,1,1h8.2c0.6,0,1-0.5,1-1L30.8,1C30.8,0.5,30.3,0,29.8,0z M12.3,30.9H6.1V12.3h6.1V30.9z M20.5,30.9h-6.1V12.3h6.1
			L20.5,30.9z M28.7,32.9h-6.1V11.3c0-0.6-0.5-1-1-1c0,0,0,0,0,0H5.1c-0.6,0-1,0.5-1,1v21.6H2V2h26.7L28.7,32.9z"/>
		<path id="Path_1634" class="st0" d="M7.9,9.5l1.6-1.6l1.6,1.6c0.5,0.5,1.3,0.5,1.7,0c0.5-0.5,0.5-1.2,0-1.7l-2.5-2.5
			c-0.5-0.5-1.3-0.5-1.7,0c0,0,0,0,0,0L6.2,7.8c-0.5,0.5-0.5,1.3,0,1.7C6.7,10,7.5,10,7.9,9.5L7.9,9.5z"/>
		<path id="Path_1635" class="st0" d="M16.4,9.5c0.5,0.5,1.3,0.5,1.7,0c0,0,0,0,0,0l2.5-2.5c0.5-0.5,0.5-1.3,0-1.7
			c-0.5-0.5-1.2-0.5-1.7,0l-1.6,1.6l-1.6-1.6c-0.5-0.5-1.3-0.5-1.7,0c-0.5,0.5-0.5,1.3,0,1.7c0,0,0,0,0,0L16.4,9.5z"/>
		<path id="Path_1636" class="st0" d="M25.8,19.5c0,0.7-0.6,1.2-1.2,1.2s-1.2-0.6-1.2-1.2s0.6-1.2,1.2-1.2l0,0
			C25.2,18.3,25.8,18.8,25.8,19.5z"/>
		<path id="Path_1637" class="st0" d="M25.8,15.5c0,0.7-0.6,1.2-1.2,1.2s-1.2-0.6-1.2-1.2c0-0.7,0.6-1.2,1.2-1.2l0,0
			C25.2,14.2,25.8,14.8,25.8,15.5z"/>
	</g>
</g>
</svg>
