<?xml version="1.0" encoding="utf-8"?>
<!-- Generator: Adobe Illustrator 23.0.1, SVG Export Plug-In . SVG Version: 6.00 Build 0)  -->
<svg version="1.1" id="Layer_1" xmlns="http://www.w3.org/2000/svg" xmlns:xlink="http://www.w3.org/1999/xlink" x="0px" y="0px"
	 viewBox="0 0 48 48" style="enable-background:new 0 0 48 48;" xml:space="preserve">
<style type="text/css">
	.st0{fill:#7A7A7A;}
</style>
<g id="amt-fan--big" transform="translate(-962 -3681)">
	<g id="air-conditioner" transform="translate(969 3649.142)">
		<path id="Path_1628" class="st0" d="M32.6,44.9H2.4c-1.3,0-2.4,1.1-2.4,2.4v8.7c0,2.2,1.8,4,4,3.9h27c2.2,0,4-1.8,4-3.9v-8.7
			C35,45.9,33.9,44.9,32.6,44.9L32.6,44.9z M5.2,46.8h24.6V49c0,0.9-0.7,1.6-1.6,1.6H6.8c-0.9,0-1.6-0.7-1.6-1.6L5.2,46.8L5.2,46.8z
			 M33.1,55.9c0,1.1-0.9,2-2.1,2H4c-1.1,0-2.1-0.9-2.1-2v-8.7c0-0.3,0.2-0.5,0.5-0.5h0.9V49c0,1.9,1.6,3.5,3.5,3.5h21.4
			c1.9,0,3.5-1.6,3.5-3.5v-2.2h0.9c0.3,0,0.5,0.2,0.5,0.5L33.1,55.9L33.1,55.9z"/>
		<path id="Path_1629" class="st0" d="M30.7,55.1H4.3c-0.5,0-1,0.5-0.9,1c0,0.5,0.4,0.9,0.9,0.9h26.4c0.5,0,1-0.5,0.9-1
			C31.6,55.5,31.2,55.1,30.7,55.1z"/>
		<path id="Path_1630" class="st0" d="M11.6,63L11.6,63c0.4-0.3,0.7-0.8,0.5-1.3c-0.2-0.5-0.7-0.7-1.2-0.6c-0.2,0.1-1.5,0.5-1.6,1.6
			c-0.1,0.8,0.4,1.4,1.4,2C11,64.9,11,65,11,65c-0.1,0.3-0.3,0.5-0.5,0.7c-0.4,0.3-0.5,0.9-0.2,1.4c0.3,0.4,0.9,0.5,1.4,0.2
			c0.8-0.6,1.3-1.4,1.3-2.4C12.9,64.1,12.4,63.3,11.6,63z"/>
		<path id="Path_1631" class="st0" d="M18,63L18,63c0.4-0.3,0.7-0.8,0.5-1.3c-0.2-0.5-0.7-0.7-1.2-0.6c-0.2,0.1-1.5,0.5-1.6,1.6
			c-0.1,0.8,0.4,1.4,1.4,2c0.3,0.2,0.4,0.3,0.4,0.3c-0.1,0.3-0.3,0.5-0.5,0.7c-0.4,0.3-0.5,0.9-0.2,1.4c0.3,0.4,0.9,0.5,1.4,0.2
			c0.8-0.6,1.3-1.4,1.3-2.4C19.3,64.1,18.8,63.3,18,63L18,63z"/>
		<path id="Path_1632" class="st0" d="M24.4,63L24.4,63c0.4-0.3,0.7-0.8,0.5-1.3c-0.2-0.5-0.7-0.7-1.2-0.6c-0.2,0.1-1.5,0.5-1.6,1.6
			c-0.1,0.8,0.4,1.4,1.4,2c0.3,0.2,0.4,0.3,0.4,0.3c-0.1,0.3-0.3,0.5-0.5,0.7c-0.4,0.3-0.5,0.9-0.2,1.4c0.3,0.4,0.9,0.5,1.4,0.2
			c0.8-0.6,1.3-1.4,1.3-2.4C25.7,64.1,25.1,63.3,24.4,63z"/>
	</g>
</g>
</svg>
