<?xml version="1.0" encoding="utf-8"?>
<!-- Generator: Adobe Illustrator 23.0.1, SVG Export Plug-In . SVG Version: 6.00 Build 0)  -->
<svg version="1.1" id="Layer_1" xmlns="http://www.w3.org/2000/svg" xmlns:xlink="http://www.w3.org/1999/xlink" x="0px" y="0px"
	 viewBox="0 0 16 16" style="enable-background:new 0 0 16 16;" xml:space="preserve">
<style type="text/css">
	.st0{fill:#707070;}
</style>
<g id="calendar-icon" transform="translate(-81 -172)">
	<path id="Path_1500" class="st0" d="M95.1,173.2h-0.8V172h-1.3v1.3h-8.3V172h-1.3v1.3h-0.8c-1,0-1.9,0.8-1.9,1.9v11
		c0,1,0.8,1.9,1.9,1.9h12.3c1,0,1.9-0.8,1.9-1.9v-11C97,174.1,96.2,173.3,95.1,173.2z M95.8,186.1c0,0.3-0.3,0.6-0.6,0.6H82.9
		c-0.3,0-0.6-0.3-0.6-0.6v-8.3h13.5V186.1z M95.8,176.6H82.3v-1.5c0-0.3,0.3-0.6,0.6-0.6h0.8v1.3h1.3v-1.3h8.3v1.3h1.3v-1.3h0.8
		c0.3,0,0.6,0.3,0.6,0.6V176.6z"/>
	<rect id="Rectangle_1640" x="83.4" y="179.2" class="st0" width="1.3" height="1.3"/>
	<rect id="Rectangle_1641" x="85.9" y="179.2" class="st0" width="1.3" height="1.3"/>
	<rect id="Rectangle_1642" x="88.4" y="179.2" class="st0" width="1.3" height="1.3"/>
	<rect id="Rectangle_1643" x="90.9" y="179.2" class="st0" width="1.3" height="1.3"/>
	<rect id="Rectangle_1644" x="93.4" y="179.2" class="st0" width="1.3" height="1.3"/>
	<rect id="Rectangle_1645" x="83.4" y="181.7" class="st0" width="1.3" height="1.3"/>
	<rect id="Rectangle_1646" x="85.9" y="181.7" class="st0" width="1.3" height="1.3"/>
	<rect id="Rectangle_1647" x="88.4" y="181.7" class="st0" width="1.3" height="1.3"/>
	<rect id="Rectangle_1648" x="90.9" y="181.7" class="st0" width="1.3" height="1.3"/>
	<rect id="Rectangle_1649" x="83.4" y="184.2" class="st0" width="1.3" height="1.3"/>
	<rect id="Rectangle_1650" x="85.9" y="184.2" class="st0" width="1.3" height="1.3"/>
	<rect id="Rectangle_1651" x="88.4" y="184.2" class="st0" width="1.3" height="1.3"/>
	<rect id="Rectangle_1652" x="90.9" y="184.2" class="st0" width="1.3" height="1.3"/>
	<rect id="Rectangle_1653" x="93.4" y="181.7" class="st0" width="1.3" height="1.3"/>
</g>
</svg>
