<?xml version="1.0" encoding="utf-8"?>
<!-- Generator: Adobe Illustrator 22.0.0, SVG Export Plug-In . SVG Version: 6.00 Build 0)  -->
<svg version="1.1" id="Layer_1" xmlns="http://www.w3.org/2000/svg" xmlns:xlink="http://www.w3.org/1999/xlink" x="0px" y="0px"
	 viewBox="0 0 48 48" style="enable-background:new 0 0 48 48;" xml:space="preserve">
<style type="text/css">
	.st0{fill:#7A7A7A;}
</style>
<g id="Page-1">
	<g id="cat-ship-copy">
		<path id="Shape" class="st0" d="M38.3,39.5c-0.2-0.4-0.7-0.4-1.1-0.3c-0.1,0.1-0.2,0.2-0.3,0.3c-0.5,0.8-1.4,1.3-2.5,1.4
			c1.5-2.9,2.9-5.9,3.9-9v-0.1c0.4-1,0.7-2,1-2.9c0,0,0,0,0-0.1c0.4-1.1,0.6-2.1,0.9-2.9c0.1-0.3,0-0.5-0.2-0.7
			c-2.2-2-4.6-3.8-7.1-5.3l-0.2-5.5c0-0.9-0.8-1.5-1.7-1.5h-3.2l-0.3-3.2c0,0,0,0,0-0.1l-0.3-2.3c-0.1-0.7-0.7-1.3-1.4-1.3H22
			c-0.8,0-1.4,0.5-1.4,1.3l-0.3,2.3c0,0,0,0,0,0.1L20,13.1h-3.2c-0.9,0-1.7,0.7-1.7,1.5l-0.2,5.5c-2.5,1.5-4.9,3.3-7.1,5.3
			c-0.2,0.2-0.3,0.4-0.2,0.7c0.3,0.8,0.5,1.8,0.9,2.9v0.1c0.3,0.9,0.6,1.9,1,2.9V32c1.1,3.1,2.3,6.1,3.9,9c-1.1-0.1-2-0.6-2.5-1.4
			c-0.2-0.4-0.7-0.4-1.1-0.3c-0.1,0-0.2,0.1-0.3,0.2c-0.5,0.9-1.6,1.4-2.8,1.4c-0.4,0-0.7,0.4-0.7,0.7c0,0.4,0.4,0.7,0.8,0.7
			c1.3,0,2.5-0.4,3.4-1.3c1.2,1.2,3,1.6,4.6,1.3h0.1c0.9-0.2,1.6-0.6,2.2-1.2c1.8,1.7,4.8,1.8,6.7,0.2c0.1-0.1,0.1-0.1,0.2-0.2
			c1.8,1.7,4.9,1.8,6.7,0.2c0.1-0.1,0.1-0.1,0.2-0.2c0.6,0.5,1.3,1,2.2,1.2h0.1c1.6,0.4,3.4-0.1,4.6-1.3c0.9,0.9,2.2,1.3,3.4,1.3
			c0.4,0,0.8-0.4,0.8-0.7c-0.2-0.4-0.5-0.6-1-0.7C39.9,40.9,38.9,40.4,38.3,39.5z M31.8,21.1c2.4,1.5,4.8,3.1,6.8,5
			c-0.1,0.4-0.3,0.9-0.4,1.4c-4.2-3.1-8.7-5.9-13.6-8.2v-1.9c2.4,1,4.8,2.2,7,3.6C31.7,21,31.8,21,31.8,21.1z M22.1,7.4h3.6L25.9,9
			H22L22.1,7.4z M21.8,10.5h4.2l0.3,2.5h-4.7L21.8,10.5z M16.5,14.6c0-0.1,0.1-0.2,0.2-0.2h14.4c0.1,0,0.2,0.1,0.2,0.2l0.2,4.5
			c-2.2-1.3-4.7-2.5-7.2-3.4c-0.1,0-0.1,0-0.2,0H24c-2.5,0.9-4.9,2.1-7.2,3.4L16.5,14.6z M9.2,26.1c2.1-1.9,4.4-3.5,6.8-5
			c0.1,0,0.1-0.1,0.1-0.1c2.2-1.3,4.6-2.6,7-3.6v1.9c-4.9,2.2-9.3,5-13.6,8.2C9.4,27,9.3,26.5,9.2,26.1z M33.1,40.6
			c-0.6-0.3-1.5-0.7-1.9-1.2h-0.1h-0.6c-0.9,1.4-3.2,2.1-4.6,1.3c-0.4-0.3-1.1-0.9-1.3-1.3c-0.2-0.4-0.9-0.6-1.3-0.4
			c-0.1,0.1-0.5,0.7-0.6,0.8c-0.9,1.4-2.6,1.7-4,0.9c-0.4-0.3-0.8-0.8-1.1-1.2l-0.8,0.1h-0.1c-0.3,0.5-0.8,0.9-1.4,1.2
			c-1.5-2.8-2.8-5.7-3.7-8.7l0.6-0.5c0.4-0.4,1-0.7,1.5-1.2c0.3-0.3,0.3-0.7,0.2-1c-0.3-0.3-0.7-0.4-1-0.1c-0.5,0.4-1,0.8-1.5,1.2
			l-0.2,0.1c-0.2-0.5-0.3-1-0.5-1.5c3.9-3.1,8.2-5.8,12.7-8.1v12.8c0,0.4,0.3,0.7,0.8,0.7s0.8-0.4,0.8-0.7V20.9
			c4.5,2.3,8.8,5,12.7,8.1c-0.2,0.4-0.3,1-0.5,1.5l-0.2-0.1c-1-0.8-2-1.6-3.2-2.5c-0.3-0.3-0.8-0.2-1,0.2c-0.3,0.3-0.2,0.7,0.2,1
			c1.1,0.8,2.3,1.6,3.1,2.4l0.6,0.5C35.6,34.9,34.6,37.8,33.1,40.6z"/>
	</g>
</g>
</svg>
