<?xml version="1.0" encoding="utf-8"?>
<!-- Generator: Adobe Illustrator 23.0.1, SVG Export Plug-In . SVG Version: 6.00 Build 0)  -->
<svg version="1.1" id="Layer_1" xmlns="http://www.w3.org/2000/svg" xmlns:xlink="http://www.w3.org/1999/xlink" x="0px" y="0px"
	 viewBox="0 0 48 48" style="enable-background:new 0 0 48 48;" xml:space="preserve">
<style type="text/css">
	.st0{fill:#0089C4;}
</style>
<g id="cat-hotel" transform="translate(-295 -213)">
	<g id="Group_4" transform="translate(-29 1.03)">
		<path id="Path_1448" class="st0" d="M362.8,234.2v-7.4c0-3.2-2.6-5.7-5.8-5.8h-6c-0.4,0-0.6,0.3-0.6,0.6c0,0.4,0.3,0.6,0.6,0.6h6
			c2.5,0,4.5,2,4.5,4.5v6.8c-0.5-0.2-1-0.3-1.5-0.3h-0.1v-3.7c0-1.4-1.1-2.5-2.5-2.5h-7.2c-0.7,0-1.4,0.3-1.8,0.8
			c-0.5-0.5-1.1-0.8-1.8-0.8h-7.2c-1.4,0-2.5,1.1-2.5,2.5v3.7h-0.1c-0.5,0-1,0.1-1.5,0.3v-6.8c0-2.5,2-4.5,4.5-4.5h6.2
			c0.4,0,0.6-0.3,0.6-0.6c0-0.4-0.3-0.6-0.6-0.6h-6.2c-3.2,0-5.7,2.6-5.8,5.8v7.4c-1.2,0.9-1.9,2.3-1.9,3.8v8.2
			c0,0.4,0.3,0.6,0.6,0.6h1.3v2.8c0,0.4,0.3,0.6,0.6,0.6h3.5c0.4,0,0.6-0.3,0.6-0.6v-2.8h19.4v2.8c0,0.4,0.3,0.6,0.6,0.6h3.5
			c0.4,0,0.6-0.3,0.6-0.6v-2.8h1.3c0.4,0,0.6-0.3,0.6-0.6V238C364.7,236.5,364,235.1,362.8,234.2z M349,229.6c0-0.7,0.5-1.2,1.2-1.2
			h7.2c0.7,0,1.2,0.5,1.2,1.2v3.7H349V229.6z M338.1,229.6c0-0.7,0.5-1.2,1.2-1.2h7.2c0.7,0,1.2,0.5,1.2,1.2v3.7h-9.6L338.1,229.6z
			 M337.4,249h-2.2v-2.2h2.2V249z M361.5,249h-2.2v-2.2h2.2L361.5,249z M363.4,242.5h-25.6c-0.4,0-0.6,0.3-0.6,0.6s0.3,0.6,0.6,0.6
			c0,0,0,0,0,0h25.6v1.8h-30.2V238c0-1.9,1.5-3.4,3.4-3.4H360c1.9,0,3.4,1.5,3.5,3.4L363.4,242.5z"/>
		<path id="Path_1449" class="st0" d="M348.8,221.2c-0.2-0.2-0.7-0.2-0.9,0c-0.2,0.2-0.2,0.7,0,0.9s0.7,0.2,0.9,0
			c0.1-0.1,0.2-0.3,0.2-0.5C349,221.5,348.9,221.3,348.8,221.2z"/>
		<path id="Path_1450" class="st0" d="M335.8,242.7c-0.2-0.2-0.7-0.2-0.9,0c-0.2,0.2-0.2,0.7,0,0.9c0.2,0.2,0.7,0.2,0.9,0
			c0.1-0.1,0.2-0.3,0.2-0.5C336,242.9,335.9,242.8,335.8,242.7z"/>
	</g>
</g>
</svg>
