<?xml version="1.0" encoding="utf-8"?>
<!-- Generator: Adobe Illustrator 23.0.1, SVG Export Plug-In . SVG Version: 6.00 Build 0)  -->
<svg version="1.1" id="Layer_1" xmlns="http://www.w3.org/2000/svg" xmlns:xlink="http://www.w3.org/1999/xlink" x="0px" y="0px"
	 viewBox="0 0 48 48" style="enable-background:new 0 0 48 48;" xml:space="preserve">
<style type="text/css">
	.st0{fill:#7A7A7A;}
</style>
<g id="cat-plane" transform="translate(-533 -98)">
	<g id="Group_5" transform="translate(4 5)">
		<path id="Path_1407" class="st0" d="M572,104.6l-0.2-0.5c-0.4-0.9-1.1-1.5-2.1-1.8c-1.6-0.6-3.7-0.2-6.1,0.9l0,0l-9.4,5.2
			l-9.1-4.9c-0.2-0.1-0.5-0.1-0.7,0l-4,1.9c-0.4,0.2-0.5,0.6-0.4,1c0.1,0.1,0.1,0.2,0.2,0.3l7.2,5.5l-6.2,3.4l-3.2-1.7
			c-0.2-0.1-0.5-0.1-0.7,0l-2.8,1.3c-0.4,0.2-0.5,0.6-0.4,1c0.1,0.1,0.1,0.2,0.2,0.3l5.8,4.4c0.9,0.7,2.2,0.8,3.2,0.3l3-1.4
			l23.9-11.4c0.7-0.3,1.2-0.8,1.6-1.5C572.3,106.1,572.3,105.3,572,104.6z M544.7,105l10.8,5.8l-2.2,1l-2.7-1.9
			c-0.3-0.3-0.8-0.2-1.1,0.1c-0.3,0.3-0.2,0.8,0.1,1.1c0,0,0,0,0.1,0l2,1.5l-0.8,0.3l-8.9-6.7L544.7,105z M569.8,106.9l-23.9,11.4
			l-3,1.4c-0.5,0.2-1.2,0.2-1.6-0.2l-4.8-3.7l1.3-0.6l3.2,1.7c0.2,0.1,0.5,0.1,0.7,0l7.1-3.9l1.7,1.3c0.2,0.2,0.5,0.2,0.8,0.1
			l6.3-2.9c0.4-0.2,0.5-0.6,0.4-1c-0.1-0.1-0.2-0.3-0.3-0.3l-1.8-1l8.5-4.7c1.9-0.9,3.6-1.3,4.8-0.9l-2.8,1.4
			c-0.4,0.2-0.6,0.6-0.4,1s0.6,0.6,1,0.4c0,0,0,0,0.1,0l3.4-1.7c0,0,0,0,0,0.1l0.2,0.5c0.3,0.7,0,1.4-0.7,1.7
			C569.9,106.9,569.8,106.9,569.8,106.9z"/>
		<path id="Path_1408" class="st0" d="M562.1,125.7h-25.7c-0.4,0-0.8,0.3-0.8,0.7c0,0.4,0.3,0.8,0.7,0.8c0,0,0,0,0.1,0h25.7
			c0.4,0,0.8-0.3,0.8-0.7C562.9,126,562.6,125.7,562.1,125.7C562.2,125.7,562.1,125.7,562.1,125.7z"/>
		<path id="Path_1409" class="st0" d="M568.7,125.7H566c-0.4,0-0.8,0.3-0.8,0.7c0,0.4,0.3,0.8,0.7,0.8c0,0,0,0,0.1,0h2.7
			c0.4,0,0.8-0.3,0.8-0.7C569.5,126,569.2,125.7,568.7,125.7C568.7,125.7,568.7,125.7,568.7,125.7L568.7,125.7z"/>
		<path id="Path_1410" class="st0" d="M553.1,129.4h-12.6c-0.4,0-0.8,0.3-0.8,0.7c0,0.4,0.3,0.8,0.7,0.8c0,0,0,0,0.1,0h12.6
			c0.4,0,0.8-0.3,0.8-0.7C553.9,129.8,553.5,129.4,553.1,129.4C553.1,129.4,553.1,129.4,553.1,129.4z"/>
		<path id="Path_1411" class="st0" d="M534.8,112c0.1,0,0.2,0,0.3-0.1l5-2.1c0.4-0.1,0.6-0.6,0.4-1c-0.1-0.4-0.6-0.6-1-0.4
			c0,0,0,0,0,0l-5,2.1c-0.4,0.2-0.6,0.6-0.4,1C534.2,111.8,534.5,112,534.8,112L534.8,112z"/>
	</g>
</g>
</svg>
