<?xml version="1.0" encoding="utf-8"?>
<!-- Generator: Adobe Illustrator 23.0.1, SVG Export Plug-In . SVG Version: 6.00 Build 0)  -->
<svg version="1.1" id="Layer_1" xmlns="http://www.w3.org/2000/svg" xmlns:xlink="http://www.w3.org/1999/xlink" x="0px" y="0px"
	 viewBox="0 0 48 48" style="enable-background:new 0 0 48 48;" xml:space="preserve">
<style type="text/css">
	.st0{fill:#7A7A7A;}
</style>
<g id="cat-bus" transform="translate(-138 -88)">
	<g id="Group_1" transform="translate(4 -5)">
		<path id="Path_1424" class="st0" d="M175,109h-34.8c-1.1,0-2.1,0.9-2.1,2.1v14.5h4.2c0.2,0.8,0.7,1.6,1.4,2.1l-7.6,0v1.4l16.5,0
			v-1.4l-4.8,0c0.7-0.5,1.2-1.2,1.3-2.1h17.3c0.2,0.8,0.6,1.6,1.3,2.1H158v1.4h17.9v-1.4h-4.1c0.7-0.5,1.2-1.2,1.3-2.1h4.9V115
			L175,109z M145,110.4h4.1v4.8H145V110.4z M139.5,111.1c0-0.4,0.3-0.7,0.7-0.7h3.4v4.8h-4.1V111.1z M145.6,126.9
			c-1.1,0-2.1-0.9-2.1-2.1c0-1.1,0.9-2.1,2.1-2.1c1.1,0,2.1,0.9,2.1,2.1l0,0C147.7,126,146.8,126.9,145.6,126.9L145.6,126.9z
			 M154.6,124.1H149l0,0c0,0,0,0,0,0c0-0.2-0.1-0.4-0.2-0.6c0-0.1-0.1-0.1-0.1-0.2c-0.1-0.1-0.1-0.2-0.2-0.4c0-0.1-0.1-0.1-0.1-0.2
			c-0.1-0.1-0.2-0.2-0.2-0.3c-0.1-0.1-0.1-0.1-0.2-0.2c-0.1-0.1-0.2-0.2-0.3-0.2c-0.1-0.1-0.1-0.1-0.2-0.1c-0.1-0.1-0.2-0.1-0.3-0.2
			c-0.1,0-0.1-0.1-0.2-0.1c-0.1-0.1-0.3-0.1-0.4-0.1c-0.1,0-0.1,0-0.2-0.1c-0.4-0.1-0.9-0.1-1.3,0c-0.1,0-0.1,0-0.2,0.1
			c-0.1,0-0.3,0.1-0.4,0.1c-0.1,0-0.1,0.1-0.2,0.1c-0.1,0.1-0.2,0.1-0.3,0.2c-0.1,0-0.1,0.1-0.2,0.1c-0.1,0.1-0.2,0.2-0.3,0.2
			c-0.1,0.1-0.1,0.1-0.2,0.2c-0.1,0.1-0.2,0.2-0.2,0.3c0,0.1-0.1,0.1-0.1,0.2c-0.1,0.1-0.1,0.2-0.2,0.4c0,0.1-0.1,0.1-0.1,0.2
			c-0.1,0.2-0.1,0.4-0.2,0.6c0,0,0,0,0,0l0,0h-2.8v-4.8h2.1v-1.4h-2.1v-1.4h15.1V124.1z M154.6,115.2h-4.1v-4.8h4.1V115.2z
			 M157.3,124.1H156v-13.8h1.4V124.1z M160.1,115.2v9h-1.4v-13.8h1.4L160.1,115.2z M172.5,110.4h1.6l2.4,4.8h-4L172.5,110.4z
			 M167,110.4h4.1v4.8H167L167,110.4z M161.5,110.4h4.1v4.8h-4.1L161.5,110.4z M169.7,126.9c-1.1,0-2.1-0.9-2.1-2.1
			c0-1.1,0.9-2.1,2.1-2.1c1.1,0,2.1,0.9,2.1,2.1l0,0C171.8,126,170.9,126.9,169.7,126.9L169.7,126.9z M176.6,124.1h-3.5l0,0
			c0,0,0,0,0,0c0-0.2-0.1-0.4-0.2-0.6c0-0.1-0.1-0.1-0.1-0.2c-0.1-0.1-0.1-0.2-0.2-0.4c0-0.1-0.1-0.1-0.1-0.2
			c-0.1-0.1-0.2-0.2-0.2-0.3c-0.1-0.1-0.1-0.1-0.2-0.2c-0.1-0.1-0.2-0.2-0.3-0.2c-0.1-0.1-0.1-0.1-0.2-0.1c-0.1-0.1-0.2-0.1-0.3-0.2
			c-0.1,0-0.1-0.1-0.2-0.1c-0.1-0.1-0.3-0.1-0.4-0.1c-0.1,0-0.1,0-0.2-0.1c-0.2,0-0.4-0.1-0.7-0.1c-1,0-2,0.4-2.6,1.2
			c0,0-0.1,0.1-0.1,0.1c-0.1,0.1-0.2,0.3-0.3,0.4c0,0,0,0,0,0c-0.1,0.1-0.1,0.3-0.2,0.4c0,0,0,0.1,0,0.1c-0.1,0.2-0.1,0.3-0.1,0.5
			c0,0,0,0,0,0h-4.9v-7.6h9.6v3.7l2.5,2.5h3L176.6,124.1z M176.6,121.4h-2.5l-1.7-1.7v-3.2h2.1v2.8h2.1L176.6,121.4z M176.6,117.9
			h-0.7v-1.4h0.7V117.9z"/>
		<rect id="Rectangle_1583" x="153.9" y="127.6" class="st0" width="2.8" height="1.4"/>
		<rect id="Rectangle_1584" x="177.3" y="127.6" class="st0" width="2.8" height="1.4"/>
		<rect id="Rectangle_1585" x="145" y="124.1" class="st0" width="1.4" height="1.4"/>
		<rect id="Rectangle_1586" x="169" y="124.1" class="st0" width="1.4" height="1.4"/>
	</g>
</g>
</svg>
