<?xml version="1.0" encoding="utf-8"?>
<!-- Generator: Adobe Illustrator 23.0.1, SVG Export Plug-In . SVG Version: 6.00 Build 0)  -->
<svg version="1.1" id="Layer_1" xmlns="http://www.w3.org/2000/svg" xmlns:xlink="http://www.w3.org/1999/xlink" x="0px" y="0px"
	 viewBox="0 0 48 48" style="enable-background:new 0 0 48 48;" xml:space="preserve">
<style type="text/css">
	.st0{fill:#7A7A7A;}
</style>
<g id="cat-tour" transform="translate(-344 -89)">
	<g id="Group_3" transform="translate(8 -3)">
		<path id="Path_1430" class="st0" d="M376.6,100.1c-0.2-0.1-0.4-0.1-0.6,0l-10.2,4.8l-2.8-1.3c-0.3-0.1-0.7,0-0.9,0.3
			c-0.1,0.3,0,0.7,0.3,0.9l2.7,1.3v23.5l-9.2-4.3v-16.7h0c0.3,0,0.5,0.1,0.7,0.2c0.3,0.1,0.7-0.1,0.8-0.4c0.1-0.3-0.1-0.7-0.4-0.8
			c-0.3-0.1-0.6-0.2-1-0.2c-0.1,0-0.1,0-0.2,0v-5.6l3.1,1.5c0.3,0.1,0.7,0,0.9-0.3c0.1-0.3,0-0.7-0.3-0.9l-4-1.9l0,0l0,0h0
			c0,0,0,0-0.1,0l0,0l-0.1,0h0c0,0-0.1,0-0.1,0h0l-0.1,0h0c0,0,0,0-0.1,0h0c0,0,0,0-0.1,0l0,0l-10.5,4.9c-0.2,0.1-0.4,0.3-0.4,0.6
			v24.9c0,0.4,0.3,0.6,0.6,0.6c0.1,0,0.2,0,0.3-0.1l10.2-4.8l10.2,4.8l0,0l0,0c0,0,0,0,0.1,0l0,0c0,0,0,0,0.1,0h0c0,0,0.1,0,0.1,0h0
			c0,0,0,0,0.1,0h0l0.1,0l0,0c0,0,0,0,0.1,0l0,0h0l10.5-4.9c0.2-0.1,0.4-0.3,0.4-0.6v-24.9C376.8,100.4,376.7,100.2,376.6,100.1z
			 M354.5,125.2l-9.2,4.3V106l9.2-4.3V125.2z M375.6,125.2l-9.2,4.3v-5.6c0.2,0,0.4-0.1,0.7-0.1c0.3-0.1,0.6-0.4,0.5-0.8
			c-0.1-0.3-0.4-0.6-0.8-0.5c-0.1,0-0.2,0-0.4,0.1V106l9.2-4.3L375.6,125.2z"/>
		<path id="Path_1431" class="st0" d="M349.9,120.8c-0.4,0-0.6,0.3-0.6,0.6l0,0v0.5c0,0.4,0.3,0.6,0.6,0.6s0.6-0.3,0.6-0.6v-0.5
			C350.6,121,350.3,120.8,349.9,120.8C349.9,120.8,349.9,120.8,349.9,120.8z"/>
		<path id="Path_1432" class="st0" d="M349.9,114.5c-0.4,0-0.6,0.3-0.6,0.6v0.9c0,0.4,0.3,0.6,0.6,0.6s0.6-0.3,0.6-0.6v-0.9
			C350.5,114.8,350.3,114.5,349.9,114.5L349.9,114.5z"/>
		<path id="Path_1433" class="st0" d="M361.1,118.4c0-0.1,0-0.2,0-0.4v-0.5l0,0c0-0.4-0.3-0.6-0.6-0.6c-0.4,0-0.6,0.3-0.6,0.6
			c0,0,0,0,0,0v0.5c0,0.2,0,0.3,0,0.5c0,0.3,0.3,0.6,0.6,0.6h0C360.8,119.1,361.1,118.7,361.1,118.4
			C361.1,118.4,361.1,118.4,361.1,118.4z"/>
		<path id="Path_1434" class="st0" d="M360.4,113.9c-0.4,0-0.6,0.3-0.6,0.6v0.9c0,0.4,0.3,0.6,0.6,0.6c0.4,0,0.6-0.3,0.6-0.6v-0.9
			C361.1,114.2,360.8,113.9,360.4,113.9z"/>
		<path id="Path_1435" class="st0" d="M350.1,111.6c-0.4-0.1-0.7,0.2-0.7,0.5c0,0,0,0,0,0c-0.1,0.3-0.1,0.6-0.1,1v0
			c0,0.4,0.3,0.6,0.6,0.6s0.6-0.3,0.6-0.6v0c0-0.3,0-0.5,0.1-0.8C350.7,111.9,350.4,111.6,350.1,111.6
			C350.1,111.6,350.1,111.6,350.1,111.6z"/>
		<path id="Path_1436" class="st0" d="M362,120.8c-0.2-0.2-0.3-0.4-0.4-0.6c-0.2-0.3-0.6-0.4-0.9-0.3c-0.3,0.2-0.4,0.6-0.3,0.9
			c0.2,0.3,0.3,0.6,0.5,0.8c0.2,0.3,0.6,0.3,0.9,0.1C362.2,121.5,362.2,121.1,362,120.8L362,120.8z"/>
		<path id="Path_1437" class="st0" d="M359.7,109.3c-0.1-0.1-0.2-0.3-0.4-0.4c-0.1-0.1-0.2-0.2-0.3-0.3c-0.3-0.2-0.7-0.2-0.9,0.1
			c-0.2,0.3-0.2,0.7,0.1,0.9c0.1,0.1,0.2,0.1,0.2,0.2c0.1,0.1,0.2,0.2,0.3,0.3c0.2,0.3,0.6,0.3,0.9,0.1S360,109.6,359.7,109.3
			L359.7,109.3z"/>
		<path id="Path_1438" class="st0" d="M349.9,117.6c-0.4,0-0.6,0.3-0.6,0.6l0,0v0.9c0,0.4,0.3,0.6,0.6,0.6s0.6-0.3,0.6-0.6v-0.9
			C350.5,117.8,350.3,117.6,349.9,117.6C349.9,117.6,349.9,117.6,349.9,117.6z"/>
		<path id="Path_1439" class="st0" d="M361,112.4c0-0.3-0.1-0.6-0.2-1c-0.1-0.3-0.5-0.5-0.8-0.4s-0.5,0.5-0.4,0.8c0,0,0,0,0,0
			c0.1,0.2,0.1,0.5,0.2,0.8c0,0.3,0.3,0.6,0.6,0.6c0,0,0.1,0,0.1,0C360.8,113,361.1,112.7,361,112.4C361,112.4,361,112.4,361,112.4z
			"/>
		<path id="Path_1440" class="st0" d="M364.1,122.4c-0.2-0.1-0.5-0.2-0.7-0.3c-0.3-0.2-0.7-0.1-0.9,0.2c-0.2,0.3-0.1,0.7,0.2,0.9
			l0,0c0.3,0.2,0.6,0.3,0.9,0.4c0.3,0.1,0.7-0.1,0.8-0.4C364.6,122.9,364.4,122.5,364.1,122.4L364.1,122.4z"/>
		<path id="Path_1441" class="st0" d="M369.9,121.3c-0.3-0.2-0.7-0.2-0.9,0c0,0,0,0,0,0l0,0c-0.2,0.2-0.4,0.3-0.6,0.5
			c-0.3,0.2-0.4,0.6-0.1,0.9s0.6,0.4,0.9,0.1c0.3-0.2,0.5-0.4,0.7-0.6l0,0C370.1,121.9,370.1,121.5,369.9,121.3
			C369.9,121.3,369.9,121.3,369.9,121.3z"/>
		<path id="Path_1442" class="st0" d="M354.4,107.8c-0.1-0.3-0.4-0.5-0.8-0.5c0,0,0,0,0,0c-0.3,0.1-0.6,0.2-0.9,0.3
			c-0.3,0.1-0.5,0.5-0.3,0.9s0.5,0.5,0.9,0.3c0.2-0.1,0.5-0.2,0.7-0.3C354.3,108.5,354.5,108.1,354.4,107.8
			C354.4,107.8,354.4,107.8,354.4,107.8z"/>
		<path id="Path_1443" class="st0" d="M371,118.5c-0.3-0.1-0.7,0.2-0.8,0.5c0,0,0,0,0,0c-0.1,0.3-0.1,0.5-0.2,0.7
			c-0.1,0.3,0,0.7,0.4,0.8s0.7,0,0.8-0.4c0.1-0.3,0.2-0.6,0.3-0.9C371.5,118.9,371.3,118.5,371,118.5C371,118.5,371,118.5,371,118.5
			z"/>
		<path id="Path_1444" class="st0" d="M351.7,109c-0.3-0.2-0.7-0.2-0.9,0c0,0,0,0,0,0c-0.2,0.2-0.4,0.5-0.6,0.8
			c-0.2,0.3-0.1,0.7,0.2,0.9c0.3,0.2,0.7,0.1,0.9-0.2c0.1-0.2,0.3-0.4,0.5-0.6C352,109.7,352,109.3,351.7,109
			C351.7,109,351.7,109,351.7,109z"/>
		<path id="Path_1445" class="st0" d="M370.9,112.5c-0.4,0-0.6,0.3-0.6,0.6c0,0,0,0,0,0v0.9c0,0.4,0.3,0.6,0.6,0.6
			c0.4,0,0.6-0.3,0.6-0.6v-0.9C371.6,112.7,371.3,112.5,370.9,112.5z"/>
		<path id="Path_1446" class="st0" d="M370.9,115.5c-0.4,0-0.6,0.3-0.6,0.6c0,0,0,0,0,0v0.9c0,0.4,0.3,0.6,0.6,0.6
			c0.4,0,0.6-0.3,0.6-0.6c0,0,0,0,0,0v-0.9C371.6,115.7,371.3,115.5,370.9,115.5z"/>
		<path id="Path_1447" class="st0" d="M371.6,109l1-1.2c0.2-0.3,0.2-0.7-0.1-0.9c-0.3-0.2-0.7-0.2-0.9,0.1l0,0l-1,1.1l-1-1.1
			c-0.2-0.3-0.6-0.3-0.9-0.1c-0.3,0.2-0.3,0.6-0.1,0.9l1,1.2l-1,1.2c-0.2,0.3-0.2,0.7,0.1,0.9c0.3,0.2,0.7,0.2,0.9-0.1l0,0l1-1.1
			l1,1.1c0.2,0.3,0.6,0.3,0.9,0.1c0.3-0.2,0.3-0.6,0.1-0.9l0,0L371.6,109z"/>
		<ellipse id="Ellipse_220" class="st0" cx="360.9" cy="103.4" rx="0.6" ry="0.6"/>
	</g>
</g>
</svg>
