<?xml version="1.0" encoding="utf-8"?>
<!-- Generator: Adobe Illustrator 23.0.1, SVG Export Plug-In . SVG Version: 6.00 Build 0)  -->
<svg version="1.1" id="Layer_1" xmlns="http://www.w3.org/2000/svg" xmlns:xlink="http://www.w3.org/1999/xlink" x="0px" y="0px"
	 viewBox="0 0 16 16" style="enable-background:new 0 0 16 16;" xml:space="preserve">
<style type="text/css">
	.st0{fill:#575757;}
</style>
<g id="cretid-icon" transform="translate(-1363 -2744)">
	<g id="credit-card" transform="translate(1364 2691.179)">
		<g id="Group_2806" transform="translate(0 54.821)">
			<path id="Path_4845" class="st0" d="M13.8,0.3C13.6,0.1,13.2,0,12.9,0H1.2C0.9,0,0.6,0.1,0.3,0.3C0.1,0.6,0,0.9,0,1.2v8.9
				c0,0.3,0.1,0.6,0.3,0.8c0.2,0.2,0.5,0.3,0.8,0.3h11.8c0.6,0,1.2-0.5,1.2-1.2V1.2C14.1,0.9,14,0.6,13.8,0.3z M13.2,10.1
				c0,0.1-0.1,0.2-0.2,0.2H1.2c-0.1,0-0.2-0.1-0.2-0.2V5.6h12.2L13.2,10.1L13.2,10.1z M13.2,2.8H0.9V1.2C0.9,1,1,0.9,1.2,0.9h11.8
				c0.1,0,0.2,0.1,0.2,0.2L13.2,2.8L13.2,2.8z"/>
			<rect id="Rectangle_1907" x="1.9" y="8.5" class="st0" width="1.9" height="0.9"/>
			<rect id="Rectangle_1908" x="4.7" y="8.5" class="st0" width="2.8" height="0.9"/>
		</g>
	</g>
</g>
</svg>
