<?xml version="1.0" encoding="utf-8"?>
<!-- Generator: Adobe Illustrator 22.0.0, SVG Export Plug-In . SVG Version: 6.00 Build 0)  -->
<svg version="1.1" id="Layer_1" xmlns="http://www.w3.org/2000/svg" xmlns:xlink="http://www.w3.org/1999/xlink" x="0px" y="0px"
	 viewBox="0 0 297.3 26.4" style="enable-background:new 0 0 297.3 26.4;" xml:space="preserve">
<style type="text/css">
	.st0{fill:#00AF58;}
</style>
<title>footer_logo2</title>
<path class="st0" d="M36.8,6.6v4.9h8.8v2.7h-8.8v4.9H48v2.7H35.2c-0.8,0-1.5-0.6-1.5-1.4V5.3c0-0.8,0.7-1.4,1.5-1.4H48v2.7
	C48,6.6,36.8,6.6,36.8,6.6z"/>
<polygon class="st0" points="107.3,3.7 100,21.8 96.9,21.8 89.1,3.7 92.4,3.7 98.4,17.7 104.1,3.7 "/>
<path class="st0" d="M61.9,15.2c3.2,0,6.3-2,6.3-5.5S65.7,4,61.7,4h-9.3v17.9h3v-6.7h0.9l7.3,6.6h4.3l-7.3-6.6L61.9,15.2z
	 M55.4,12.5V6.7h6.3c3.5,0,3.5,2.3,3.5,3c0,2.1-1.8,2.8-3.4,2.8H55.4z"/>
<path class="st0" d="M82.6,3.7H79l-7.9,18.1h3.3l1.6-3.7l9.7-0.1l1.7,3.8h3.3L82.6,3.7z M77.2,15.4l3.6-8.2l3.7,8.2H77.2z"/>
<path class="st0" d="M113.8,6.6v4.9h8.1v2.7h-8.1v4.9H125v2.7h-12.7c-0.8,0-1.5-0.6-1.5-1.4l0,0V5.3c0-0.8,0.7-1.4,1.5-1.4l0,0H125
	v2.7C125,6.6,113.8,6.6,113.8,6.6z"/>
<path class="st0" d="M142.8,19.2v2.7h-11.7c-0.8,0-1.5-0.6-1.5-1.4V3.9h3v15.3H142.8z"/>
<circle class="st0" cx="11.8" cy="11.8" r="1.7"/>
<path class="st0" d="M11.8,0C5.3,0,0,5.3,0.1,11.8c0,5.5,3.8,10.2,9.1,11.4l2.6,3.2l2.8-3.2l0,0c6.3-1.5,10.2-7.9,8.7-14.2
	C22,3.7,17.2,0,11.8,0z M14.6,14.6c-0.6,2.1-2.5,6.8-2.8,6.8S9.6,17.3,9,14.6c-2.4-0.7-6.8-2.3-6.8-2.8S6.8,9.4,9,8.9
	c0.5-2.2,2.5-6.8,2.8-6.8s2.4,4.7,2.8,6.8c2.2,0.5,6.8,2.5,6.8,2.8S17.3,14,14.6,14.6z"/>
<circle class="st0" cx="11.8" cy="11.8" r="1.7"/>
<circle class="st0" cx="11.8" cy="11.8" r="1.7"/>
<g id="Group_37" transform="translate(-29 22)">
	<path id="Path_46" class="st0" d="M199.3-9.7v1.9c0,0.7-0.4,1.1-1.1,1.1H194c-0.3,0-0.5-0.1-0.7-0.3c-0.2-0.2-0.2-0.5-0.2-0.8v-4.8
		h-1.6v1.1h-1.3c-0.4,0-0.8,0.1-1.2,0.3c-0.3,0.2-0.6,0.4-0.9,0.8c-0.2,0.3-0.4,0.7-0.5,1.1c-0.1,0.4-0.2,0.8-0.2,1.2
		c0,0.9,0.2,1.6,0.6,2c0.5,0.5,1.1,0.7,1.8,0.7c0.4,0,0.7,0,1.1-0.1c0.4-0.1,0.7-0.3,1-0.6c0.1,0.4,0.4,0.8,0.8,1
		c0.4,0.2,0.9,0.3,1.4,0.3h4.3c0.7,0,1.4-0.2,2-0.7c0.5-0.5,0.7-1.2,0.7-2.1v-2.1C201.1-9.7,199.3-9.7,199.3-9.7z M191.4-8.2
		c0,0.3-0.1,0.5-0.3,0.7c-0.3,0.2-0.6,0.3-1,0.3c-0.3,0-0.6-0.1-0.9-0.3c-0.2-0.2-0.3-0.5-0.3-0.9s0.1-0.7,0.3-1.1
		c0.2-0.3,0.6-0.5,1-0.4h1.2V-8.2z"/>
	<path id="Path_47" class="st0" d="M195.7-3v1.7h1.8V-3H195.7z"/>
	<path id="Path_48" class="st0" d="M214.6-3v1.7h1.8V-3H214.6z"/>
	<path id="Path_49" class="st0" d="M225.3-9.7v2.1c0,0.9-0.2,1.6-0.7,2.1s-1.2,0.7-2,0.7h-2.7c-0.7,0-1.3-0.2-1.6-0.5
		s-0.6-0.8-0.8-1.2l-1.4,0.8c-0.3,0.2-0.6,0.3-0.9,0.4c-0.3,0.1-0.6,0.2-0.9,0.3c-0.3,0.1-0.7,0.1-1.1,0.2c-0.4,0-0.8,0-1.3,0h-6.2
		c-0.2,0-0.4,0-0.7-0.1c-0.2-0.1-0.4-0.2-0.6-0.4V-5c0,0.6-0.1,1.1-0.3,1.7c-0.2,0.5-0.5,1-0.8,1.4c-0.4,0.4-0.8,0.7-1.3,0.9
		s-1,0.3-1.6,0.3H200l-0.1-1.8h0.2c0.4,0,0.8-0.1,1.2-0.2c0.3-0.1,0.6-0.3,0.8-0.6c0.2-0.2,0.4-0.5,0.5-0.8s0.1-0.6,0.1-0.9v-4.6
		h1.7v2c0,0.3,0.1,0.6,0.3,0.8c0.2,0.2,0.5,0.3,0.8,0.3h6.3c0.4,0,0.8,0,1.1,0s0.6,0,0.9-0.1c0.3,0,0.5-0.1,0.8-0.2s0.5-0.2,0.7-0.3
		l2.1-1.2c-0.1-0.1-0.1-0.3-0.2-0.4c-0.1-0.1-0.2-0.2-0.3-0.3s-0.2-0.1-0.4-0.2c-0.2,0-0.4-0.1-0.6-0.1h-3.5l0.1-1.8h3.7
		c0.3,0,0.6,0,0.9,0.1c0.3,0.1,0.6,0.3,0.9,0.5c0.3,0.3,0.6,0.7,0.8,1.1c0.3,0.6,0.5,1.2,0.6,1.8l-0.9,0.5c0.1,0.2,0.3,0.4,0.5,0.5
		s0.5,0.1,0.7,0.1h2.5c0.7,0,1.1-0.4,1.1-1.1v-1.9L225.3-9.7L225.3-9.7z"/>
	<path id="Path_50" class="st0" d="M221.2-13.2v1.6h1.7v-1.6H221.2z M223.6-13.2v1.6h1.7v-1.6H223.6z"/>
	<path id="Path_51" class="st0" d="M303.7-15.6v1.7h1.8v-1.7H303.7z"/>
	<path id="Path_52" class="st0" d="M323.9-10.7v1.9c0,0.3-0.1,0.6-0.3,0.8c-0.2,0.2-0.5,0.3-0.8,0.3s-0.5-0.1-0.7-0.2
		c-0.2-0.2-0.3-0.5-0.3-0.8v-1.9h-1.7v1.9c0,0.7-0.4,1.1-1.2,1.1c-0.3,0-0.6-0.1-0.8-0.2c-0.3-0.2-0.4-0.5-0.4-0.8v-1.9H316v1.9
		c0,0.7-0.4,1.1-1.1,1.1h-8.5c0.3-0.3,0.5-0.6,0.7-1c0.2-0.4,0.3-0.8,0.3-1.3c0-0.3-0.1-0.7-0.2-1s-0.3-0.6-0.5-0.9
		c-0.2-0.3-0.5-0.5-0.9-0.6c-0.4-0.2-0.8-0.2-1.2-0.2c-0.4,0-0.8,0.1-1.2,0.2c-0.4,0.1-0.7,0.4-1,0.6c-0.3,0.3-0.5,0.6-0.6,0.9
		c-0.1,0.3-0.2,0.7-0.2,1.1c0,0.4,0.1,0.8,0.3,1.2c0.2,0.4,0.5,0.7,0.8,1h-2.5c-0.3,0-0.6-0.1-0.8-0.3c-0.2-0.2-0.4-0.5-0.3-0.8v-2
		h-1.7V-6c0,0.3,0,0.6-0.1,0.9s-0.3,0.6-0.5,0.8c-0.2,0.2-0.5,0.4-0.9,0.6c-0.4,0.2-0.8,0.2-1.3,0.2h-0.7l0.1,1.8h1
		c0.5,0,1.1-0.1,1.6-0.3c0.5-0.2,0.9-0.5,1.3-0.9s0.6-0.9,0.8-1.4c0.2-0.5,0.3-1.1,0.3-1.7v-0.3c0.1,0.2,0.3,0.3,0.6,0.4
		c0.2,0.1,0.4,0.1,0.7,0.1h2.6c0.2,0,0.5,0,0.7,0s0.5,0,0.7-0.1c0.2,0,0.4-0.1,0.6-0.2c0.3,0.1,0.6,0.2,0.9,0.2
		c0.4,0,0.9,0.1,1.4,0.1h7.8c0.4,0,0.7-0.1,1.1-0.2c0.4-0.2,0.7-0.5,0.9-0.8c0.2,0.4,0.5,0.7,0.9,0.8c0.4,0.1,0.8,0.2,1.2,0.2
		c0.4,0,0.7-0.1,1.1-0.2c0.4-0.2,0.7-0.5,0.9-0.8c0.2,0.4,0.5,0.7,0.9,0.8c0.3,0.1,0.7,0.2,1.1,0.2c0.7,0,1.4-0.2,2-0.7
		c0.5-0.5,0.7-1.2,0.7-2.1v-2.1L323.9-10.7z M305.5-8.6c-0.2,0.3-0.5,0.5-0.8,0.7c-0.4-0.2-0.7-0.4-0.9-0.7c-0.2-0.3-0.4-0.6-0.4-1
		c0-0.3,0.1-0.7,0.3-0.9c0.5-0.5,1.3-0.5,1.8,0c0.2,0.3,0.3,0.6,0.3,0.9C305.8-9.2,305.7-8.9,305.5-8.6z"/>
	<path id="Path_53" class="st0" d="M250.3-9.7v1.9c0,0.7-0.4,1.1-1.1,1.1h-1.9c-0.3,0-0.5-0.1-0.7-0.3c-0.2-0.2-0.2-0.5-0.2-0.8
		v-4.8h-1.6v1.1h-1.3c-0.4,0-0.8,0.1-1.2,0.3c-0.3,0.2-0.6,0.4-0.9,0.8c-0.2,0.3-0.4,0.7-0.5,1.1c-0.1,0.4-0.2,0.8-0.2,1.2
		c0,0.9,0.2,1.6,0.6,2c0.5,0.5,1.1,0.7,1.8,0.7c0.4,0,0.7,0,1.1-0.1c0.4-0.1,0.7-0.3,1-0.6c0.1,0.4,0.4,0.8,0.8,1
		c0.4,0.2,0.9,0.3,1.4,0.3h2c0.7,0,1.4-0.2,2-0.7c0.5-0.5,0.7-1.2,0.7-2.1v-2.1C252.1-9.7,250.3-9.7,250.3-9.7z M244.7-8.2
		c0,0.3-0.1,0.5-0.3,0.7c-0.3,0.2-0.6,0.3-1,0.3c-0.3,0-0.6-0.1-0.9-0.3c-0.2-0.2-0.3-0.5-0.3-0.9s0.1-0.7,0.3-1.1
		c0.2-0.3,0.6-0.5,1-0.4h1.2V-8.2z"/>
	<path id="Path_54" class="st0" d="M248.2-3v1.7h1.8V-3H248.2z"/>
	<path id="Path_55" class="st0" d="M259.5-9c0.3,0.3,0.5,0.6,0.7,1c0.1,0.3,0.2,0.6,0.2,1c0,0.6-0.2,1.1-0.6,1.5s-1,0.6-1.9,0.6
		h-4.4l-0.1-1.8h4.2c0.5,0,0.8-0.2,0.8-0.6c0-0.1,0-0.2-0.1-0.3c-0.1-0.1-0.1-0.2-0.2-0.3l-2.8-3.2l1.3-1.2L259.5-9z M257.4-13.6
		h-1.8v-1.7h1.8V-13.6z"/>
	<path id="Path_56" class="st0" d="M273.7-3v1.7h1.8V-3H273.7z"/>
	<path id="Path_57" class="st0" d="M278.8-7.8l-3.4,2c-0.3,0.2-0.6,0.3-0.9,0.4s-0.6,0.2-0.9,0.3c-0.3,0.1-0.7,0.1-1.1,0.2
		c-0.4,0-0.8,0-1.3,0h-6.8c-0.3,0-0.6,0-0.9-0.1s-0.5-0.2-0.7-0.4c-0.2-0.2-0.4-0.5-0.5-0.8c-0.1-0.4-0.2-0.8-0.2-1.2V-15h1.7v7.2
		c0,0.3,0.1,0.6,0.2,0.8c0.2,0.2,0.4,0.3,0.7,0.3h6.5c0.4,0,0.8,0,1.1,0c0.3,0,0.6,0,0.9-0.1c0.3,0,0.5-0.1,0.8-0.2s0.5-0.2,0.7-0.3
		l2.1-1.2c-0.1-0.1-0.1-0.3-0.2-0.4c-0.1-0.1-0.2-0.2-0.3-0.3c-0.1-0.1-0.2-0.1-0.4-0.2c-0.2,0-0.4-0.1-0.6-0.1h-3.5l0.1-1.8h3.7
		c0.3,0,0.6,0,0.9,0.1s0.6,0.3,0.9,0.5c0.3,0.3,0.6,0.7,0.8,1.1C278.4-9,278.6-8.4,278.8-7.8z"/>
	<circle id="Ellipse_13" class="st0" cx="233.8" cy="-8.2" r="2.4"/>
	<circle id="Ellipse_14" class="st0" cx="287.7" cy="-8.2" r="2.4"/>
</g>
</svg>
