<?xml version="1.0" encoding="utf-8"?>
<!-- Generator: Adobe Illustrator 23.0.1, SVG Export Plug-In . SVG Version: 6.00 Build 0)  -->
<svg version="1.1" id="Layer_1" xmlns="http://www.w3.org/2000/svg" xmlns:xlink="http://www.w3.org/1999/xlink" x="0px" y="0px"
	 viewBox="0 0 80 80" style="enable-background:new 0 0 80 80;" xml:space="preserve">
<style type="text/css">
	.st0{fill-rule:evenodd;clip-rule:evenodd;fill:#233F9F;}
</style>
<g id="footer-namad--ico" transform="translate(-1240 -6166)">
	<path id="Combined-Shape" class="st0" d="M1261.5,6222.8c0,0.1-0.1,0.3-0.2,0.4c-0.2,0.8-0.8,1.4-1.5,1.7c-0.2,0.1-0.4,0.2-0.6,0.2
		l-1,0.2c-0.1,0-0.1,0-0.2,0c-0.1,0-0.1,0-0.2,0c0,0,0-0.1,0.2-0.2l0.2-0.1c0,0,0.2-0.1,0.7-0.4c1.2-0.7,1.9-1.3,1.9-1.7
		c-0.2,0.1-0.3,0.1-0.5,0.1c-0.5-0.1-0.8-0.3-0.8-0.6c0-0.4,0.2-0.8,0.4-1.1c0.3-0.5,0.6-0.8,0.8-0.8c0.5,0,0.9,0.4,0.9,0.9
		c0,0.1,0,0.2,0,0.4c0.2,0,0.4-0.1,0.5-0.3c0,0,0.1-0.1,0.1-0.1c0.1-0.1,0.1-0.1,0.1-0.1l0.1,0.1c0,0,0.1,0,0.1,0
		c0.2,0,0.4-0.1,0.5-0.3c0.1-0.1,0.1-0.2,0.2-0.2c0,0,0.1,0.1,0.2,0.1c0.2,0,0.4-0.1,0.6-0.5c0.1,0,0.2,0,0.2,0.1
		c0.1,0,0.2,0,0.2-0.1c0,0.1,0.1,0.2,0.1,0.3c0,0.1,0,0.3-0.1,0.4c-0.2,0.2-0.4,0.3-0.6,0.4l-0.5,0.3c-0.1,0-0.3,0.1-0.4,0.1
		l-0.2,0.1l-0.3,0.2l-0.2,0.1C1262,6222.6,1261.8,6222.7,1261.5,6222.8z M1275.2,6222.5L1275.2,6222.5c0,0.9,0.4,1.4,1,1.4
		c0.3,0,0.7-0.1,0.9-0.4c0.2-0.3,0.5-0.5,0.7-0.7c0,0,0.1-0.1,0.1-0.1l0.1-0.1c0.1-0.2,0.2-0.4,0.3-0.7c0.5-0.7,0.9-1.1,1.4-1.1
		l0.2,0c0,0,0,0.1,0,0.1c0.1,0,0.2,0.1,0.3,0.1c0.2,0,0.3-0.1,0.5-0.4c0.1-0.1,0.2-0.2,0.2-0.2c0.1,0,0.1,0.1,0,0.3
		c0,0.1-0.1,0.2-0.1,0.3c-0.3,0.6-0.6,0.9-1,0.9v0c-0.1,0-0.2,0-0.2-0.1c-0.1,0-0.2-0.1-0.2-0.1c-0.2,0-0.3,0-0.4,0.2
		c-0.1,0.1-0.2,0.2-0.3,0.4h0c0.1,0.2,0.2,0.3,0.3,0.5c0.2,0.3,0.3,0.4,0.3,0.4c0,0.2-0.1,0.4-0.3,0.5c-0.2,0.2-0.3,0.3-0.5,0.3
		c-0.1,0-0.3,0-0.4-0.1c-0.1-0.1-0.3-0.1-0.4-0.1c-0.2,0-0.4,0.1-0.5,0.2c-0.1,0.2-0.2,0.3-0.3,0.5c-0.1,0.2-0.2,0.3-0.3,0.5
		c-0.2,0.3-0.6,0.5-0.9,0.5c-0.4,0-0.8-0.3-1-0.6c-0.2-0.4-0.3-0.8-0.2-1.2l0-0.1h0c0.1-1.4,0.3-2.9,0.5-4.3
		c0.2-0.6,0.4-1.1,0.7-1.7l0.1,0c0,0.1,0,0.2,0,0.3l-0.1,0.5l-0.3,2.1C1275.3,6221.2,1275.3,6221.8,1275.2,6222.5L1275.2,6222.5z
		 M1287,6221.6c0.2-0.1,0.3-0.3,0.4-0.5c0.2-0.5,0.4-0.9,0.5-1.1c0.2-0.4,0.4-0.6,0.7-0.6c0.2,0,0.4,0.1,0.6,0.3
		c0.2-0.4,0.4-0.6,0.4-0.6c0.1,0,0.2,0.1,0.2,0.2c0.1,0.1,0.1,0.2,0.1,0.3c0,0.3-0.1,0.5-0.2,0.8c-0.1,0.2-0.4,0.4-0.7,0.4
		c-0.1,0-0.2,0-0.3-0.1c-0.1,0-0.2-0.1-0.3-0.1c-0.2,0-0.3,0.1-0.4,0.4c-0.3,0.6-0.5,0.9-0.5,1c-0.2,0.3-0.4,0.6-0.6,0.8
		c0,0.1-0.1,0.2-0.1,0.2c-0.2,0.8-0.8,1.4-1.5,1.7c-0.2,0.1-0.4,0.2-0.6,0.2l-1,0.2c-0.1,0-0.1,0-0.2,0c-0.1,0-0.1,0-0.2,0
		c0,0,0-0.1,0.2-0.2l0.2-0.1c0,0,0.2-0.1,0.7-0.4c1.2-0.7,1.9-1.3,1.9-1.7c-0.2,0.1-0.3,0.1-0.5,0.1c-0.5-0.1-0.8-0.3-0.8-0.6
		c0-0.4,0.2-0.8,0.4-1.1c0.3-0.5,0.6-0.8,0.8-0.8c0.5,0,0.9,0.4,0.9,0.9C1287,6221.5,1287,6221.6,1287,6221.6L1287,6221.6z
		 M1300.4,6222.1v0.3c0,0.8,0.2,1.1,0.7,1.1c0.1-0.3,0.2-0.6,0.4-0.9c0.3,0.1,0.5,0.3,0.5,0.6c0,0.4-0.1,0.9-0.3,1.3
		c-0.3,0.5-0.6,0.8-1,0.8c-0.3,0-0.5-0.1-0.7-0.4c-0.2-0.2-0.3-0.5-0.3-0.7c0-0.2,0-0.4,0-0.4v-0.3l0,0h0c0.1-1.4,0.2-2.8,0.5-4.3
		c0.2-0.6,0.4-1.1,0.7-1.7l0.1,0c0,0.1,0,0.2,0,0.3l-0.1,0.4l-0.3,2.1C1300.4,6220.8,1300.4,6221.4,1300.4,6222.1L1300.4,6222.1z
		 M1306.9,6223.3L1306.9,6223.3c0.1-1.4,0.2-2.8,0.5-4.3c0.2-0.6,0.4-1.1,0.7-1.7l0.1,0c0,0.1,0,0.2,0,0.3l-0.1,0.4l-0.3,2.1
		c-0.1,0.6-0.1,1.2-0.2,1.8l0,0.1l0,0c0,0.3,0,0.7,0.1,1c0.2,0.4,0.6,0.6,1,0.6c0.3,0,0.6-0.1,0.9-0.3c0.2-0.2,0.4-0.3,0.6-0.4
		c0.1,0,0.2,0,0.2,0c0.1,0,0.2,0,0.2,0c0.1,0,0.2,0,0.2-0.1c0.1-0.1,0.3-0.2,0.3-0.4c0-0.1,0.1-0.2,0.1-0.3c0.1,0,0.2,0,0.3,0
		c0.1,0,0.3-0.2,0.4-0.6c0.1-0.2,0.1-0.2,0.1-0.2c0,0,0.1,0.1,0.1,0.2c0,0.4-0.1,0.7-0.3,1c-0.2,0.4-0.5,0.6-0.8,0.6
		c-0.1,0.1-0.2,0.2-0.3,0.4c-0.1,0.1-0.3,0.2-0.4,0.3c-0.1,0-0.2,0-0.3,0c-0.2,0-0.5,0.3-0.9,0.8c-0.2,0.4-0.6,0.6-1.1,0.6
		C1307.3,6225.2,1306.9,6224.6,1306.9,6223.3L1306.9,6223.3z M1285,6184.5c0,0.1,0.1,0.1,0.1,0.2c1.7,2.8,2.4,6.1,1.8,9.3
		c-0.5,3.3-2.4,6.2-5.2,8.1c-6.1,4.3-14.6,2.7-18.9-3.4c-0.1-0.2-0.3-0.4-0.4-0.6c-1.3-2.2-3-4.2-5-5.9c-1.6-1.4-3.7-2-5.7-1.6
		c-1.8,0.5-3.4,1.4-4.7,2.6c0.9-2.8,2.9-5.5,5.8-6.2c1.9-0.6,3.8-0.2,5.7,0.2c0.3-1.5,1.5-2.6,3-2.7c0.9-0.2,1.8-0.2,2.7-0.1
		c-0.6,0.6-1.5,1-1.8,1.8c-0.3,1.2-0.1,2.5,0.6,3.6c0.8,1.2,1.4,2.6,1.7,4.1c0,0.9-0.5,1.8-1.2,2.4c0.6,1.2,1.6,2.1,2.8,2.6
		c1.6,0.6,3.3,1.1,5,1.2c3.1,0.2,6.3-0.8,8.7-2.8c1.4-1.3,2.2-3.2,2.2-5.2c0.2-3.6-2.5-6.7-5.6-8.2c-1.9-0.8-4-1.3-6.1-1.2
		c-1.2,0-2.7-0.5-3.5,0.7c0-0.8-0.1-1.7,0.6-2.2c0.9-0.5,2-0.8,3.1-0.6c0,0.4,0.4,0.8,0.8,0.6c0.4-0.1,0.4-0.5,0.4-0.8
		c-0.6,0-1.3,0-1.9,0.1c0-0.2,0.1-0.5,0.1-0.7c0.7-1.3,2.3-1.7,3.7-1.7c3.6-0.1,7.1,1.4,9.4,4.2c0.6,0.7,1.1,1.4,1.6,2.1
		C1284.9,6184.4,1284.9,6184.4,1285,6184.5z M1278.9,6186.6c1.4,1,1.9,2.8,2.2,4.4c-5.5,0-11,0-16.5,0c-0.3-0.4-0.6-0.8-0.8-1.2
		c-0.5-1-0.7-2.1-0.7-3.2C1268.4,6186.6,1273.6,6186.5,1278.9,6186.6L1278.9,6186.6z M1312.1,6186.5c-0.1,0.2-0.2,0.4-0.3,0.6
		c-0.6,1.1-1.6,1.9-2.7,2.4c-2.1,0.9-4.4,1.4-6.7,1.5c-4.9,0.1-9.7,0-14.6,0c0-1.5-0.3-3.1-0.9-4.5
		C1295.3,6186.5,1303.7,6186.5,1312.1,6186.5L1312.1,6186.5z M1307,6191.7c-0.9,1.3-2.1,2.3-3.5,3c-2.5,1.2-5.3,1.3-8,1.5
		c-2.8,0-5.7,0-8.5,0c0.7-1.4,1-3,0.9-4.5C1294.3,6191.7,1300.6,6191.7,1307,6191.7z M1281.4,6192c-0.1,0.9-0.3,1.7-0.6,2.6
		c-0.3,0.6-0.7,1.2-1.2,1.7c-5,0-10.1,0-15.1,0c0.4-0.4,0.7-0.8,1-1.2c0.4-1,0.3-2.1-0.3-3C1270.5,6192,1275.9,6192,1281.4,6192
		L1281.4,6192z M1305.6,6222.3l-0.2,0.9c-0.1,0.4-0.3,0.8-0.5,1.1c-0.2,0.3-0.5,0.6-0.9,0.8l-0.6,0.3c-0.3,0.1-0.5,0.2-0.8,0.2
		c0,0-0.1,0-0.1-0.1c0-0.1,0.1-0.3,0.5-0.6c0.1-0.1,0.3-0.3,0.7-0.5c0.5-0.4,0.8-0.8,1.1-1.3c0.2-0.4,0.3-0.8,0.5-1.3l0.2-0.6
		c0.1-0.4,0.2-0.5,0.3-0.5c0,0.1,0.1,0.1,0.1,0.2C1305.9,6221.3,1305.8,6221.8,1305.6,6222.3L1305.6,6222.3z M1306.1,6218.5
		c-0.2,0.4-0.4,0.6-0.6,0.6c-0.1-0.1-0.3-0.3-0.6-0.4s-0.4-0.3-0.4-0.4l0-0.1c0.1-0.2,0.2-0.4,0.4-0.9c0-0.1,0.2-0.3,0.4-0.6
		l0.1-0.1c0.1,0.1,0.2,0.1,0.2,0.2c0.1,0.1,0.3,0.2,0.4,0.4c0.1,0.1,0.2,0.3,0.2,0.5C1306.3,6218,1306.3,6218.3,1306.1,6218.5
		L1306.1,6218.5z M1296,6222.3c0,0.2-0.1,0.4-0.2,0.6c-0.3,0.4-0.5,0.6-0.6,0.6c-0.1,0-0.1,0-0.2-0.1c-0.2-0.1-0.3-0.2-0.4-0.3
		c-0.1-0.1-0.2-0.1-0.3-0.2c-0.1-0.1-0.2-0.1-0.2-0.2l0.4-0.9c0.1-0.2,0.2-0.4,0.3-0.5l0.1-0.2c0.1,0,0.2,0.1,0.4,0.2
		c0.1,0.1,0.3,0.2,0.4,0.3c0.1,0.1,0.2,0.3,0.3,0.5C1296,6222.2,1296,6222.3,1296,6222.3z M1298,6224c-0.4,1.6-1.5,2.9-2.9,3.7
		c-0.6,0.3-1.2,0.4-1.8,0.4c-0.6,0-1.3-0.2-1.7-0.7c-0.4-0.5-0.6-1.1-0.6-1.8c0.1-1.5,0.7-3,1.5-4.3c0.1-0.2,0.2-0.3,0.3-0.3
		c0,0,0,0.1,0,0.2c0,0.1,0,0.2-0.1,0.3l-0.6,1.3c-0.3,0.5-0.4,1-0.4,1.6c0,1.2,0.7,1.8,2.1,1.8c1.4,0,2.8-0.7,3.5-1.9
		c0.3-0.4,0.4-0.9,0.4-1.4l0-1.3c0-0.4,0.1-0.8,0.3-1.2l0.4-0.7c0.1-0.1,0.1-0.3,0.2-0.4c0.1,0.1,0.1,0.1,0.1,0.2l-0.1,0.6l-0.1,0.9
		c0,0.6-0.1,1.3-0.3,1.9C1298.2,6223.5,1298.1,6223.8,1298,6224L1298,6224z M1288.7,6225.1c-0.3,0.4-0.5,0.9-0.5,1.3l0.3,0.3
		c0.2,0.2,0.3,0.3,0.3,0.4c0,0.2-0.1,0.3-0.1,0.5c-0.1,0.1-0.2,0.2-0.4,0.2c-0.3,0-0.4-0.2-0.4-0.7c0.1-0.5,0.3-1.1,0.5-1.5
		c0.3-0.8,0.6-1.2,0.8-1.2C1288.9,6224.6,1288.8,6224.8,1288.7,6225.1z M1283.1,6218.9c0,0,0.1-0.1,0.2-0.3c0,0,0.1-0.1,0.1-0.1
		c0,0,0,0.1,0.1,0.1l-0.1,0.6l-0.1,1l-0.2,1.5c-0.1,0.5-0.2,1.1-0.4,1.6l-0.4,0.8c-0.3,0.5-0.5,0.7-0.6,0.7l-0.1-0.1
		c0.3-1,0.6-2,0.7-3l0.1-1.1l0.2-0.5L1283.1,6218.9z M1280.5,6230.3c-0.3,0.4-0.5,0.5-0.6,0.5c0,0-0.2-0.1-0.5-0.4
		c-0.2-0.1-0.3-0.3-0.4-0.5c0.1-0.3,0.3-0.6,0.4-0.8c0.3-0.4,0.4-0.7,0.5-0.7s0.2,0.1,0.4,0.3c0.3,0.2,0.5,0.5,0.5,0.9
		C1280.7,6229.8,1280.7,6230.1,1280.5,6230.3z M1279.6,6232.4c-0.3,0.4-0.5,0.5-0.6,0.5c0,0-0.2-0.1-0.5-0.4
		c-0.2-0.1-0.3-0.3-0.4-0.5c0.1-0.3,0.3-0.6,0.4-0.8c0.3-0.4,0.4-0.7,0.5-0.7c0,0,0.2,0.1,0.3,0.3c0.3,0.2,0.5,0.5,0.5,0.9
		C1279.8,6232,1279.7,6232.2,1279.6,6232.4z M1278.8,6230.3c-0.3,0.4-0.5,0.5-0.6,0.5c-0.2-0.1-0.3-0.3-0.5-0.4
		c-0.2-0.1-0.3-0.3-0.4-0.5c0.1-0.3,0.3-0.6,0.4-0.8c0.3-0.4,0.4-0.7,0.5-0.7c0,0,0.2,0.1,0.3,0.3c0.3,0.2,0.5,0.5,0.5,0.9
		C1279,6229.8,1278.9,6230.1,1278.8,6230.3L1278.8,6230.3z M1276.2,6232.4c-0.2,0.4-0.4,0.6-0.6,0.6c-0.1-0.1-0.3-0.2-0.6-0.4
		c-0.3-0.2-0.4-0.3-0.4-0.4l0-0.1c0.1-0.1,0.2-0.4,0.4-0.8c0-0.1,0.2-0.3,0.4-0.6l0.1-0.1c0.1,0.1,0.2,0.1,0.3,0.2
		c0.2,0.1,0.3,0.2,0.4,0.3c0.1,0.1,0.2,0.3,0.3,0.5C1276.4,6231.9,1276.3,6232.2,1276.2,6232.4z M1274.3,6232.5
		c-0.2,0.4-0.4,0.6-0.6,0.6c-0.1-0.1-0.3-0.2-0.6-0.4c-0.3-0.2-0.4-0.3-0.4-0.4l0-0.1c0.1-0.1,0.2-0.4,0.4-0.8
		c0-0.1,0.2-0.3,0.4-0.6l0.1-0.1c0.1,0.1,0.2,0.1,0.3,0.2c0.2,0.1,0.3,0.2,0.4,0.3c0.1,0.1,0.2,0.3,0.3,0.5
		C1274.5,6232,1274.5,6232.3,1274.3,6232.5L1274.3,6232.5z M1271.8,6221.6c0.2-0.4,0.3-0.8,0.4-1.2c-0.1-0.3-0.2-0.6-0.3-0.9
		c-0.1-0.2-0.2-0.4-0.3-0.6c0.2-0.6,0.4-1.1,0.6-1.7c0.3,0.1,0.5,0.3,0.6,0.8c0.1,0.3,0.2,0.7,0.2,1c0,0.6-0.2,1.2-0.4,1.8
		c-0.1,0.4-0.4,0.9-0.7,1.7c0,0.1,0.2,0.3,0.5,0.4c0.3,0.2,0.5,0.6,0.5,1c0,0.9-0.3,1.8-0.7,2.6c-0.4,0.8-1,1.5-1.7,2.1
		c-0.5,0.3-1.1,0.5-1.7,0.5c-0.7,0-1.3-0.3-1.7-0.8c-0.4-0.5-0.6-1.2-0.5-1.8c0-0.9,0.3-1.8,0.6-2.6c0-0.1,0.2-0.4,0.4-1
		c0-0.1,0.2-0.3,0.4-0.8c0.3-0.6,0.5-0.9,0.5-0.8c0.1,0,0.1,0.1,0.1,0.2c0,0.1-0.1,0.2-0.1,0.4l-0.9,2c-0.2,0.5-0.4,1-0.4,1.6
		c0,1.2,0.6,1.8,1.9,1.8c0.7,0,1.4-0.2,2-0.5c0.7-0.3,1.1-0.9,1.1-1.6c-0.2-0.2-0.4-0.3-0.6-0.4c-0.4-0.3-0.6-0.5-0.6-0.7
		c0-0.3,0.1-0.6,0.2-0.9C1271.5,6222.4,1271.7,6221.9,1271.8,6221.6z M1271.6,6232.4c-0.2,0.4-0.4,0.6-0.6,0.6
		c-0.1-0.1-0.3-0.2-0.6-0.4c-0.3-0.2-0.4-0.3-0.4-0.4l0-0.1c0.1-0.1,0.2-0.4,0.4-0.8c0-0.1,0.2-0.3,0.4-0.6l0.1-0.1
		c0.1,0.1,0.2,0.1,0.3,0.2c0.2,0.1,0.3,0.2,0.4,0.3c0.1,0.1,0.2,0.3,0.3,0.5C1271.9,6231.9,1271.8,6232.2,1271.6,6232.4z
		 M1269.8,6232.5c-0.2,0.4-0.4,0.6-0.6,0.6c-0.1-0.1-0.3-0.2-0.6-0.4s-0.4-0.3-0.4-0.4l0-0.1c0.1-0.1,0.2-0.4,0.4-0.8
		c0-0.1,0.2-0.3,0.4-0.6l0.1-0.1c0.1,0.1,0.2,0.1,0.3,0.2c0.2,0.1,0.3,0.2,0.4,0.3c0.1,0.1,0.2,0.3,0.3,0.5
		C1270,6232,1269.9,6232.3,1269.8,6232.5L1269.8,6232.5z M1264.6,6220.6c0.1-0.1,0.2-0.1,0.2-0.2c0.3-0.4,0.4-0.9,0.4-1.4l0-1.2
		c0-0.4,0-0.8,0.1-1.2l0.7-1.5c0,0,0.1,0,0.1,0c0,0,0,0.1,0,0.1c0,0.2,0,0.5,0,0.8c0,0.4,0,0.7,0,0.8c0,0.7-0.1,1.3-0.1,2
		c-0.1,0.7-0.3,1.5-0.8,2c0,0.1-0.2,0.2-0.5,0.5L1264.6,6220.6z M1268.3,6212.3l2.3-1.8c0.4-0.4,1-0.8,1.6-1.3
		c0.2-0.2,0.6-0.6,1.4-1.3c0.8-0.8,1.3-1.2,1.3-1.3c0,0.1,0,0.1,0,0.2c-0.4,1.1-1.1,2-1.9,2.7c-0.5,0.5-1.3,1.2-2.4,2.1
		c0,0-0.9,0.7-2.6,2l-1.2,0.9c-0.5,0.4-0.8,0.6-0.8,0.5c0.2-0.5,0.4-0.9,0.7-1.3C1267.2,6213.2,1267.7,6212.8,1268.3,6212.3z
		 M1264.1,6215.9c-0.2,0.4-0.4,0.6-0.6,0.6c-0.1-0.1-0.3-0.2-0.6-0.4c-0.3-0.2-0.4-0.3-0.4-0.4l0-0.1c0.1-0.2,0.2-0.4,0.4-0.8
		c0-0.1,0.2-0.3,0.4-0.6l0.1-0.1c0.1,0.1,0.2,0.1,0.3,0.2c0.2,0.1,0.3,0.2,0.4,0.3c0.1,0.1,0.2,0.3,0.3,0.5
		C1264.3,6215.4,1264.2,6215.7,1264.1,6215.9z M1263.1,6213.8c-0.2,0.4-0.4,0.6-0.6,0.6c-0.2-0.1-0.4-0.3-0.6-0.4
		c-0.3-0.2-0.4-0.3-0.4-0.4l0-0.1c0.1-0.1,0.2-0.4,0.4-0.8c0-0.1,0.2-0.3,0.4-0.6l0.1-0.1c0.1,0.1,0.2,0.1,0.3,0.2
		c0.2,0.1,0.3,0.2,0.4,0.3c0.1,0.1,0.2,0.3,0.3,0.5C1263.4,6213.2,1263.3,6213.5,1263.1,6213.8L1263.1,6213.8z M1262.2,6216
		c-0.2,0.4-0.4,0.6-0.6,0.6c-0.1-0.1-0.3-0.2-0.6-0.4c-0.2-0.2-0.4-0.3-0.4-0.4l0-0.1c0.1-0.2,0.2-0.4,0.4-0.8
		c0-0.1,0.2-0.3,0.4-0.6l0.1-0.1c0.1,0.1,0.2,0.1,0.3,0.2c0.2,0.1,0.3,0.2,0.4,0.3c0.1,0.1,0.2,0.3,0.3,0.5
		C1262.4,6215.5,1262.4,6215.8,1262.2,6216L1262.2,6216z M1257.3,6222.3l-0.2,0.9c-0.1,0.4-0.3,0.8-0.5,1.1
		c-0.2,0.3-0.5,0.6-0.9,0.8l-0.6,0.3c-0.3,0.1-0.5,0.2-0.8,0.2c0,0-0.1,0-0.1-0.1c0-0.1,0.1-0.3,0.5-0.6c0.1-0.1,0.3-0.3,0.7-0.5
		c0.5-0.4,0.8-0.8,1.1-1.3c0.2-0.4,0.3-0.8,0.5-1.3l0.2-0.6c0.1-0.4,0.2-0.5,0.3-0.5c0,0.1,0.1,0.1,0.1,0.2
		C1257.6,6221.3,1257.5,6221.8,1257.3,6222.3z M1255.1,6219.4c-0.1,0.2-0.2,0.4-0.2,0.4c-0.1,0.1-0.2,0.2-0.2,0.2
		c-0.1-0.1-0.2-0.1-0.2-0.1c-0.5,0.1-1,0.3-1.3,0.7c-0.6,0.6-1,1-1,1.2c0,0.1,0,0.2,0.1,0.3l0.3,0.2c0.4,0.1,0.7,0.5,0.7,1
		c0,0.6-0.1,1.3-0.3,1.9c-0.2,0.6-0.4,1.2-0.8,1.7c-0.6,1.1-1.8,1.8-3,1.8c-0.6,0-1.2-0.2-1.6-0.6c-0.4-0.5-0.6-1-0.6-1.6
		c0-1.1,0.3-2.2,0.8-3.2l0.9-2c0.1-0.3,0.2-0.4,0.3-0.4c0.1,0,0.1,0.1,0.1,0.2c0,0.1,0,0.1,0,0.2c-0.7,1.3-1.2,2.7-1.5,4.2
		c0,0.5,0.2,0.9,0.6,1.2c0.4,0.2,0.9,0.4,1.3,0.3c0.9,0,1.7-0.3,2.4-1c0.4-0.3,0.6-0.8,0.7-1.3c0-0.1-0.2-0.2-0.6-0.3
		c-0.5-0.1-0.8-0.5-0.8-0.9c0.1-1.1,0.6-2,1.3-2.8c0.3-0.4,0.6-0.7,0.9-1c0.5-0.5,1.1-0.9,1.8-1.1c0.1,0.1,0.2,0.1,0.1,0.2
		C1255.3,6218.8,1255.2,6219.1,1255.1,6219.4z"/>
</g>
</svg>
