<?xml version="1.0" encoding="utf-8"?>
<!-- Generator: Adobe Illustrator 23.0.1, SVG Export Plug-In . SVG Version: 6.00 Build 0)  -->
<svg version="1.1" id="Layer_1" xmlns="http://www.w3.org/2000/svg" xmlns:xlink="http://www.w3.org/1999/xlink" x="0px" y="0px"
	 viewBox="0 0 80 80" style="enable-background:new 0 0 80 80;" xml:space="preserve">
<style type="text/css">
	.st0{fill:#00447D;}
</style>
<g id="footer-namad--aoia" transform="translate(-1330 -6166)">
	<path id="Path_5033" class="st0" d="M1378.5,6184.3c-4.2,0.7-7,1.4-8.1,1.9c-0.5,0.3-2.9,2.9-7,7.8c-0.8,0.9-1.8,2.2-2.4,2.8
		c-0.5,0.6-2.8,3.4-5.1,6.1c-2.3,2.7-5.1,6.1-6.3,7.6c-1.2,1.5-3.6,4.3-5.2,6.3c-5.5,6.6-5.8,6.9-7.9,8.3c-0.5,0.3-1,0.7-1.1,0.8
		c-0.6,0.4-1.2,0.7-1.9,0.9c-0.2,0-0.3,0.1-0.5,0.2c0,0.1,0.5,0.1,1.9,0.1c1.1,0,9.1,0,17.9,0l16,0l0.1-1c0.2-1.7,0.5-3.4,0.8-5.1
		c0.1-0.5,0.3-1.4,0.5-2.2c0.4-1.8,1.2-5,2-7.8c0.4-1.3,0.7-2.6,0.8-2.8c0-0.2,0.2-0.9,0.4-1.5c0.2-0.6,0.4-1.5,0.5-1.9
		c0.2-0.9,1.1-4,1.4-4.8c0.1-0.4,0.3-1.1,0.5-1.6c0.7-2.3,2.5-8.2,2.9-9.5c0.3-0.8,0.7-2.2,1-3c0.3-0.9,0.5-1.6,0.6-1.7
		c0.1-0.2,0-0.3-0.2-0.3C1380.1,6184,1379.3,6184.1,1378.5,6184.3z M1357.7,6214.1v0.9l-2.9,0l-2.9,0v2.3l2.7,0.1l2.7,0.1v1.7
		l-2.7,0l-2.7,0l0,1.4l0,1.4l3,0l3,0l0,0.9l0,0.9h-8.1l0-5.2c0-2.9,0-5.3,0-5.4c0-0.1,0.9-0.1,4-0.1h3.9L1357.7,6214.1z
		 M1366.2,6213.4c0.6,0.3,1.1,0.8,1.5,1.4c0.3,0.9,0.4,1.8,0.2,2.7c-0.3,1-1,1.8-2,2.1c-0.7,0.1-1.4,0.2-2.2,0.2l-1.8,0.1v2l0,2
		h-2.1l0-5.4l0-5.4l3,0C1365.3,6213.2,1365.8,6213.2,1366.2,6213.4L1366.2,6213.4z"/>
	<path id="Path_5034" class="st0" d="M1362,6215.1c0,0.5-0.1,1,0,1.5l0,1.3l1.1,0c1.7,0,2.4-0.2,2.6-1.1c0.2-0.6,0-1.2-0.5-1.6
		c-0.4-0.3-0.5-0.3-1.8-0.3C1362.3,6215,1362,6215,1362,6215.1z"/>
	<path id="Path_5035" class="st0" d="M1394.8,6185.1c-0.4,0.5-1.8,1.6-3,2.6c-2.4,2-2.6,2.3-3,3.6c-0.2,0.6-0.3,1.3-0.2,1.9
		c0,1.4-0.1,1.7-0.6,1.7c-0.3,0.1-0.6,0.2-0.7,0.5c-0.4,0.4-0.4,0.4-0.6,0.3c-0.3-0.3-0.7-0.2-1,0.1c0,0,0,0,0,0
		c-0.6,0.6-1.3,0.7-1.6,0.1c-0.1-1.1-0.1-2.2,0.2-3.2c0.1-0.3,0.1-0.5,0.1-0.8c-0.1-0.1-0.1-0.1-0.4,0.6c-0.3,1.2-0.5,2.4-0.5,3.6
		c0,0.8,0,0.9,0.3,1.2c0.5,0.5,0.8,0.4,1.6-0.5c0.3-0.4,0.5-0.5,0.7-0.5c0.2,0,0.2,0.1,0.2,0.7c0,0.4,0,0.7,0.1,0.6
		c0.2-0.2,0.3-0.5,0.4-0.7c0.3-0.8,0.7-1.3,1.1-1.3c0.2,0,0.4-0.1,0.6-0.5c0.5-0.7,0.7-1.5,0.6-2.3c0-0.6,0.1-1.4,0.1-1.8l0.1-0.7
		l1-0.8c2.6-2.1,3.1-2.5,3.9-3.2c0.9-0.9,1.9-2.3,1.6-2.2C1395.3,6184.5,1395,6184.8,1394.8,6185.1z"/>
	<path id="Path_5036" class="st0" d="M1403.5,6186.4c-0.3,0.5-0.3,0.5,0.1,0.8l0.3,0.3l0.2-0.3c0.3-0.3,0.3-0.7,0-1
		C1403.8,6186,1403.8,6186,1403.5,6186.4z"/>
	<path id="Path_5037" class="st0" d="M1404.7,6188.5c-1.8,1.1-3.2,2.3-3,2.6c0.2,0.1,0.4,0.1,0.6,0c0.5-0.1,0.6,0,0.6,0.1
		c0,0.1-0.1,0.2-0.3,0.2c-0.2,0.1-0.4,0.3-0.6,0.4c-0.2,0.2-0.5,0.5-0.6,0.7c-0.3,0.3-0.5,0.6-0.7,0.9c-0.4,0.6-0.7,0.7-1.1,0.6
		c-0.4-0.1-0.5,0.2-0.6,1.4c-0.1,1.6-0.5,2.4-1.5,2.9c-0.7,0.3-1.5,0.4-2.2,0c-0.7-0.4-0.7-1.2-0.2-2.5c0.1-0.2,0.2-0.5,0.2-0.8
		c-0.1-0.1-0.3,0.1-0.6,1c-0.4,0.9-0.5,1.9-0.3,2.9c0.4,1.2,1.9,1.4,3.2,0.5c1.1-1,1.8-2.3,1.9-3.7c0.1-0.6,0.1-0.7,0.4-0.7
		c0.2,0,0.4-0.2,0.7-0.6c0.5-0.8,0.6-0.8,1.2-0.8c0.4,0,0.5,0,0.7-0.3l0.2-0.3l-0.4-0.4l-0.4-0.4l0.3-0.2c0.2-0.2,0.5-0.3,0.8-0.5
		c0.6-0.3,0.9-0.6,0.8-0.9c0-0.2-0.1-0.2-0.8-0.2c-0.2,0-0.5,0-0.7-0.1c0-0.1,0.5-0.4,1.8-1.1c0.5-0.2,1-0.5,1.4-1
		C1406.1,6187.8,1405.9,6187.8,1404.7,6188.5z"/>
	<path id="Path_5038" class="st0" d="M1393,6189.5l-0.2,0.5l0.2,0.2c0.3,0.3,0.5,0.2,0.7-0.2c0.2-0.4,0.2-0.4-0.1-0.6
		c-0.1-0.1-0.2-0.2-0.3-0.3C1393.2,6189.2,1393.1,6189.3,1393,6189.5z"/>
	<path id="Path_5039" class="st0" d="M1393.7,6190.5l-0.2,0.4l-0.2-0.3c-0.1-0.2-0.3-0.3-0.3-0.3c-0.1,0-0.2,0.2-0.3,0.5l-0.2,0.5
		l0.2,0.2c0.3,0.2,0.5,0.2,0.6,0s0.3-0.3,0.5,0c0.2,0.2,0.2,0.2,0.4-0.1c0.3-0.4,0.3-0.6,0.1-0.9
		C1394,6190.1,1393.9,6190.1,1393.7,6190.5z"/>
	<path id="Path_5040" class="st0" d="M1387.1,6191.5c-0.1,0.2-0.2,0.3-0.2,0.3s-0.2-0.1-0.3-0.2l-0.3-0.2l-0.3,0.5l-0.3,0.5l0.3,0.3
		c0.4,0.3,0.4,0.3,0.7,0c0.2-0.3,0.2-0.3,0.4-0.1c0.3,0.2,0.4,0.2,0.6-0.2c0.2-0.4,0.2-0.6-0.1-0.9l-0.3-0.2L1387.1,6191.5z"/>
	<path id="Path_5041" class="st0" d="M1382.4,6191.8c-1.1,0.8-1.9,1.9-2.2,3.3c0,0.5,0.1,0.6,0.6,0.8c0.5,0.1,0.5,0.4,0,1
		c-0.6,0.8-1.6,1.1-2.6,0.8c-0.4-0.1-0.7-0.6-0.6-1c0.1-0.8,0.3-1.6,0.7-2.4c0.5-1.1,0.3-1.3-0.2-0.2c-1.2,2.5-1.4,4.4-0.4,4.9
		c0.7,0.2,1.4,0.2,2-0.1c1-0.7,1.7-1.9,1.8-3.1c0.1-0.8,0.1-1-0.4-1.3c-0.2-0.1-0.3-0.2-0.4-0.3c0.1-0.2,0.2-0.3,0.3-0.4
		c0.3-0.5,0.9-0.9,1.4-1c0.2,0,0.3-0.1,0.5-0.4c0.2-0.5,0.3-0.9,0.1-0.9C1382.8,6191.5,1382.6,6191.6,1382.4,6191.8z"/>
	<path id="Path_5042" class="st0" d="M1405.6,6192.1c-0.2,0.7-0.3,1.3-0.4,2c0,0.8-0.1,1.5-0.3,2.2c-0.1,0.6,0.2,0.3,0.5-0.4
		c0.3-1.2,0.5-2.5,0.5-3.8C1405.9,6192,1405.7,6191.9,1405.6,6192.1z"/>
	<path id="Path_5043" class="st0" d="M1395,6192.5c-0.1,0.1-0.2,0.2-0.3,0.2c-0.1,0-0.4,0.3-0.7,0.6c-0.5,0.6-0.6,0.6-1,0.6
		c-1,0-2,0.8-3.1,2.5c-0.5,0.9-1.3,1.7-2.1,2.3c-0.7,0.5-1,0.8-0.7,0.8c0.7-0.4,1.4-0.8,2.1-1.4c0.5-0.4,0.9-0.9,1.2-1.5
		c0.8-1.2,1.1-1.4,2-1.5l0.7-0.1l0.6-0.8c0.3-0.4,0.6-0.7,1-1c0.4-0.2,0.7-0.6,0.9-1C1395.4,6192.2,1395.1,6192.3,1395,6192.5z"/>
	<path id="Path_5044" class="st0" d="M1396.9,6194.9c-0.1,0.2-0.2,0.4-0.3,0.6c0.1,0.3,0.4,0.6,0.7,0.7c0.1,0,0.5-0.7,0.5-1
		c0-0.3-0.4-0.9-0.5-0.9C1397.2,6194.5,1397,6194.7,1396.9,6194.9z"/>
	<path id="Path_5045" class="st0" d="M1402.5,6195.1c-0.3,0.5-0.3,0.6,0.1,0.8c0.3,0.2,0.3,0.2,0.5-0.1c0.2-0.3,0.2-0.7,0-1
		C1402.8,6194.6,1402.8,6194.6,1402.5,6195.1z"/>
	<path id="Path_5046" class="st0" d="M1393.7,6200.7c0,0-0.1,0.3-0.2,0.6c-0.1,0.3-0.1,0.7,0,1c0.3,0.6,0.2,0.9-0.2,1.9
		c-0.6,1.3-0.6,1.4-0.2,1.8c0.2,0.1,0.3,0.3,0.5,0.4c0.4,0.2-0.1,1-1,1.4c-1.1,0.5-2.3,0.3-2.6-0.6c-0.1-0.5,0-1,0.6-2.4
		c0.6-1.4,0.4-1.6-0.2-0.2c-1.1,2.3-1.2,3.6-0.4,4.5c0.3,0.3,0.4,0.3,1,0.4c0.4,0.1,0.8,0,1.2-0.2c1.1-0.7,1.8-1.9,2-3.3
		c0.1-0.7,0.1-0.7-0.3-1l-0.4-0.3l0.4-0.9c0.4-0.8,0.5-1.7,0.2-2.6C1394,6200.7,1393.7,6200.5,1393.7,6200.7z"/>
	<path id="Path_5047" class="st0" d="M1396.2,6201.8c-0.3,1.1-0.5,2.2-0.6,3.4c-0.1,0.4,0,0.9,0.2,1.3c0.2,0.4,0.3,0.5,0.6,0.5
		c0.4,0,0.7-0.2,1.2-0.9c0.3-0.4,0.3-0.4,0.8-0.3c0.5,0.1,0.5,0,0.7-0.2c0.2-0.2,0.2-0.6,0-0.8c0,0,0,0,0,0c-0.3-0.3-0.3-0.5,0-0.6
		c0.1-0.1,0.3-0.1,0.4,0c0.3,0.2,0.6-0.1,0.9-0.6c0.3-0.5,0.2-0.7-0.1-0.3c-0.2,0.2-0.2,0.3-0.5,0.2c-0.5-0.1-1,0.3-1.3,0.9
		c-0.3,0.6-0.8,1.1-1.4,1.4c-0.2,0-0.4,0-0.6-0.2c-0.4-0.3-0.4-0.9-0.2-2.6c0.2-1.7,0.2-1.6,0.1-1.6
		C1396.4,6201.4,1396.3,6201.6,1396.2,6201.8z"/>
	<path id="Path_5048" class="st0" d="M1402,6201.5c-0.3,0.8-0.5,1.6-0.5,2.5c0,0.5-0.1,1-0.2,1.4c-0.3,1.3,0.1,1,0.5-0.4
		C1402.1,6204,1402.3,6201,1402,6201.5z"/>
	<path id="Path_5049" class="st0" d="M1383.5,6201.6c-0.2,0.8-0.4,1.7-0.4,2.5c0,0.5-0.1,1.1-0.2,1.6c-0.2,0.6-0.1,1,0.2,0.5
		c0.4-0.9,0.7-2,0.6-3c0.1-0.6,0.1-1.1,0-1.7C1383.6,6201.5,1383.5,6201.5,1383.5,6201.6z"/>
	<path id="Path_5050" class="st0" d="M1388.2,6202.2c-0.1,0.4-0.2,0.9-0.2,1.3c0,0.8-0.1,1.5-0.3,2.3c-0.1,0.4-0.1,0.4,0.1,0.3
		c0.5-0.8,0.8-1.8,0.7-2.8c0.1-1.9,0.1-1.8,0-1.8C1388.4,6201.7,1388.2,6202,1388.2,6202.2z"/>
	<path id="Path_5051" class="st0" d="M1381.7,6202.5c-0.2,0.5-0.3,1-0.3,1.6c0.1,1.6-1.2,2.9-2.7,2.9c0,0,0,0,0,0
		c-0.4,0.1-0.8,0-1.1-0.2c-0.7-0.4-0.7-1.3-0.1-2.6c0.4-0.8,0.4-1,0.2-0.9c-0.5,0.8-0.8,1.6-1.1,2.5c-0.2,0.7-0.1,1.3,0.2,2
		c0.4,0.4,0.9,0.6,1.4,0.7c0.8,0,1.6-0.4,2.2-1c1-1,1.4-1.9,1.7-4c0.1-0.5,0.1-1,0.2-1.2C1382.2,6201.8,1381.9,6202,1381.7,6202.5z"
		/>
	<path id="Path_5052" class="st0" d="M1406.2,6202.6c-0.1,0.1-0.2,0.2-0.5,0.1c-0.4-0.1-0.5,0-0.9,0.9c-0.3,0.6-0.5,0.7-0.7,0.3
		c-0.2-0.4-0.7-0.4-1,0.1c-0.5,0.7-0.4,1.2,0.1,1.3c0.1,0,0.3,0.1,0.4,0.1c0.1,0.1-0.8,0.9-1.5,1.3c-0.9,0.4-0.6,0.6,0.4,0.2
		c0.7-0.3,0.9-0.4,1.1-0.8c0.2-0.3,0.4-0.6,0.6-0.9c0.2-0.3,0.4-0.6,0.5-0.9c0.3-0.7,0.5-0.8,0.8-0.6c0.3,0.2,0.7,0,0.9-0.5
		c0.1-0.3,0.1-0.4,0-0.6S1406.3,6202.5,1406.2,6202.6z"/>
	<path id="Path_5053" class="st0" d="M1386.7,6203.2c-0.2,0.2-0.5,0.5-0.7,0.6c-0.4,0.3-0.8,0.7-0.9,1.2c-0.2,0.6-0.7,1.1-1.3,1.4
		c-0.5,0.3-0.9,0.6-0.8,0.7c0.1,0.1,0.9,0,1.3-0.2c0.2-0.1,0.4-0.4,0.7-1c0.4-0.9,0.6-1.1,1.1-1.3c0.4-0.2,1.1-1.4,0.9-1.6
		C1387,6202.9,1386.8,6203,1386.7,6203.2z"/>
	<path id="Path_5054" class="st0" d="M1379.2,6203.6c-0.1,0.1-0.2,0.4-0.4,0.6l-0.3,0.5l0.4,0.3c0.1,0.1,0.3,0.2,0.5,0.3
		c0.3-0.3,0.4-0.7,0.5-1.1c0-0.2-0.2-0.4-0.3-0.5C1379.4,6203.5,1379.3,6203.5,1379.2,6203.6z"/>
	<path id="Path_5055" class="st0" d="M1405.3,6205.2c-0.4,0.6-0.5,1.3-0.4,2c0.2,0.2,0.4,0.2,0.6-0.1c0.1-0.1,0.1-0.3-0.1-0.5
		c-0.2-0.3-0.2-0.5,0.1-1.2c0.3-0.6,0.3-0.6,0.2-0.6C1405.5,6204.8,1405.4,6205,1405.3,6205.2z"/>
	<path id="Path_5056" class="st0" d="M1386.7,6206.2c-0.1,0.1-0.1,0.2-0.2,0.3c-0.1,0.3-0.3,0.2-0.4,0c-0.2-0.3-0.3-0.3-0.6,0.2
		l-0.3,0.4l0.2,0.3c0.3,0.3,0.5,0.3,0.7,0c0.2-0.3,0.2-0.3,0.4-0.1c0.3,0.2,0.4,0.2,0.6-0.2c0.2-0.4,0.2-0.6-0.1-0.9
		C1386.9,6206.1,1386.8,6206.1,1386.7,6206.2z"/>
	<path id="Path_5057" class="st0" d="M1400.8,6207.4c-0.2,0.4-0.2,0.4-0.6,0l-0.3-0.3l-0.2,0.5c-0.2,0.5-0.2,0.5,0,0.7
		c0.1,0.1,0.2,0.2,0.4,0.2c0.1,0,0.1,0.1,0.1,0.2c0,0.2,0,0.3,0.2,0.5l0.3,0.3l0.2-0.3c0.1-0.2,0.2-0.4,0.2-0.6
		c0-0.2,0.1-0.4,0.2-0.5c0.3-0.3,0.3-0.7,0-1C1401,6207,1400.9,6207.1,1400.8,6207.4z"/>
	<path id="Path_5058" class="st0" d="M1398,6208.2c-0.1,0.4-0.3,0.4-0.4,0.1c-0.2-0.3-0.4-0.3-0.7,0.2l-0.2,0.5l0.2,0.2
		c0.3,0.3,0.5,0.2,0.6,0c0.1-0.3,0.3-0.3,0.5-0.1c0.2,0.3,0.4,0.2,0.6-0.2c0.2-0.4,0.2-0.4,0-0.7
		C1398.3,6207.8,1398.1,6207.8,1398,6208.2z"/>
	<path id="Path_5059" class="st0" d="M1394.6,6208.3c-0.1,0.4-0.3,0.4-0.5,0.1c-0.2-0.3-0.3-0.3-0.6,0.2l-0.2,0.5l0.3,0.3
		c0.2,0.2,0.3,0.2,0.4,0.1c0.1-0.1,0.2-0.2,0.2-0.3c0-0.2,0.2-0.2,0.4,0c0.2,0.2,0.4,0.1,0.6-0.3c0.2-0.3,0.2-0.3,0-0.6
		C1394.9,6207.9,1394.8,6207.9,1394.6,6208.3z"/>
	<path id="Path_5060" class="st0" d="M1378.5,6211.5c-0.6,0.5-0.5,1.1,0.4,1.5c0.3,0.1,0.5,0.2,0.7,0.4c0.2,0.5-0.6,0.8-1.1,0.5
		c-0.3-0.2-0.4-0.2-0.3,0.1c0,0.2,0.1,0.3,0.5,0.3c0.7,0.1,0.9-0.1,1.1-0.5c0.2-0.3,0.2-0.4,0-0.7c-0.2-0.3-0.3-0.4-0.9-0.6
		c-0.3-0.1-0.4-0.2-0.4-0.4c0-0.4,0.2-0.6,0.8-0.5s0.6-0.1,0.2-0.3C1379.1,6211.3,1378.7,6211.3,1378.5,6211.5z"/>
	<path id="Path_5061" class="st0" d="M1380.6,6211.4c-0.3,0.1-0.5,0.4-0.5,0.7c-0.1,0.4,0.2,0.8,0.6,0.9c0.2,0.1,0.4,0.2,0.6,0.3
		c0.4,0.5-0.4,1.1-1,0.7c-0.3-0.2-0.4-0.2-0.4,0.1c0,0.2,0.1,0.2,0.6,0.3c0.5,0,0.6,0,0.8-0.2c0.1-0.1,0.2-0.3,0.3-0.5
		c0-0.4-0.3-0.8-0.7-0.9c-0.9-0.2-0.9-1-0.1-1c0.2,0,0.3,0,0.5,0.1c0.1,0.1,0.1,0.1,0.2,0C1381.6,6211.6,1381,6211.3,1380.6,6211.4z
		"/>
	<path id="Path_5062" class="st0" d="M1386.1,6211.4c-0.8,0.3-1.2,1.1-0.9,1.9c0.1,0.4,0.4,0.7,0.7,0.8c0.6,0.2,1.2,0.2,1.7,0
		c0.3-0.2,0.1-0.3-0.2-0.2c-0.5,0.2-1,0.1-1.4,0c-0.4-0.3-0.7-0.7-0.7-1.2c0-0.6,0.4-1.1,1-1.1c0.1,0,0.1,0,0.2,0
		c0.2,0,0.5,0,0.7,0.1c0.3,0.1,0.4,0,0.2-0.2C1387,6211.4,1386.5,6211.3,1386.1,6211.4z"/>
	<path id="Path_5063" class="st0" d="M1376.6,6211.6c0,0.1-0.1,0.3-0.2,0.4c-0.1,0.1-0.2,0.6-0.4,1.1c-0.1,0.4-0.3,0.7-0.4,1
		c-0.1,0.1,0.1,0.3,0.2,0.2c0.1-0.2,0.2-0.4,0.2-0.6c0.1-0.5,0.2-0.6,0.5-0.6c0.3,0,0.4-0.2,0.1-0.2c-0.2,0-0.2-0.3-0.1-0.5
		c0.1-0.1,0.1-0.1,0.2,0c0.1,0.1,0.1,0.2,0.1,0.3c0.1,0.2,0.1,0.5,0.3,0.7c0.1,0.2,0.2,0.5,0.3,0.7c0,0.1,0.1,0.3,0.2,0.3
		c0.1,0,0.1,0,0.2,0c0.1,0,0.1-0.1,0.1-0.2c-0.4-0.7-0.6-1.4-0.9-2.2c0-0.1-0.1-0.2-0.2-0.3
		C1376.6,6211.4,1376.6,6211.4,1376.6,6211.6z"/>
	<path id="Path_5064" class="st0" d="M1382.3,6211.9c-0.2,0.2-0.3,0.4-0.4,0.7c-0.1,1.2,0.5,1.9,1.6,1.8c0.6,0,1.1-0.5,1.3-1.1
		c0.2-0.5,0-1.1-0.4-1.4c-0.3-0.3-0.6-0.4-1-0.3C1382.9,6211.4,1382.5,6211.5,1382.3,6211.9z M1383.9,6211.8
		c0.6,0.3,0.8,1.1,0.5,1.6c-0.1,0.3-0.4,0.5-0.7,0.6c-0.7,0.2-1.4-0.3-1.5-1c0-0.1,0-0.2,0-0.3c0-0.3,0.1-0.5,0.4-0.7
		C1382.8,6211.6,1383.4,6211.5,1383.9,6211.8z"/>
	<path id="Path_5065" class="st0" d="M1388.2,6212.8c0,1.1,0,1.4,0.1,1.5c0.4,0.1,0.4,0,0.4-1.5c0-1.3-0.1-1.4-0.2-1.4
		C1388.2,6211.4,1388.2,6211.5,1388.2,6212.8z"/>
	<path id="Path_5066" class="st0" d="M1391.3,6211.5c0,0.1,0.1,0.1,0.4,0.1h0.5v1.4c0,1.3,0,1.4,0.2,1.3s0.2-0.1,0.2-1.3l0-1.3
		l0.4,0c0.2,0,0.3-0.1,0.5-0.1c0.1-0.1-0.3-0.1-1-0.1C1392.1,6211.4,1391.7,6211.4,1391.3,6211.5z"/>
	<path id="Path_5067" class="st0" d="M1393.9,6211.5c0,0,0,0.7,0,1.5c0,1.4,0,1.4,0.2,1.4s0.2-0.1,0.2-1.5c0-1.3,0-1.5-0.2-1.5
		C1394,6211.4,1394,6211.4,1393.9,6211.5L1393.9,6211.5z"/>
	<path id="Path_5068" class="st0" d="M1395.2,6211.8c-0.6,0.5-0.7,1.4-0.2,2c0.3,0.3,0.7,0.5,1.1,0.5c0.8,0,1.5-0.6,1.5-1.4
		c0-0.1,0-0.1,0-0.2c0.1-0.4-0.1-0.7-0.4-0.9c-0.2-0.3-0.6-0.4-1-0.4C1395.8,6211.4,1395.5,6211.5,1395.2,6211.8z M1397,6212.1
		c0.3,0.2,0.4,0.5,0.3,0.9c0,0.5-0.3,0.9-0.8,1c-0.7,0.2-1.4-0.3-1.5-0.9c0-0.1,0-0.2,0-0.3c-0.1-0.5,0.3-1,0.9-1.1
		c0.1,0,0.2,0,0.4,0C1396.5,6211.7,1396.8,6211.9,1397,6212.1L1397,6212.1z"/>
	<path id="Path_5069" class="st0" d="M1398,6211.6c0,0.3,0.2,0.6,0.3,0.6c0.4,0.3,0.8,0.7,1.1,1.1l1,1.1l0.1-0.8
		c0.1-0.7,0.1-1.4-0.1-2c-0.1,0-0.1,0.2-0.1,1c0,0.3,0,0.7-0.1,1c-0.4-0.3-0.7-0.7-1-1C1398.3,6211.5,1398,6211.2,1398,6211.6z"/>
	<path id="Path_5070" class="st0" d="M1402.7,6211.7c-0.4,0.3-0.6,0.8-0.6,1.3c0,0.3,0.1,0.7,0.4,0.9c0.3,0.4,0.4,0.4,1,0.4
		c0.6,0,0.7,0,1-0.3c0.6-0.5,0.7-1.4,0.2-2.1c0-0.1-0.1-0.1-0.1-0.1c-0.2-0.3-0.6-0.4-1-0.3
		C1403.3,6211.4,1403,6211.5,1402.7,6211.7z M1404.1,6211.9c0.4,0.3,0.7,0.8,0.6,1.3c-0.1,0.4-0.5,0.8-0.9,1c-0.5,0.1-1-0.2-1.3-0.6
		c-0.4-0.4-0.3-1.1,0.1-1.4c0,0,0,0,0,0C1403.1,6211.6,1403.7,6211.5,1404.1,6211.9L1404.1,6211.9z"/>
	<path id="Path_5071" class="st0" d="M1405.5,6211.5c0,0,0,0.7,0,1.5c0,1.4,0,1.4,0.2,1.4c0.2,0,0.2-0.1,0.2-1.3v-1.3l0.6,0
		c0.9,0,0.7-0.2-0.2-0.2C1406,6211.4,1405.7,6211.4,1405.5,6211.5z"/>
	<path id="Path_5072" class="st0" d="M1390.1,6211.7c-0.1,0.2-0.1,0.3-0.2,0.5c-0.3,0.7-0.6,1.4-0.8,2.1c0.1,0.1,0.3-0.1,0.3-0.2
		c0.1-0.3,0.1-0.5,0.3-0.7c0.1-0.3,0.2-0.6,0.3-0.9c0.1-0.5,0.3-0.3,0.5,0.3c0.2,0.6,0.5,1.1,0.8,1.6c0.2,0,0.3-0.1,0.1-0.3
		c-0.2-0.4-0.4-0.9-0.6-1.3C1390.3,6211.5,1390.2,6211.4,1390.1,6211.7z"/>
	<path id="Path_5073" class="st0" d="M1398.1,6213.3c0,0.9,0,1.1,0.2,1c0.1-0.6,0.1-1.3-0.1-1.9
		C1398.1,6212.7,1398.1,6213,1398.1,6213.3z"/>
	<path id="Path_5074" class="st0" d="M1406,6212.8c0,0.1,0.2,0.1,0.4,0.1s0.4-0.1,0.4-0.1c0-0.1-0.2-0.1-0.4-0.1
		S1406,6212.8,1406,6212.8z"/>
	<path id="Path_5075" class="st0" d="M1375.6,6215.5c0,0,0.1,0.1,0.2,0.1c0.1,0,0.2,0.4,0.2,2.5s0,2.5-0.2,2.5
		c-0.3,0.1-0.2,0.2,0.4,0.2c0.6,0,0.7-0.1,0.5-0.2c-0.1-1.7-0.1-3.3,0-5c0.2-0.1,0.1-0.2-0.5-0.2
		C1375.9,6215.5,1375.6,6215.5,1375.6,6215.5z"/>
	<path id="Path_5076" class="st0" d="M1377.7,6215.5c0,0.1,0.1,0.1,0.1,0.2c0.1,1.7,0.1,3.3,0,5c-0.2,0.2-0.1,0.2,0.4,0.2
		c0.6,0,0.6,0,0.4-0.2c-0.1-0.4-0.1-0.8-0.1-1.2l0-1.1l0.4,0c0.4,0,0.4,0,0.8,0.5c0.4,0.7,0.9,1.4,1.5,1.9c0.4,0.2,0.9,0.2,1.4,0
		c0.3-0.2,0.2-0.3-0.3-0.2c-0.3,0.1-0.7,0-0.9-0.3c-0.4-0.4-0.7-0.8-1-1.2l-0.6-0.9l0.3-0.3c0.4-0.3,0.6-0.7,0.6-1.2
		c0-0.9-0.5-1.2-2.1-1.2C1378.5,6215.4,1378.1,6215.5,1377.7,6215.5z M1380,6216.1c0.5,0.5,0.5,1.2,0,1.7c-0.1,0.1-0.3,0.2-0.4,0.3
		c-0.2,0-0.5,0.1-0.7,0l-0.3,0l0-1.1c0-0.4,0-0.8,0-1.2c0-0.1,0.3-0.1,0.6-0.1C1379.5,6215.7,1379.8,6215.8,1380,6216.1z"/>
	<path id="Path_5077" class="st0" d="M1385.5,6215.6c-0.3,0.9-1.9,4.9-2,5c-0.2,0.2-0.2,0.3,0.1,0.3c0.2,0,0.3-0.1,0.3-0.2
		c0.1-0.4,0.2-0.8,0.4-1.2l0.4-1h1.6l0.4,0.9c0.2,0.4,0.3,0.8,0.4,1.2c0,0.2,0,0.3,0.5,0.3c0.5,0,0.6,0,0.4-0.3
		c-0.4-0.7-0.7-1.4-0.9-2.1c-0.4-1.1-0.8-2.1-1.3-3.1C1385.6,6215.4,1385.5,6215.5,1385.5,6215.6z M1385.8,6217.3
		c0.3,0.9,0.3,0.9-0.3,1c-0.2,0-0.4,0-0.6-0.1c0.1-0.5,0.3-1.1,0.6-1.5C1385.7,6216.8,1385.8,6217,1385.8,6217.3L1385.8,6217.3z"/>
	<path id="Path_5078" class="st0" d="M1388.4,6215.5c0,0.1,0.1,0.1,0.1,0.1c0.1,0,0.2,0.1,0.3,0.2c0.2,0.2,0.2,0.5,0.2,2.5
		c0,0.8,0,1.6-0.1,2.3c-0.2,0.1-0.1,0.3,0.3,0.3s0.5-0.1,0.3-0.3c-0.1-1.4-0.2-2.7-0.1-4.1c0,0,0.9,0.9,2,2.1c1.1,1.2,2,2.1,2.1,2.2
		c0.1-0.8,0.1-1.7,0.1-2.5c0-2.2,0-2.6,0.2-2.6c0.3-0.1,0.2-0.3-0.3-0.3c-0.5,0-0.5,0.1-0.3,0.3c0.1,0.1,0.2,0.5,0.2,2
		c0,0.6,0,1.3-0.1,1.9c-0.6-0.5-1.2-1.1-1.7-1.7c-0.9-1-1.8-1.9-1.9-2C1389.3,6215.5,1388.4,6215.3,1388.4,6215.5z"/>
	<path id="Path_5079" class="st0" d="M1394.7,6215.6c0,0.1,0.1,0.1,0.1,0.1c0.1,0.8,0.2,1.7,0.1,2.5c0,2.1,0,2.4-0.2,2.5
		c-0.3,0.1-0.1,0.2,0.5,0.2s0.8-0.1,0.5-0.2c-0.1,0-0.2-0.4-0.2-2.5s0-2.5,0.2-2.5c0.3-0.1,0.2-0.2-0.4-0.2
		C1394.9,6215.5,1394.7,6215.5,1394.7,6215.6z"/>
	<path id="Path_5080" class="st0" d="M1398.5,6215.8c-0.1,0.2-0.6,1.4-1,2.6c-0.3,0.8-0.6,1.5-1,2.3c-0.2,0.2-0.2,0.3,0.1,0.2
		c0.2,0,0.3-0.1,0.3-0.2c0.2-0.7,0.5-1.4,0.8-2.1c0.1-0.1,0.3-0.1,0.9-0.1l0.7,0l0.2,0.5c0.1,0.3,0.3,0.7,0.4,1
		c0.1,0.2,0.2,0.4,0.2,0.6c0,0.1,0.1,0.2,0.5,0.2c0.6,0,0.6,0,0.3-0.3c-0.4-0.8-0.8-1.7-1.2-2.6c-0.5-1.3-1-2.4-1-2.5
		C1398.7,6215.4,1398.6,6215.6,1398.5,6215.8z M1398.9,6217.4c0.1,0.3,0.2,0.5,0.2,0.8c-0.4,0.1-0.8,0.1-1.2-0.1
		c0.1-0.2,0.1-0.5,0.2-0.7c0.1-0.3,0.2-0.7,0.3-0.8C1398.5,6216.4,1398.6,6216.5,1398.9,6217.4L1398.9,6217.4z"/>
	<path id="Path_5081" class="st0" d="M1401.5,6215.5c0,0.1,0.1,0.1,0.2,0.2c0.4,0.1,0.4,0.6,0.4,2.8c0,1.8,0,2.2-0.2,2.2
		c-0.3,0.1-0.2,0.3,0.2,0.3c0.4,0,0.5-0.1,0.3-0.3c-0.1-1.4-0.1-2.8,0-4.1c0,0,1,1,2.1,2.1c1.1,1.2,2,2.1,2.1,2.1
		c0.1-0.8,0.1-1.7,0.1-2.5c0-0.9,0-1.7,0.1-2.6c0.2-0.2,0.1-0.3-0.3-0.3c-0.4,0-0.5,0.1-0.3,0.3c0.1,1.3,0.1,2.6,0,3.9
		c0,0-0.7-0.7-1.4-1.5c-2.5-2.7-2.4-2.6-2.9-2.7C1401.6,6215.4,1401.5,6215.4,1401.5,6215.5z"/>
	<path id="Path_5082" class="st0" d="M1404.9,6222.1c-0.7,0.3-1,1.2-0.7,1.9c0,0.1,0.1,0.1,0.1,0.2c0.2,0.3,0.4,0.4,1.1,0.7
		c1.2,0.5,1.6,1,1.2,1.7c-0.6,0.5-1.4,0.7-2.1,0.4c-0.3-0.1-0.5-0.4-0.4-0.7c0-0.1-0.1-0.2-0.1-0.2c-0.1,0-0.1,0.2-0.1,0.6l0,0.6
		l1,0c1.2,0,1.7-0.1,1.9-0.6c0.2-0.5,0.2-1.1,0-1.5c-0.4-0.4-0.9-0.7-1.4-0.9c-0.7-0.2-1-0.5-1-1c0.1-0.6,0.7-1.1,1.3-1
		c0.2,0,0.4,0.1,0.6,0.3c0.4,0.3,0.6,0.2,0.2-0.2C1406.1,6221.9,1405.4,6221.8,1404.9,6222.1z"/>
	<path id="Path_5083" class="st0" d="M1377.7,6222.2c-0.2,0.4-1.6,4-1.8,4.4c-0.1,0.1-0.1,0.3-0.2,0.4c-0.2,0.2-0.1,0.3,0.1,0.3
		c0.1,0,0.2-0.1,0.2-0.2c0,0,0,0,0,0c0.1-0.4,0.2-0.8,0.4-1.2l0.4-1h1.6l0.4,0.9c0.2,0.4,0.3,0.8,0.4,1.2c0,0.3,0,0.3,0.4,0.3
		c0.5,0,0.5,0,0.3-0.4c-0.1-0.3-0.4-0.8-1.5-3.6C1377.9,6222,1377.9,6221.9,1377.7,6222.2z M1378,6223.9c0.1,0.2,0.2,0.5,0.2,0.8
		c-0.4,0.1-0.8,0.1-1.1,0c0-0.2,0-0.4,0.1-0.6c0.1-0.3,0.2-0.6,0.3-0.7C1377.6,6223.1,1377.8,6223.2,1378,6223.9L1378,6223.9z"/>
	<path id="Path_5084" class="st0" d="M1380.8,6222.1c0,0.1,0.1,0.2,0.1,0.2c0.1,0.8,0.1,1.7,0.1,2.6l0,2.4h0.3
		c0.3,0,0.5-0.1,0.4-0.2c-0.1-1.6-0.1-3.2,0.1-4.8c0.3-0.1,0.1-0.2-0.4-0.2C1381.1,6222,1380.8,6222.1,1380.8,6222.1z"/>
	<path id="Path_5085" class="st0" d="M1382.7,6222.1c0,0.1,0.1,0.1,0.2,0.2c0.1,0,0.2,0.4,0.2,2.4c0,0.8,0,1.6-0.1,2.4
		c-0.2,0.1-0.1,0.3,0.3,0.3c0.5,0,0.6-0.1,0.5-0.3c-0.1-0.4-0.1-0.8-0.1-1.1l0-1l0.4,0l0.4,0l0.6,0.9c0.3,0.4,0.6,0.9,0.9,1.2
		c0.2,0.3,0.6,0.5,1,0.4c0.6,0,1.2-0.2,1.1-0.3c0-0.1-0.2-0.1-0.4,0c-0.2,0.1-0.4,0.1-0.6,0c-0.7-0.5-1.3-1.2-1.7-2l-0.3-0.5
		l0.4-0.4c0.3-0.2,0.4-0.6,0.4-0.9c0.1-0.6-0.2-1.1-0.8-1.2c0,0,0,0,0,0C1384.3,6222,1383.5,6222,1382.7,6222.1z M1384.7,6222.3
		c0.4,0.2,0.7,0.7,0.7,1.2c0,0.3-0.1,0.6-0.3,0.7c-0.3,0.3-0.4,0.3-0.9,0.3l-0.6,0l0-1c0-0.4,0-0.8,0-1.2
		C1383.6,6222.2,1384.3,6222.2,1384.7,6222.3L1384.7,6222.3z"/>
	<path id="Path_5086" class="st0" d="M1388.3,6222.1c0,0.1,0.1,0.2,0.1,0.2c0.1,0.8,0.1,1.7,0.1,2.6l0,2.5l1.7,0l1.7,0l0-0.6
		c0-0.6-0.1-0.8-0.2-0.2c-0.1,0.5-0.3,0.6-1.2,0.6c-1.2,0-1.2,0-1.2-2.6c0-0.7,0-1.5,0.1-2.2c0.2-0.2,0.1-0.3-0.4-0.3
		C1388.5,6222,1388.3,6222.1,1388.3,6222.1z"/>
	<path id="Path_5087" class="st0" d="M1392.4,6222.1c0,0.1,0.1,0.2,0.1,0.2c0.1,0.8,0.1,1.7,0.1,2.6l0,2.4h0.8l0-2.4
		c-0.1-0.9,0-1.7,0.1-2.6c0.2-0.2,0.1-0.3-0.4-0.3C1392.6,6222,1392.4,6222.1,1392.4,6222.1z"/>
	<path id="Path_5088" class="st0" d="M1394.2,6222.1c0.1,0.1,0.1,0.2,0.2,0.3c0.2,0.2,0.2,0.3,0.2,2.6l0,2.4h0.3
		c0.2,0,0.2,0,0.2-0.2c-0.1-1.3-0.1-2.7,0-4c0.1,0,0.9,0.9,2,2c1,1.1,1.9,2,2,2c0.1-0.8,0.1-1.6,0.1-2.4c0-2.1,0-2.5,0.2-2.5
		c0.3-0.1,0.2-0.3-0.2-0.3c-0.4,0-0.5,0.1-0.3,0.3c0.1,1.3,0.1,2.5,0,3.8c0,0-0.9-0.9-2-2c-1.6-1.7-1.9-2-2.2-2
		C1394.4,6222,1394.2,6222,1394.2,6222.1z"/>
	<path id="Path_5089" class="st0" d="M1400.2,6222.1c0,0.1,0.1,0.2,0.1,0.2c0.1,0.8,0.1,1.7,0.1,2.6l0,2.5l1.6,0
		c1.6,0,1.6,0,1.7-0.3c0-0.3-0.1-0.3-0.2-0.1c-0.7,0.2-1.5,0.2-2.2,0c-0.1-0.8-0.2-1.6-0.1-2.4v-2.3h1c0.9,0,1,0,1.1,0.2
		c0.2,0.3,0.3,0.3,0.3-0.1l0-0.3l-1.6,0C1401.2,6222,1400.7,6222,1400.2,6222.1z"/>
	<path id="Path_5090" class="st0" d="M1402.2,6224.5c-0.6,0.1-0.9,0.2-0.8,0.3c0.3,0.1,0.5,0.1,0.8,0.1c0.6,0,0.8,0,0.8-0.1
		C1403.1,6224.4,1403,6224.4,1402.2,6224.5z"/>
</g>
</svg>
