<?xml version="1.0" encoding="utf-8"?>
<!-- Generator: Adobe Illustrator 23.0.1, SVG Export Plug-In . SVG Version: 6.00 Build 0)  -->
<svg version="1.1" id="Layer_1" xmlns="http://www.w3.org/2000/svg" xmlns:xlink="http://www.w3.org/1999/xlink" x="0px" y="0px"
	 viewBox="0 0 80 80" style="enable-background:new 0 0 80 80;" xml:space="preserve">
<style type="text/css">
	.st0{fill:#FFFFFF;}
	.st1{fill:#084981;}
</style>
<g id="footer-namad--hoghooghmosafer" transform="translate(-1420 -6166)">
	<rect id="Rectangle_1935" x="1456.3" y="6197.7" class="st0" width="35.9" height="35.5"/>
	<path id="Path_4977" class="st1" d="M1460.7,6174l0,1l-0.7,0.1c-0.4,0-1.3,0.1-2,0.2c-0.7,0.1-1.8,0.2-2.3,0.3
		c-0.5,0.1-1.1,0.2-1.3,0.2c-0.3,0-0.6,0.1-1.5,0.4c-0.2,0.1-0.7,0.2-1,0.3c-0.6,0.2-1.3,0.4-1.9,0.7c-0.1,0.1-0.2,0.1-0.3,0.1
		c-0.1,0-0.3,0.1-0.4,0.1c-0.1,0.1-0.2,0.1-0.3,0.1c-0.8,0.3-1.5,0.6-2.3,1c-1.8,0.9-3.5,2-5.1,3.2c-0.3,0.3-0.7,0.6-0.9,0.7
		c-1.8,1.5-3.4,3.2-4.9,5c-1.2,1.6-2.3,3.3-3.3,5.1c0,0-0.3,0.6-0.6,1.2c-0.6,1-1,2.1-1.2,3.2c0,0,0.4-0.1,0.9-0.4
		c0.3-0.2,0.6-0.3,0.9-0.5c0,0,0.4-0.1,0.8-0.3c1.5-0.6,3.1-0.9,4.7-0.8c2.5,0,4.9,0.7,6.9,2.1c0.7,0.5,0.9,0.5,1.4,0.2
		c0.4-0.2,0.9-0.6,1.5-0.9c0.8-0.4,1.7-0.7,2.6-1c3.4-0.9,6.9-0.3,9.9,1.4c0.2,0.1,0.4,0.2,0.5,0.4c0.3,0.3,0.9,0.4,1.2,0
		c1.2-0.8,2.5-1.4,3.9-1.8c1.1-0.3,2.2-0.4,3.3-0.5c2.4,0,4.8,0.6,6.9,1.9l1,0.6l0.4-0.2c0.3-0.1,0.5-0.3,0.8-0.4
		c1.4-0.8,3-1.4,4.6-1.8c1.3-0.2,2.7-0.3,4.1-0.1c1.9,0.3,3.7,1,5.3,2c0,0,0.1,0,0.1-0.1c-0.2-0.9-0.6-1.8-1-2.6
		c-0.2-0.4-0.5-1-0.6-1.3c-0.1-0.3-0.3-0.5-0.4-0.8c-0.1-0.1-0.3-0.5-0.5-0.8c-0.3-0.5-0.8-1.4-1.7-2.6c-1.8-2.5-3.9-4.7-6.3-6.6
		c-0.6-0.5-2.4-1.8-2.8-2c-0.1-0.1-0.4-0.3-0.8-0.5c-0.7-0.4-2.8-1.5-3.7-1.9c-0.4-0.2-0.8-0.3-0.9-0.4c-0.1-0.1-0.3-0.1-0.5-0.1
		c-0.1,0-0.2,0-0.3-0.1c-0.5-0.3-1.1-0.5-1.7-0.6c-0.4-0.1-0.9-0.3-1.1-0.4c-0.2-0.1-0.4-0.1-0.6-0.1c-0.1,0-0.2,0-0.3-0.1
		c-0.2-0.1-0.4-0.1-0.5-0.1c-0.2,0-0.9-0.1-1.4-0.2c-1.4-0.2-2.9-0.4-4.3-0.5l-0.8-0.1l0-1l0-1h-1.3L1460.7,6174z M1465.1,6183.5
		l0.2,0.2l0.3-0.2l0.3-0.2l0.3,0.3c0.3,0.3,0.3,0.3,0.1,0.5c-0.2,0.2-0.2,0.2-0.4,0c-0.3-0.2-0.4-0.2-0.7,0
		c-0.2,0.2-0.2,0.1-0.4-0.1c-0.2-0.2-0.3-0.3-0.1-0.5C1464.8,6183.2,1464.9,6183.2,1465.1,6183.5L1465.1,6183.5z M1449.2,6183.6
		c0.2,0.2,0.2,0.3,0.1,0.4c-0.2,0.3-0.4,0.3-0.7,0l-0.2-0.2l0.2-0.2C1448.8,6183.3,1448.9,6183.3,1449.2,6183.6L1449.2,6183.6z
		 M1451.8,6183.9c0,0.2,0.1,1,0.1,1.8c0,1.7,0,1.8,0.6,1.7c0.3,0,0.3-0.1,0.4-0.3c0.1-0.3,0.3-0.5,0.3-0.2c0,0.3,0.3,0.5,0.6,0.5
		c0.2,0,0.3-0.1,0.3-0.4c0.1-0.4,0.2-0.4,0.4,0c0.2,0.5,0.8,0.5,0.9-0.1c0.1-0.3,0.2-0.3,0.4,0.1c0.1,0.3,0.2,0.3,0.6,0.3
		c0.5,0,0.7-0.1,0.7-0.6c0-0.5,0.3-0.9,0.8-1c0.3,0,0.6,0.1,0.8,0.3c0.6,0.6,0.8,1.6,0.3,2.4c-0.3,0.4-0.7,0.3-1.2-0.2l-0.4-0.4
		l-0.3,0.3c-0.3,0.3-0.8,0.4-1,0.2c-0.2-0.2-0.3-0.2-0.6,0.1l-0.2,0.2l-0.4-0.2c-0.4-0.2-0.4-0.2-0.6-0.1c-0.2,0.2-0.4,0.2-0.8,0
		c-0.3-0.2-0.3-0.2-0.5,0c-0.2,0.1-0.4,0.2-0.7,0.2c-0.4,0-0.5,0-0.7-0.3c-0.3-0.4-0.4-1-0.5-2.7l0-1.5l0.3-0.2
		C1451.7,6183.6,1451.7,6183.6,1451.8,6183.9L1451.8,6183.9z M1471.9,6184l0.2,0.2l0.2-0.2l0.3-0.2l0.3,0.3l0.3,0.3l-0.2,0.2
		c-0.2,0.2-0.2,0.2-0.5,0c-0.3-0.2-0.3-0.2-0.5,0c-0.2,0.2-0.2,0.2-0.5-0.1s-0.3-0.3-0.1-0.5
		C1471.6,6183.8,1471.6,6183.8,1471.9,6184L1471.9,6184z M1449.6,6185.1c0.2,0.2,0.4,0.5,0.5,0.7c0.2,0.7,0.1,1.3-0.2,1.9
		c-0.3,0.6-0.7,0.8-1.7,0.9l-0.8,0l-0.1,0.4c-0.1,0.6-0.3,1.1-0.7,1.6c-0.3,0.4-0.3,0.4-0.9,0.4c-0.9,0-1.7-0.3-1.2-0.5
		c1.1-0.4,2.5-1.3,2.5-1.8c-0.1-0.3-0.2-0.6-0.5-0.8c-0.1-0.1-0.2-0.1-0.3-0.2l-0.2-0.2l0.2-0.4c0.1-0.2,0.3-0.4,0.3-0.4
		c0.2,0.1,0.3,0.2,0.4,0.3c0.3,0.3,0.3,0.3,1.2,0.3c0.4,0,0.8,0,1.1-0.1c0.4-0.2,0.4-0.3-0.2-0.3c-0.7,0-1.2-0.2-1.2-0.7
		c0-0.9,0.5-1.7,1-1.7C1449.2,6184.7,1449.3,6184.8,1449.6,6185.1z M1465.7,6184.8c0.3,0.2,0.6,0.6,0.7,1c0.2,0.9,0.2,1.8,0,2.8
		c-0.4,1-1,1.4-2.4,1.5c-1.2,0-1.7-0.1-2.1-0.8c-0.2-0.4-0.3-0.5-0.2-1.1c0-0.7,0.3-1.4,0.5-1.3c0.1,0.2,0.1,0.4,0,0.6
		c-0.1,0.3,0,0.6,0.2,0.9c0.3,0.5,0.8,0.6,2,0.6c1.1,0,1.6-0.3,1.7-0.7c0.1-0.3,0-0.4-0.5-0.4c-0.5,0-0.9-0.2-1.3-0.5
		c-0.1-0.2-0.1-0.5,0-1c0.1-0.5,0.3-0.9,0.7-1.2C1465.3,6184.7,1465.4,6184.7,1465.7,6184.8L1465.7,6184.8z M1476.5,6185.9
		c0.6,0.2,1.1,0.3,1.7,0.5c0.3,0,0.5,0.1,0.5,0.2c0,0.2-0.1,0.3-0.2,0.5c-0.2,0.3-0.3,0.4-0.5,0.4c-0.6,0.1-1.1,0.3-1.6,0.6
		l-1.3,0.6l-1.2,0c-1,0-1.2,0-1.5-0.2c-0.3-0.2-0.4-0.2-0.6,0c-0.1,0.1-0.4,0.2-0.9,0.2c-0.8,0-1,0.1-1,0.5
		c-0.1,0.6-0.4,1.2-0.8,1.7l-0.3,0.4l-0.7-0.1c-0.7-0.1-1-0.2-1-0.4c0.3-0.2,0.5-0.3,0.8-0.5c0.9-0.4,1.6-1.1,1.6-1.4
		c0-0.2-0.1-0.2-0.6-0.3c-0.3,0-0.7-0.1-0.9-0.3c-0.3-0.3-0.4-0.5-0.2-1.2c0.3-0.9,0.6-1.4,1.1-1.4c0.3,0,0.9,0.6,1,1.1l0.2,0.5
		l0.6,0c0.6,0,0.6,0,0.5-0.3c-0.2-0.3,0-0.7,0.5-1.2c0.6-0.6,1-0.6,1.4-0.1c0.3,0.3,0.4,0.8,0.1,1.2c-0.1,0.2-0.1,0.2,0,0.3
		c1,0.1,1.9,0,2.8-0.2c0.2-0.1,0.3-0.2,0.3-0.2c-0.5-0.3-1-0.5-1.6-0.6c-0.1,0-0.3,0.1-0.4,0.2c-0.2,0.1-0.3,0.2-0.3,0.1
		c-0.2-0.2,0.6-1.2,1-1.2C1475.6,6185.6,1476,6185.7,1476.5,6185.9L1476.5,6185.9z"/>
	<path id="Path_4978" class="st1" d="M1457.7,6186.5c-0.2,0.5,0.4,1.5,0.8,1.4c0.4-0.1,0-1.5-0.5-1.5
		C1457.8,6186.4,1457.7,6186.4,1457.7,6186.5z M1458.2,6187c0.1,0.2,0,0.3-0.1,0.1c-0.1-0.2-0.1-0.3,0-0.3
		C1458.1,6186.9,1458.1,6186.9,1458.2,6187L1458.2,6187z"/>
	<path id="Path_4979" class="st1" d="M1448.4,6185.7c-0.2,0.2,0,0.3,0.5,0.3s0.6-0.1,0.3-0.3
		C1448.9,6185.6,1448.6,6185.6,1448.4,6185.7z"/>
	<path id="Path_4980" class="st1" d="M1464.8,6186c-0.2,0.2-0.2,0.2,0,0.3c0.2,0.1,0.9,0.2,1,0c0.1-0.1-0.3-0.5-0.6-0.5
		C1465.1,6185.8,1464.9,6185.9,1464.8,6186z"/>
	<path id="Path_4981" class="st1" d="M1471.7,6186.6c-0.3,0.1-0.2,0.3,0.1,0.5c0.2,0.1,0.4,0.2,0.6,0.1c0.5-0.1,0.6-0.3,0.2-0.6
		C1472.4,6186.5,1472,6186.4,1471.7,6186.6z"/>
	<path id="Path_4982" class="st1" d="M1468.4,6187c-0.1,0.1-0.1,0.3,0,0.4c0,0,0,0,0,0c0.3,0.1,0.6,0.1,0.9,0
		c0.1-0.1-0.4-0.5-0.6-0.5C1468.6,6186.9,1468.5,6186.9,1468.4,6187z"/>
	<path id="Path_4983" d="M1456.3,6202v4.3l4.3,0l4.3,0l0-4.3l0-4.3h-8.7V6202z M1463.7,6201.9v3.1l-3.1,0l-3.1,0l0-3l0-3h6.2
		L1463.7,6201.9z"/>
	<path id="Path_4984" d="M1458.8,6201.9v1.9l1.9,0l1.8,0l0-1.9l0-1.8h-3.7V6201.9z"/>
	<path id="Path_4985" d="M1468.7,6198.9v1.2l0.6,0l0.6,0l0-1.1l0-1.1l-0.6,0l-0.6,0L1468.7,6198.9z"/>
	<path id="Path_4986" d="M1471.2,6198.3v0.6l0.6,0l0.6,0l0-0.6l0-0.6h-1.3V6198.3z"/>
	<path id="Path_4987" d="M1476.2,6197.8c-0.1,0.2-0.1,0.4-0.1,0.6v0.5h-1.2l0,0.6l0,0.6l-0.6,0l-0.6,0v0.6c0,0.6-0.1,0.7-0.6,0.7
		c-0.5,0-0.5-0.1-0.6-0.7l0-0.5l-0.6,0l-0.6,0v2.5l0.6,0l0.6,0l0,0.6l0,0.6l-1.2,0l-1.2,0l0,0.6l0,0.6l0.6,0l0.6,0l0,0.6l0,0.6h-1.2
		l0-0.6l0-0.6l-0.6,0l-0.6,0v-2.4l0.6,0l0.6,0l0-0.5c0-0.2,0-0.4-0.1-0.6c-1.2-0.1-2.4-0.1-3.7-0.1c-0.1,0.2-0.1,0.4-0.1,0.6l0,0.5
		l0.6,0l0.6,0l0,0.6l0,0.6l-0.6,0l-0.6,0v2.5l0.6,0l0.6,0l0,0.6l0,0.6l-1.8,0l-1.9,0v1.2h-1.2v-1.2h-6.2v1.2h0.7
		c0.4,0,0.8,0,1.2,0.1l0.5,0.1l0,0.6l0,0.6l-0.6,0l-0.6,0v1.2h-1.2v1.3l0.6,0l0.6,0l0,0.6l0,0.6h2.4l0,0.6l0,0.6l0.6,0l0.6,0l0,0.6
		l0,0.6l-1.2,0l-1.2,0l0,0.6l0,0.6h-1.2l0-0.6l0-0.6h-1.2v7.4h1.2l0-2.4l0-2.4l1.2,0l1.2,0l0,0.6l0,0.6l1.3,0l1.3,0v2.4h-1.3v-1.2
		h-2.5v2.5h7.4l0,1.2l0,1.2l0.6,0l0.6,0l0,0.6l0,0.6l0.6,0l0.6,0l0-0.6l0-0.6l0.6,0l0.6,0v2.5l-1.2,0l-1.2,0l0-0.6l0-0.6l-0.6,0
		l-0.6,0v6l0.6,0l0.6,0l0-0.6l0-0.6l0.6,0l0.6,0l0-1.2l0-1.2l1.9,0l1.8,0v-1.2h1.2v2.5h1.3v1.2h-2.5v-1.2h-2.6v1.2h2.6v1.2l1.9,0
		l1.8,0l0-1.2l0-1.2h3.6v1.2h2.5l0,0.6l0,0.6l0.6,0l0.6,0v-1.2h1.3v1.2l1.9,0l1.8,0l0-1.8l0-1.8l0.6,0l0.6,0l0,1.2l0,1.2h1.3l0-1.2
		l0-1.2l0.6,0l0.6,0v-3.6h-2.5v0.6c0,0.5,0,0.6,0.2,0.6c0.1,0,0.2,0,0.3,0c0.1,0,0.3,0,0.4,0c0.3,0.1,0.3,0.1,0.3,0.6l0,0.6l-1.2,0
		l-1.2,0v1.2h-1.3v-2.4h0.5c0.8,0,0.8,0,0.8-0.7v-0.6l-0.6,0l-0.6,0l0-0.6l0-0.6l0.6,0l0.6,0l0-1.9l0-1.8h1.2v-1.2l0.6,0l0.6,0
		l0-0.6l0-0.6l-0.6,0l-0.6,0l0-0.6l0-0.6l-1.2,0l-1.2,0v-1.2l0.6,0l0.6,0v-1.2h2.5l0-1.2l0-1.2l0.5,0l0.5,0v-1.2l-1.2,0l-1.2,0
		l0-0.6l0-0.6l0.6,0l0.6,0v-2.5h-1.3v1.2h-1.2v-1.2h-1.3v1.2h-1.3l0,0.6l0,0.6l0.6,0l0.6,0v2.5l0.6,0l0.6,0l0-0.6l0-0.6l0.6,0l0.6,0
		v2.5h-3.7v1.3h-1.2v2.5h1.2v1.2h-1.2v1.3h1.2v1.2h1.3v1.2h-1.2l0-0.6l0-0.6l-1.2,0l-1.2,0l0-0.5c0-0.2,0-0.4-0.1-0.6
		c-0.2-0.1-0.4-0.1-0.6-0.1h-0.5l0-1.8l0-1.8l-0.6,0l-0.6,0l0,1.2l0,1.2l-0.6,0l-0.6,0l0,0.6l0,0.6l1.2,0l1.2,0v2.4h-4.9v-1.2h1.3
		v-1.2l-0.4-0.1c-0.7-0.1-0.8-0.1-0.8,0.6l0,0.6h-1.2v-1.2h1.2v-1.3h1.3v-1.2h-1.3v1.2l-0.6,0l-0.6,0l0,0.6l0,0.6l-1.2,0.1
		c-0.7,0-1.5,0.1-1.8,0.1h-0.6v-1.3h2.5v-1.2l0.6,0l0.6,0l0-0.6l0-0.6h2.5v-1.2l-0.6,0l-0.6,0v-1.2l0.6,0l0.6,0v-1.2h-6.2v-1.3h1.2
		v-1.2h1.3v1.2h1.3v-1.2h-1.3v-2.5h-2.5v1.2h-1.3v-2.4l0.6,0l0.6,0l0-1.2l0-1.2h2.5v1.2h-1.3l0,0.6l0,0.6h1.2l0-0.6l0-0.6h1.2v2.5
		h1.3v0.6c0,0.2,0,0.4,0,0.6c0.2,0,0.4,0,0.6,0l0.6,0v-1.2h-1.3l0-1.2l0-1.2l0.6,0l0.6,0v1.3h1.2v-1.3h-1.2v-1.2h2.5l0-0.6l0-0.6
		l0.6,0l0.6,0v-1.2h-0.3c-0.2,0-0.4,0-0.6-0.1c-0.3-0.1-0.3-0.1-0.3-0.6v-0.6h-1.3v0.6c0,0.4,0,0.6-0.2,0.6c-0.9,0.1-1.8,0.1-2.7,0
		l-0.8-0.1v-2.3h1.2v1.2h1.3v-1.2h2.5v-1.2h-2.4C1477.9,6197.7,1477,6197.7,1476.2,6197.8z M1476.1,6203.1v0.6h-1.2v-0.5
		c0-0.2,0-0.4,0.1-0.6c0.2-0.1,0.4-0.1,0.6-0.1h0.5L1476.1,6203.1z M1468.7,6205.6v0.6h-1.3v-0.5c0-0.2,0-0.4,0.1-0.6
		c0.2-0.1,0.4-0.1,0.6-0.1h0.6L1468.7,6205.6z M1469.9,6208.1v0.6h-1.2v2.5h1.2l0.1-1.2c0-0.6,0.1-1.2,0.1-1.2c0.2,0,0.4,0,0.6,0
		l0.5,0l0,0.6l0,0.6h1.3v-1.3h0.4c0.7,0,0.7,0,0.7,0.7v0.6h-1.2v1.2h-1.3v2.5l0.6,0l0.6,0l0,0.6l0,0.6h1.2l0-0.6l0-0.6l1.2,0l1.2,0
		v1.3h-1.2v1.2h-1.3l0,0.6l0,0.6h-2.4v-1.2l0.6,0l0.6,0v-1.2h-2.5l0,1.2l0,1.2l-0.6,0l-0.6,0v1.2l1.2,0l1.2,0l0,0.6l0,0.6h1.3v1.2
		h1.2v1.2h-1.2v-1.2h-2.5v-0.5c0-0.6-0.1-0.8-0.7-0.7c-0.6,0-0.6,0-0.6-0.6v-0.6h-1.3l0,1.2l0,1.2l-0.6,0l-0.6,0v-1.2h-3.7v-1.3
		l-0.6,0l-0.6,0l0-0.6l0-0.6l0.6,0l0.6,0l0-1.2l0-1.2h-1.3v-1.3h-1.2v-1.2l0.6,0l0.6,0l0,0.6l0,0.6h1.3v-1.2h1.2l0-0.6l0-0.6h1.2
		v1.2l-0.6,0l-0.6,0v1.2l1.9,0l1.8,0l0,0.6l0,0.6h1.3v-1.3l0.6,0l0.6,0v-1.1l-1.2,0l-1.2,0l0-0.6l0-0.6h-1.2v-1.2l-1.3,0l-1.3,0
		l0-0.6l0-0.6l2.5,0l2.5,0l0-0.5c0-0.7,0-0.7,0.7-0.7h0.5L1469.9,6208.1z M1462.5,6209.9v1.2h-2.5v-2.4l0.5,0c0.3,0,0.8,0,1.2,0
		l0.7,0L1462.5,6209.9z M1488.6,6209.1c0,0.8,0,0.8-0.7,0.8h-0.6v-1.3h1.3L1488.6,6209.1z M1488.6,6218.6c0,0.4,0.1,0.8,0.1,1.2v1.1
		h-1.3v-1.2c0-0.4,0-0.8,0.1-1.2c0.2-0.1,0.4-0.1,0.6-0.1C1488.4,6218.5,1488.5,6218.5,1488.6,6218.6L1488.6,6218.6z M1465,6221.6
		l0,0.6h-1.3v-0.5c0-0.2,0-0.4,0.1-0.6c0.2-0.1,0.4-0.1,0.6,0l0.5,0L1465,6221.6z M1476.2,6221.6l0,0.6l0.6,0l0.6,0v2.4h-2.5v1.3
		h1.2l0,0.6l0,0.6l0.6,0l0.6,0v1.2h1.3v-1.3h-1.3l0-0.6l0-0.6l0.6,0l0.6,0v-1.2h1.2v1.2h-1.2v1.2h0.4c0.2,0,0.8,0,1.2,0.1l0.8,0.1
		l0,1.8l0,1.8l-0.6,0l-0.6,0v-2.5h-1.2l0,0.6l0,0.6l-0.6,0l-0.6,0v-1.2h-1.3v1.2h-1.2l0-1.2l0-1.2l-1.2,0l-1.2,0v1.3l-0.6,0l-0.6,0
		l0-0.6l0-0.6l0.7-0.1l0.6-0.1v-1.2h-2.5v-1.2l1.8,0l1.8,0l0-0.6l0-0.6l0.6,0l0.6,0v-1.2c0-0.4,0-0.8,0.1-1.2
		c0.2-0.1,0.4-0.1,0.6-0.1h0.5L1476.2,6221.6z M1468.8,6222.8v0.6h1.2v1.2h-2.5v-2.4h1.3V6222.8z M1472.5,6222.7
		c0,0.7-0.1,0.7-0.7,0.7l-0.5,0l0-0.6l0-0.6h1.3L1472.5,6222.7z M1481.1,6224l0,0.6h-1.3v-0.5c0-0.2,0-0.4,0.1-0.6
		c0.2-0.1,0.4-0.1,0.6,0l0.5,0L1481.1,6224z M1486.1,6225.2v1.8h-3.6v-3.6h3.6L1486.1,6225.2z M1486.1,6228.9v0.6h-1.2v1.3h1.2v1.2
		h-1.2v-1.2h-1.3v1.2h-1.2v-1.2h1.2v-1.3h-1.2v-1.2h3.6L1486.1,6228.9z"/>
	<path id="Path_4988" d="M1462.5,6214.2v0.6h1.2v1.2h1.3v-1.2l-0.6,0l-0.6,0l0-0.6l0-0.6h-1.2V6214.2z"/>
	<path id="Path_4989" d="M1466.2,6216.2c0,0.2,0,0.4,0,0.6l0,0.5l0.6,0l0.6,0v-1.3h-0.6C1466.5,6216,1466.3,6216.1,1466.2,6216.2z"
		/>
	<path id="Path_4990" d="M1463.7,6217.9v0.6h1.3v-1.2h-1.3V6217.9z"/>
	<path id="Path_4991" d="M1483.7,6224.7c-0.1,0.2-0.1,0.4-0.1,0.6v0.6h1.3l0-0.6l0-0.6l-0.5,0
		C1484.1,6224.6,1483.9,6224.6,1483.7,6224.7z"/>
	<path id="Path_4992" d="M1483.6,6202l0,4.3h8.6v-8.5l-4.3,0l-4.3,0L1483.6,6202z M1491.1,6201.9l0,3l-3.1,0l-3.1,0v-6.1h6.2
		L1491.1,6201.9z"/>
	<path id="Path_4993" d="M1486.1,6200.2c0,0.1,0,0.9,0,1.8l0,1.7l1.9,0l1.8,0v-3.7h-1.8C1486.6,6200.1,1486.2,6200.1,1486.1,6200.2z
		"/>
	<path id="Path_4994" class="st1" d="M1445.5,6199c-1.4,0.7-2.1,2.3-1.7,3.7c0.1,0.6,0.4,1.1,0.9,1.5c0.8,0.8,2,1.1,3.1,0.8
		c0.6-0.2,1.1-0.5,1.5-1c0.6-0.6,0.9-1.4,0.8-2.2c0.1-0.8-0.3-1.6-0.9-2.2c-0.5-0.7-1.4-1-2.2-0.9
		C1446.4,6198.7,1445.9,6198.8,1445.5,6199z"/>
	<path id="Path_4995" d="M1466.2,6199c0,0.2,0,0.4,0,0.6l0,0.4l0.6,0l0.6,0v-1.2h-0.6C1466.5,6198.9,1466.3,6198.9,1466.2,6199z"/>
	<path id="Path_4996" d="M1481.2,6205.6v0.6l0.6,0l0.6,0l0-0.6l0-0.6h-1.3V6205.6z"/>
	<path id="Path_4997" class="st1" d="M1445.4,6205.6c-1.2,0.8-2.3,1.7-3.2,2.8c-0.3,0.4-0.8,0.9-1,1.2c-0.8,0.9-1.6,1.9-2.3,2.9
		c-0.1,0.2-0.2,0.5-0.2,0.7c0,0.2,0,0.5-0.1,0.7c-0.1,0.2-0.1,0.4-0.2,0.6c0,0.2-0.2,0.7-0.3,1.1c-0.1,0.4-0.3,1-0.3,1.2
		c0,0.2-0.2,0.7-0.3,1c-0.2,0.7-0.2,0.7-1,0.5c-0.3-0.1-0.7-0.1-0.9-0.2c-0.7-0.1-0.7-0.2-0.5-0.8c0.3-0.9,0.2-1.2-0.5-1.2
		c-0.4,0-0.4,0-0.6,0.5c-0.3,0.9-0.3,1-0.6,0.9c-0.1,0-0.6-0.1-1-0.3c-1.2-0.3-1.7-0.3-2.2-0.1c-0.5,0.3-0.7,0.7-1,1.9
		c-0.1,0.5-0.3,1.3-0.5,1.7c-0.1,0.4-0.3,1.2-0.5,1.7c-0.1,0.5-0.3,1.2-0.4,1.6c-0.1,0.4-0.2,0.9-0.3,1.1c-0.1,0.3-0.1,0.6-0.4,1.5
		c-0.4,0.8-0.2,1.7,0.4,2.2c0.3,0.2,0.6,0.3,1,0.4c0.4,0.1,0.8,0.2,1.1,0.3c0.2,0.1,1,0.3,1.7,0.4c2,0.5,2,0.5,2.2,1
		c0.2,0.6,0.3,0.7,0.8,1c0.4,0.3,1,0.2,1.4-0.1c0.8-0.5,1-1.4,0.5-2.2c0,0,0,0,0,0c-0.2-0.2-0.2-0.4-0.2-0.6
		c0.3-1.4,0.7-2.8,0.8-3.3c0.1-0.3,0.3-1,0.4-1.6c0.2-0.6,0.3-1.2,0.4-1.3c0.1-0.3,0.3-1.2,0.6-2.2c0.1-0.3,0.2-0.8,0.3-1.1
		c0.1-0.3,0.2-0.8,0.3-1.3c0.3-1.1,0.6-2.2,0.8-2.8l0.2-0.5h0.5c0.6,0,1.2-0.3,1.5-0.8c0.2-0.3,0.7-0.9,1-1.3
		c0.2-0.3,0.4-0.6,0.7-0.8c0.1,0.8,0.1,1.6,0.1,2.4c0,1.3,0.1,2.8,0.1,3.2l0.1,0.8l-0.3,0.6c-1.7,3.4-3.1,6.9-4.1,10.5
		c-0.1,0.8,0.3,1.6,1,2c0.5,0.1,1,0.1,1.5,0c0.6-0.3,0.8-0.7,1.3-2c0.2-0.7,0.5-1.6,0.7-2.1s0.3-1,0.4-1.3c0.1-0.4,0.3-0.8,0.4-1.1
		c0.1-0.3,0.3-0.7,0.3-0.8c0-0.1,0.4-0.8,0.7-1.6c0.6-1.4,0.8-1.7,0.9-1.4c0.4,1.1,1.1,3.4,1.3,3.9c0.3,0.8,1,3,1.4,4.2
		c0.5,1.3,0.9,1.8,1.8,1.8c0.6,0,1.2-0.3,1.6-0.8c0.4-0.6,0.4-1,0-2.2c-0.2-0.6-0.4-1.2-0.4-1.3c-0.1-0.3-0.5-1.7-1.6-4.7
		c-0.2-0.6-0.5-1.6-0.7-2.1s-0.4-1.1-0.4-1.2c-0.1-0.3-0.1-0.7-0.1-1c0-0.5-0.1-1.5-0.1-2.3c-0.1-1.1-0.1-2.2,0-3.3
		c0.2,0.1,0.4,0.3,0.6,0.5c0.5,0.4,1.1,1,2.4,1.9c0.8,0.5,1.6,1,2.4,1.5c0.5,0.1,1-0.1,1.3-0.5l0.4-0.4l0-1c-0.1-1.2,0-1.1-1.5-2.1
		c-1.9-1.2-3.5-2.7-4.9-4.5c-0.6-0.9-1.3-1.6-2.2-2.2C1446.9,6205.5,1446.1,6205.4,1445.4,6205.6z M1433.8,6219.9
		c0.2,0.6,0.1,1.2-0.1,1.8c-0.1,0.3-0.2,0.6-0.2,0.8c0.4,0.5,0.8,1,1.2,1.4c0.4,0.5,0.9,1,1.2,1.5c0.1,0.2-0.2,0.7-0.4,0.7
		c-0.3-0.2-0.6-0.3-0.9-0.6c-0.4-0.3-1-0.7-1.2-0.8c-0.5-0.3-0.5-0.2-0.9,0.8l-0.3,0.8l0.3,0.3c0.4,0.3,0.4,0.6,0.2,0.7
		c-0.1,0.1-0.3,0.1-1.2-0.2c-1.3-0.4-1.4-0.5-1.2-0.8c0.1-0.2,0.2-0.3,0.4-0.2c0.3,0,0.6-0.3,0.7-0.6c0-0.3,0.1-0.5,0.1-0.8
		c0.1-0.4,0.1-0.6,0-0.7c-0.5-0.1-1-0.2-1.6-0.2l-1.4,0l0-0.3c0-0.1,0-0.3,0.1-0.4c0.6-0.2,1.1-0.4,1.7-0.5c0.6-0.1,1.2-0.3,1.8-0.5
		c0.1-0.1,0.2-0.3,0.2-0.5c0.1-0.6,0.3-1.2,0.7-1.7C1433.4,6219.7,1433.6,6219.7,1433.8,6219.9z"/>
	<path id="Path_4998" d="M1481.2,6208v0.6l-0.6,0l-0.6,0l0,0.6l0,0.6h2.5v1.2h-1.2v2.4l-0.6,0l-0.6,0v1.2h2.5l0-1.9l0-1.9l0.6,0
		l0.6,0l0,0.6l0,0.6h1.3v1.2l0.6,0l0.6,0v-1.1l-0.6,0l-0.6,0v-3.7l0.5,0c0.2,0,0.4,0,0.7-0.1c0.1-0.2,0.1-0.4,0.1-0.6l0-0.5l-0.6,0
		l-0.6,0v1.2h-1.3v-1.2h-2.5L1481.2,6208z M1483.6,6209.3v0.6h-1.2v-1.2l0.4,0C1483.7,6208.6,1483.6,6208.6,1483.6,6209.3
		L1483.6,6209.3z"/>
	<path id="Path_4999" d="M1477.4,6210.5v0.6h1.3v-1.2h-1.3V6210.5z"/>
	<path id="Path_5000" d="M1491.1,6222.8v0.6h-1.3l0,0.6l0,0.6h1.2l0-0.6l0-0.6h1.2l0-0.6l0-0.6l-0.6,0l-0.6,0L1491.1,6222.8z"/>
	<path id="Path_5001" d="M1456.3,6228.9v4.3h8.7v-8.6h-8.7V6228.9z M1463.7,6228.9v3.1h-6.2v-3c0-1.6,0-3,0.1-3.1
		c0,0,1.4-0.1,3.1-0.1h3L1463.7,6228.9z"/>
	<path id="Path_5002" d="M1458.8,6228.9v1.9h3.7l0-1.9l0-1.8l-1.8,0l-1.9,0L1458.8,6228.9z"/>
	<path id="Path_5003" d="M1477.4,6232.6v0.6h1.3v-1.2h-1.3V6232.6z"/>
	<path id="Path_5004" class="st1" d="M1429.6,6236.2c0,0.5,0,1,0,1.5l0,1.4h0.8l0-0.8c0-0.8,0.1-0.8,0.3-0.8s0.2,0,0.3,0.8l0,0.8
		h0.8v-0.9c0-0.7,0-0.9-0.2-1.1c-0.3-0.3-0.7-0.3-1-0.1c-0.2,0.2-0.2,0.1-0.2-0.5v-0.5l-0.4,0
		C1429.8,6236,1429.6,6236.1,1429.6,6236.2z"/>
	<path id="Path_5005" class="st1" d="M1441,6236c0,0-0.2,0.7-0.4,1.6c-0.3,1.3-0.4,1.6-0.2,1.6c0.1,0,0.2,0,0.2,0
		c0.3-1,0.6-2.1,0.7-3.1C1441.3,6236,1441,6236,1441,6236z"/>
	<path id="Path_5006" class="st1" d="M1442.2,6236.1c-0.1,0.1-0.7,2.7-0.7,2.9c0,0.1,0,0.2,0.2,0.2c0.2,0,0.2-0.2,0.5-1.2
		c0.1-0.7,0.3-1.3,0.4-1.5c0.1-0.1,0.1-0.3,0-0.4C1442.5,6236,1442.3,6236,1442.2,6236.1z"/>
	<path id="Path_5007" class="st1" d="M1466,6236.3c0,0.3,0,0.3,0.4,0.3c0.3,0,0.4-0.1,0.4-0.3c0-0.2,0-0.2-0.4-0.3
		C1466,6236,1466,6236.1,1466,6236.3z"/>
	<path id="Path_5008" class="st1" d="M1469.8,6236.1c0,0.1-0.2,0.8-0.4,1.6c-0.3,1.2-0.3,1.5-0.2,1.5c0.1,0,0.2,0,0.2,0
		c0.3-1,0.6-2.1,0.7-3.1C1470,6236,1469.8,6236,1469.8,6236.1z"/>
	<path id="Path_5009" class="st1" d="M1480.9,6236.1c0,0.1,0,0.2,0,0.3c0,0.2,0,0.2,0.5,0.2s0.4,0,0.4-0.3c0-0.2-0.1-0.3-0.4-0.3
		C1481.2,6236.1,1481,6236.1,1480.9,6236.1z"/>
	<path id="Path_5010" class="st1" d="M1485.1,6236.2c0,0.5,0,1,0,1.5l0,1.4h0.8l0-0.7c0-0.7,0.2-1,0.5-0.9c0.1,0,0.2,0.3,0.2,0.8
		l0,0.8h0.8v-0.9c0-0.7,0-0.9-0.2-1.1c-0.3-0.3-0.7-0.3-1-0.1c-0.2,0.2-0.2,0.1-0.2-0.5v-0.5l-0.4,0
		C1485.3,6236,1485.1,6236.1,1485.1,6236.2z"/>
	<path id="Path_5011" class="st1" d="M1432.9,6236.3c-0.2,0.1-0.3,0.3-0.3,0.4c0,0.1-0.1,0.2-0.1,0.2c-0.1,0.1-0.2,0.2-0.1,0.3
		c0,0.1,0.1,0.2,0.1,0.3c0.1,0,0.1,0.2,0.1,0.7c0,0.8,0.1,1,0.7,0.9c0.5,0,0.5,0,0.5-0.3c0-0.2,0-0.2-0.2-0.2
		c-0.2,0-0.2-0.1-0.2-0.5c0-0.5,0-0.5,0.2-0.6c0.3-0.1,0.3-0.5,0-0.5c-0.2,0-0.2-0.1-0.2-0.4
		C1433.4,6236.1,1433.4,6236.1,1432.9,6236.3z"/>
	<path id="Path_5012" class="st1" d="M1434.9,6236.3c-0.2,0.1-0.4,0.3-0.4,0.4c0,0.1-0.1,0.2-0.1,0.2c-0.1,0-0.1,0.1-0.1,0.2
		c0,0.1,0.1,0.2,0.1,0.3c0.1,0.1,0.1,0.3,0.1,0.7c0,0.8,0.2,1,0.8,1c0.3,0,0.5,0,0.5-0.1c0.1-0.1-0.1-0.5-0.2-0.5
		c-0.1,0-0.2-0.2-0.2-0.5c-0.1-0.6,0-0.6,0.2-0.6c0.1,0,0.2-0.1,0.2-0.3c0-0.2,0-0.3-0.2-0.3c-0.2,0-0.2,0-0.2-0.4
		C1435.4,6236.1,1435.4,6236,1434.9,6236.3z"/>
	<path id="Path_5013" class="st1" d="M1488.5,6236.3c-0.2,0.1-0.3,0.3-0.3,0.4c0,0.1-0.1,0.2-0.1,0.2c-0.1,0-0.1,0.1-0.1,0.2
		c0,0.1,0.1,0.2,0.1,0.3c0.1,0.1,0.1,0.3,0.1,0.7c0,0.8,0.1,1,0.7,0.9c0.5,0,0.5,0,0.5-0.3c0-0.2,0-0.2-0.2-0.2
		c-0.2,0-0.2-0.1-0.2-0.5c0-0.5,0-0.5,0.2-0.6c0.3-0.1,0.3-0.5,0-0.5c-0.2,0-0.2-0.1-0.2-0.4
		C1488.9,6236.1,1488.9,6236.1,1488.5,6236.3z"/>
	<path id="Path_5014" class="st1" d="M1436.3,6237c0,0.1,0,0.7,0,1.5l0,1.4h0.3c0.3,0,0.3,0,0.4-0.4l0-0.4l0.5,0
		c0.5,0,0.5,0,0.8-0.3c0.4-0.5,0.4-1.2,0-1.7c-0.3-0.3-0.8-0.4-1.1-0.2c-0.2,0.1-0.2,0.1-0.3,0
		C1436.9,6236.9,1436.4,6236.9,1436.3,6237z M1437.7,6237.6c0.2,0.3,0.2,0.7,0,1c-0.2,0.2-0.2,0.2-0.4,0c-0.2-0.3-0.3-0.7,0-1
		C1437.4,6237.4,1437.4,6237.4,1437.7,6237.6L1437.7,6237.6z"/>
	<path id="Path_5015" class="st1" d="M1439.1,6237c0,0.1,0,0.3,0,0.4c0,0.3,0.1,0.3,0.4,0.3h0.4v-0.4c0-0.4,0-0.4-0.4-0.4
		C1439.3,6236.9,1439.2,6236.9,1439.1,6237z"/>
	<path id="Path_5016" class="st1" d="M1442.7,6237c0.2,0.7,0.4,1.4,0.8,2.1c0.1,0.1,0.3,0.1,0.4,0.1c0.3,0,0.3-0.1,0.5-0.6
		c0.1-0.2,0.1-0.4,0.3-0.6c0.1,0.2,0.2,0.4,0.3,0.6c0.2,0.6,0.2,0.6,0.6,0.6h0.4l0.4-1.1c0.2-0.4,0.3-0.7,0.3-1.1
		c-0.1,0-0.2-0.1-0.3-0.1c-0.3,0-0.4,0.2-0.5,0.8c-0.1,0.6-0.2,0.6-0.4-0.1c-0.2-0.6-0.3-0.7-0.6-0.7s-0.4,0.1-0.6,0.8
		c0,0.2-0.1,0.4-0.2,0.5c-0.1,0-0.3-0.6-0.3-0.9c0-0.1,0-0.2-0.1-0.3C1443.3,6236.9,1442.8,6236.9,1442.7,6237z"/>
	<path id="Path_5017" class="st1" d="M1446.8,6237c0.1,0.4,0.2,0.7,0.3,1.1l0.4,1.1h0.4c0.4,0,0.4,0,0.6-0.6
		c0.1-0.3,0.2-0.6,0.3-0.6c0,0,0.2,0.3,0.3,0.6c0.2,0.6,0.2,0.6,0.6,0.6h0.4l0.4-1c0.1-0.4,0.2-0.7,0.5-1c0.2,0.3,0.3,0.7,0.5,1
		l0.3,1h0.4c0.4,0,0.4,0,0.6-0.6c0.1-0.2,0.1-0.4,0.2-0.6c0.1,0.2,0.2,0.4,0.3,0.6c0.2,0.5,0.2,0.6,0.5,0.6c0.1,0,0.3,0,0.4-0.1
		c0.3-0.7,0.6-1.4,0.8-2.1c-0.1-0.1-0.6-0.1-0.7,0c-0.1,0.2-0.1,0.3-0.2,0.5c-0.1,0.4-0.2,0.7-0.3,0.6c0,0-0.1-0.3-0.2-0.6
		c-0.2-0.6-0.2-0.6-0.6-0.6h-0.4l-0.2,0.6c0,0.2-0.1,0.4-0.3,0.6c-0.1,0-0.1-0.2-0.2-0.4c-0.1-0.8-0.2-0.8-1-0.8
		c-0.3,0-0.6,0-0.8,0.1c-0.1,0.2-0.1,0.4-0.2,0.6c-0.1,0.3-0.1,0.5-0.2,0.5c-0.1,0-0.2-0.2-0.2-0.5c-0.2-0.6-0.3-0.7-0.6-0.7
		c-0.4,0-0.5,0.1-0.6,0.7c-0.1,0.6-0.3,0.6-0.4,0c0-0.2-0.1-0.4-0.2-0.6C1447.3,6236.9,1447,6236.9,1446.8,6237z"/>
	<path id="Path_5018" class="st1" d="M1456.3,6237.2c-0.3,0.3-0.3,0.3-0.3,0.8s0,0.6,0.3,0.8c0.2,0.2,0.5,0.3,0.9,0.3
		c0.3,0,0.5,0,0.8-0.1c0.3-0.1,0.6-0.5,0.5-0.6c-0.3-0.1-0.6-0.1-0.9,0.1c-0.4,0.3-0.8-0.1-0.7-0.7c0.1-0.4,0.4-0.5,0.7-0.3
		c0.3,0.2,0.8,0.2,0.9,0c0-0.1-0.1-0.2-0.2-0.4c-0.2-0.2-0.6-0.3-0.9-0.3C1456.7,6236.9,1456.6,6236.9,1456.3,6237.2z"/>
	<path id="Path_5019" class="st1" d="M1459,6237.1c-0.1,0.1-0.2,0.3-0.2,0.3c0.1,0.2,0.7,0.2,1,0c0.2-0.1,0.3-0.1,0.4,0
		c0.2,0.2,0.1,0.3-0.6,0.4c-0.9,0.2-1.2,0.6-0.7,1.1c0.4,0.2,0.8,0.3,1.2,0.1c0.1-0.1,0.2-0.1,0.3,0c0.1,0.1,0.8,0.1,0.8,0
		c0-0.3,0-0.6,0-0.9c0-0.7,0-0.8-0.2-1c-0.2-0.2-0.3-0.2-0.9-0.2S1459.3,6236.9,1459,6237.1z M1460.2,6238.5
		c-0.3,0.2-0.5,0.2-0.6,0.1c-0.1-0.2,0.5-0.6,0.7-0.4C1460.4,6238.3,1460.3,6238.4,1460.2,6238.5z"/>
	<path id="Path_5020" class="st1" d="M1462.1,6237.1c-0.5,0.4-0.7,1.1-0.3,1.6c0.1,0.1,0.2,0.2,0.3,0.3c0.5,0.3,1.1,0.3,1.6,0
		c0.5-0.5,0.6-1.2,0.1-1.7c0,0-0.1-0.1-0.1-0.1C1463.2,6236.8,1462.6,6236.8,1462.1,6237.1z M1463,6237.5c0.3,0.3,0.3,0.8,0,1.1
		c-0.1,0.1-0.3,0.1-0.4,0c-0.2-0.1-0.3-0.7,0-1C1462.8,6237.4,1462.8,6237.4,1463,6237.5L1463,6237.5z"/>
	<path id="Path_5021" class="st1" d="M1466,6237.1c0,0.4,0,0.7,0,1.1l0,1h0.7v-2.1l-0.3,0C1466.2,6236.9,1466,6237,1466,6237.1z"/>
	<path id="Path_5022" class="st1" d="M1467.4,6237.9v1.1c0,0,0.2,0.1,0.4,0.1h0.4l0-0.6c0-0.6,0.2-1,0.4-0.9
		c0.2,0.1,0.3-0.1,0.3-0.4c0-0.2,0-0.2-0.3-0.2c-0.1,0-0.3,0.1-0.4,0.2c-0.1,0.2-0.1,0.2-0.2,0c-0.1-0.1-0.2-0.2-0.4-0.2h-0.3
		L1467.4,6237.9z"/>
	<path id="Path_5023" class="st1" d="M1470.5,6237c0,0.1,0,0.7,0,1.5l0,1.4h0.3c0.3,0,0.3,0,0.4-0.4l0-0.4l0.5,0
		c0.5,0,0.5,0,0.8-0.3c0.4-0.5,0.4-1.2,0-1.7c-0.3-0.3-0.8-0.4-1.1-0.2c-0.2,0.1-0.2,0.1-0.3,0
		C1471.1,6236.9,1470.5,6236.9,1470.5,6237z M1471.8,6237.6c0.2,0.3,0.2,0.7,0,1c-0.2,0.2-0.2,0.2-0.4,0c-0.2-0.3-0.3-0.6,0-0.9
		C1471.5,6237.4,1471.6,6237.3,1471.8,6237.6L1471.8,6237.6z"/>
	<path id="Path_5024" class="st1" d="M1473.5,6237.1c-0.1,0.1-0.3,0.3-0.3,0.3c0,0.2,0.6,0.2,0.9,0.1c0.3-0.2,0.6-0.1,0.6,0.1
		c0,0.1-0.2,0.2-0.6,0.3c-0.3,0-0.5,0.1-0.8,0.3c-0.2,0.2-0.2,0.6,0,0.8c0.4,0.2,0.8,0.2,1.2,0c0.2-0.1,0.2-0.1,0.3,0
		c0.1,0.1,0.3,0.2,0.4,0.1l0.3,0l0-0.9c0-1.2-0.2-1.3-1.1-1.3C1473.9,6236.9,1473.7,6236.9,1473.5,6237.1z M1474.7,6238.4
		c-0.2,0.2-0.4,0.3-0.7,0.2c-0.1-0.1,0.1-0.4,0.3-0.4C1474.7,6238.1,1474.8,6238.2,1474.7,6238.4L1474.7,6238.4z"/>
	<path id="Path_5025" class="st1" d="M1476,6237c0,0,0.1,0.3,0.3,0.5c0.1,0.2,0.3,0.3,0.3,0.5c-0.1,0.2-0.2,0.4-0.3,0.6
		c-0.1,0.2-0.2,0.3-0.3,0.5c0,0,0.2,0.1,0.4,0c0.3,0,0.5-0.1,0.6-0.3c0.1-0.1,0.2-0.2,0.3-0.3c0,0,0.1,0.2,0.3,0.3
		c0.2,0.3,0.2,0.3,0.6,0.3c0.2,0,0.4,0,0.4-0.1c-0.1-0.2-0.2-0.4-0.4-0.6l-0.4-0.5l0.4-0.5c0.2-0.3,0.4-0.5,0.3-0.5
		c-0.1-0.1-0.3-0.1-0.4-0.1c-0.2,0-0.5,0.1-0.6,0.3c-0.1,0.1-0.2,0.2-0.3,0.3c-0.1-0.1-0.2-0.2-0.2-0.3c-0.1-0.3-0.2-0.3-0.5-0.3
		C1476.3,6236.9,1476.2,6236.9,1476,6237z"/>
	<path id="Path_5026" class="st1" d="M1479,6237c0,0.4,0,0.7,0,1.1l0,1h0.7l0.1-0.7c0.1-0.7,0.2-1,0.5-0.9c0.1,0.1,0.5-0.4,0.4-0.5
		c-0.1-0.1-0.6-0.1-0.7,0c-0.1,0.1-0.1,0.1-0.2,0C1479.6,6236.9,1479.1,6236.9,1479,6237z"/>
	<path id="Path_5027" class="st1" d="M1480.9,6237c0,0.4,0,0.7,0,1.1l0,1h0.8v-2.2l-0.4,0C1481.1,6236.9,1480.9,6237,1480.9,6237z"
		/>
	<path id="Path_5028" class="st1" d="M1482.4,6237.2c-0.4,0.5-0.3,1.3,0.2,1.7c0,0,0.1,0.1,0.1,0.1c0.3,0.1,0.6,0.1,0.8,0
		c0.1-0.1,0.2,0,0.1,0.1c0,0.2-0.2,0.4-0.4,0.4c-0.1,0-0.1,0-0.2-0.1c-0.2-0.1-0.4-0.1-0.5-0.1c-0.3,0-0.3,0-0.3,0.2
		c0,0.3,0.5,0.5,1.2,0.5c0.5,0,0.6,0,0.9-0.3c0.2-0.3,0.3-0.3,0.3-1.5c0-1.3,0-1.3-0.2-1.3c-0.2,0-0.3,0-0.5,0.1
		c-0.2,0.1-0.3,0.1-0.3,0c-0.1-0.1-0.3-0.1-0.5-0.1C1482.8,6236.9,1482.5,6237,1482.4,6237.2z M1483.5,6237.5c0.2,0.2,0.3,0.6,0,0.9
		c-0.4,0.3-0.8-0.3-0.5-0.7C1483.3,6237.4,1483.3,6237.4,1483.5,6237.5L1483.5,6237.5z"/>
	<path id="Path_5029" class="st1" d="M1490,6237.1c-0.5,0.5-0.2,1,0.6,1.1c0.5,0.1,0.8,0.3,0.7,0.4c-0.1,0.2-0.5,0.1-0.6,0
		c-0.2-0.2-0.6-0.2-0.8,0c-0.1,0.1,0,0.2,0.2,0.3c0.3,0.2,0.6,0.3,0.9,0.2c0.6,0,0.7,0,0.9-0.3c0.1-0.1,0.2-0.3,0.3-0.4
		c0-0.3-0.4-0.6-0.9-0.7c-0.2,0-0.4-0.1-0.6-0.2c-0.1-0.2,0.3-0.3,0.5-0.1s0.8,0.2,0.9,0c0,0-0.1-0.2-0.2-0.3
		C1491.2,6236.8,1490.6,6236.8,1490,6237.1z"/>
	<path id="Path_5030" class="st1" d="M1439.2,6238.3c-0.1,0.1-0.1,0.3-0.1,0.5v0.4l0.4,0c0.4,0,0.4,0,0.4-0.4s0-0.4-0.3-0.4
		C1439.5,6238.3,1439.3,6238.3,1439.2,6238.3z"/>
	<path id="Path_5031" class="st1" d="M1454.6,6238.4c0,0.1,0,0.3,0,0.4c0,0.3,0.1,0.3,0.5,0.3c0.2,0,0.4,0,0.4-0.1v-0.4
		c0-0.3,0-0.3-0.4-0.3C1454.8,6238.3,1454.6,6238.3,1454.6,6238.4z"/>
	<path id="Path_5032" class="st1" d="M1464.5,6238.3c0,0,0,0.2,0,0.4l0,0.4h0.9v-0.4c0-0.4,0-0.4-0.4-0.4
		C1464.8,6238.3,1464.6,6238.3,1464.5,6238.3z"/>
</g>
</svg>
