<?xml version="1.0" encoding="utf-8"?>
<!-- Generator: Adobe Illustrator 23.0.1, SVG Export Plug-In . SVG Version: 6.00 Build 0)  -->
<svg version="1.1" id="Layer_1" xmlns="http://www.w3.org/2000/svg" xmlns:xlink="http://www.w3.org/1999/xlink" x="0px" y="0px"
	 viewBox="0 0 32 32" style="enable-background:new 0 0 32 32;" xml:space="preserve">
<style type="text/css">
	.st0{fill:#FFFFFF;}
</style>
<g id="ft-facebook--icon" transform="translate(-1489 -5692)">
	<g id="facebook-logo-button" transform="translate(1489 5692)">
		<g id="Group_2820">
			<path id="Path_4971" class="st0" d="M16,0C7.2,0,0,7.2,0,16s7.2,16,16,16s16-7.2,16-16C32,7.2,24.8,0,16,0z M20,16.6h-2.6v9.3
				h-3.9v-9.3h-1.8v-3.3h1.8v-2.1c-0.2-2,1.3-3.7,3.3-3.9c0.2,0,0.4,0,0.6,0l2.9,0v3.2h-2.1c-0.4,0-0.8,0.3-0.8,0.7c0,0,0,0.1,0,0.1
				v1.9h2.9L20,16.6z"/>
		</g>
	</g>
</g>
</svg>
