<?xml version="1.0" encoding="utf-8"?>
<!-- Generator: Adobe Illustrator 23.0.1, SVG Export Plug-In . SVG Version: 6.00 Build 0)  -->
<svg version="1.1" id="Layer_1" xmlns="http://www.w3.org/2000/svg" xmlns:xlink="http://www.w3.org/1999/xlink" x="0px" y="0px"
	 viewBox="0 0 32 32" style="enable-background:new 0 0 32 32;" xml:space="preserve">
<style type="text/css">
	.st0{fill:#FFFFFF;}
</style>
<g id="ft-instagram--icon" transform="translate(-1589 -5692)">
	<g id="instagram-logo" transform="translate(1589 5692)">
		<g id="Group_2823">
			<g id="Group_2822">
				<path id="Path_4973" class="st0" d="M16,19c1.6,0,3-1.3,3-3c0-1.6-1.3-3-3-3c-1.6,0-3,1.3-3,3C13,17.6,14.4,19,16,19z"/>
				<path id="Path_4974" class="st0" d="M22.9,11.9V9.1h-0.4l-2.5,0l0,2.9L22.9,11.9z"/>
				<path id="Path_4975" class="st0" d="M16,0C7.2,0,0,7.2,0,16s7.2,16,16,16s16-7.2,16-16C32,7.2,24.8,0,16,0z M25.1,14.1v7.4
					c0,1.9-1.6,3.5-3.5,3.5H10.4c-1.9,0-3.5-1.6-3.5-3.5V10.4c0-1.9,1.6-3.5,3.5-3.5h11.2c1.9,0,3.5,1.6,3.5,3.5V14.1z"/>
				<path id="Path_4976" class="st0" d="M20.6,16.3c0,2.5-2.1,4.6-4.6,4.6s-4.6-2.1-4.6-4.6c0-0.6,0.1-1.2,0.3-1.7H9.2v6.9
					c0,0.9,0.7,1.6,1.6,1.6h10.3c0.9,0,1.6-0.7,1.6-1.6v-6.9h-2.5C20.5,15.1,20.6,15.7,20.6,16.3z"/>
			</g>
		</g>
	</g>
</g>
</svg>
