<?xml version="1.0" encoding="utf-8"?>
<!-- Generator: Adobe Illustrator 23.0.1, SVG Export Plug-In . SVG Version: 6.00 Build 0)  -->
<svg version="1.1" id="Layer_1" xmlns="http://www.w3.org/2000/svg" xmlns:xlink="http://www.w3.org/1999/xlink" x="0px" y="0px"
	 viewBox="0 0 32 32" style="enable-background:new 0 0 32 32;" xml:space="preserve">
<style type="text/css">
	.st0{fill:#FFFFFF;}
</style>
<g id="ft-twitter--icon" transform="translate(-1542 -5692)">
	<g id="twitter-logo-button" transform="translate(1542 5692)">
		<g id="Group_2821">
			<path id="Path_4972" class="st0" d="M16,0C7.2,0,0,7.2,0,16s7.2,16,16,16s16-7.2,16-16C32,7.2,24.8,0,16,0z M23.1,12.3
				c0,0.2,0,0.3,0,0.5c0,5.8-4.7,10.5-10.5,10.5c-2,0-4-0.6-5.6-1.7c1.9,0.2,3.9-0.3,5.5-1.5c-1.6,0-3-1.1-3.4-2.6
				c0.6,0.1,1.1,0.1,1.7-0.1c-1.7-0.3-3-1.9-3-3.6c0,0,0,0,0,0c0.5,0.3,1.1,0.4,1.7,0.5c-1.6-1.1-2.1-3.2-1.1-4.9
				c1.9,2.3,4.6,3.7,7.6,3.8c-0.5-2,0.8-4,2.8-4.4c1.3-0.3,2.6,0.1,3.5,1.1C23,9.7,23.8,9.4,24.5,9c-0.3,0.9-0.9,1.6-1.6,2
				c0.7-0.1,1.4-0.3,2.1-0.6C24.5,11.2,23.9,11.8,23.1,12.3z"/>
		</g>
	</g>
</g>
</svg>
