<?xml version="1.0" encoding="utf-8"?>
<!-- Generator: Adobe Illustrator 23.0.1, SVG Export Plug-In . SVG Version: 6.00 Build 0)  -->
<svg version="1.1" id="Layer_1" xmlns="http://www.w3.org/2000/svg" xmlns:xlink="http://www.w3.org/1999/xlink" x="0px" y="0px"
	 viewBox="0 0 48 48" style="enable-background:new 0 0 48 48;" xml:space="preserve">
<style type="text/css">
	.st0{fill:#7A7A7A;}
</style>
<g id="gallery-icon" transform="translate(-398 -3681)">
	<g id="image" transform="translate(404.162 3689.618)">
		<path id="Path_1643" class="st0" d="M15.8,14c1.9,0,3.5-1.6,3.5-3.5S17.8,7,15.8,7s-3.5,1.6-3.5,3.5S13.9,14,15.8,14z M15.8,9.1
			c0.8,0,1.4,0.6,1.4,1.4S16.7,12,15.9,12s-1.4-0.6-1.4-1.4c0,0,0,0,0,0C14.4,9.7,15.1,9.1,15.8,9.1L15.8,9.1z"/>
		<path id="Path_1644" class="st0" d="M33.7,0.5H1.3C0.6,0.5,0,1.1,0,1.8v27.5c0,0.7,0.6,1.3,1.3,1.3h32.4c0.7,0,1.3-0.6,1.3-1.3
			V1.8C35,1.1,34.4,0.5,33.7,0.5z M32.9,2.5v16.2l-6.4-6.4c-0.4-0.4-1.1-0.4-1.5,0l-9.1,9.1L10,15.6c-0.4-0.4-1.1-0.4-1.5,0
			c0,0,0,0,0,0l-6.5,6.4V2.5H32.9z M2.1,28.5V25l7.2-7.2l5.8,5.8c0.4,0.4,1.1,0.4,1.5,0c0,0,0,0,0,0l9.1-9.1l7.2,7.2v6.8H2.1z"/>
	</g>
</g>
</svg>
