<?xml version="1.0" encoding="utf-8"?>
<!-- Generator: Adobe Illustrator 23.0.1, SVG Export Plug-In . SVG Version: 6.00 Build 0)  -->
<svg version="1.1" id="Layer_1" xmlns="http://www.w3.org/2000/svg" xmlns:xlink="http://www.w3.org/1999/xlink" x="0px" y="0px"
	 viewBox="0 0 16 16" style="enable-background:new 0 0 16 16;" xml:space="preserve">
<style type="text/css">
	.st0{fill:#707070;}
</style>
<g id="location-icon" transform="translate(-203 -173)">
	<path id="Path_1504" class="st0" d="M211,189l4.8-6.2l0,0c0.8-1.1,1.2-2.3,1.2-3.7c0-3.3-2.7-6.1-6-6.1c-3.4,0.1-6.1,2.8-6,6.2
		c0,1.3,0.4,2.5,1.2,3.5L211,189z M211,174.9c2.3,0,4.2,1.9,4.2,4.2c0,2.3-1.9,4.2-4.2,4.2s-4.2-1.9-4.2-4.2
		C206.8,176.8,208.7,174.9,211,174.9z"/>
</g>
</svg>
