<?xml version="1.0" encoding="UTF-8"?>
<svg width="150px" height="48px" viewBox="0 0 150 48" version="1.1" xmlns="http://www.w3.org/2000/svg" xmlns:xlink="http://www.w3.org/1999/xlink">
    <!-- Generator: Sketch 52.5 (67469) - http://www.bohemiancoding.com/sketch -->
    <title>Artboard</title>
    <desc>Created with Sketch.</desc>
    <g id="Artboard" stroke="none" stroke-width="1" fill="none" fill-rule="evenodd">
        <circle id="Ellipse_199" fill="#000000" cx="122.47" cy="23.47" r="14.47"></circle>
        <path d="M87.49,27.09 L88.07,27.09 C89.1166719,27.09 89.6300001,26.4866727 89.61,25.28 C89.61,25.2199997 89.6000001,25.0633346 89.58,24.81 C89.5599999,24.5566654 89.5316669,24.235002 89.495,23.845 C89.4583332,23.4549981 89.4183336,23.0133358 89.375,22.52 C89.3316665,22.0266642 89.2850002,21.5100027 89.235,20.97 C89.1849998,20.4299973 89.1333336,19.8816695 89.08,19.325 C89.0266664,18.7683305 88.9766669,18.2333359 88.93,17.72 C88.8833331,17.2066641 88.8383336,16.7300022 88.795,16.29 C88.7516665,15.8499978 88.7166668,15.4733349 88.69,15.16 L92.57,14.19 C92.5900001,14.4033344 92.6199998,14.7799973 92.66,15.32 C92.7000002,15.8600027 92.7466664,16.5883287 92.8,17.505 C92.8533336,18.4216712 92.9116664,19.54166 92.975,20.865 C93.0383336,22.1883399 93.103333,23.7366578 93.17,25.51 C93.17,25.5633336 93.1716667,25.6116665 93.175,25.655 C93.1783334,25.6983336 93.18,25.7466664 93.18,25.8 C93.18,26.5733372 93.0733344,27.2816634 92.86,27.925 C92.6466656,28.5683366 92.3283354,29.1216643 91.905,29.585 C91.4816646,30.0483357 90.9500032,30.4083321 90.31,30.665 C89.6699968,30.921668 88.9233376,31.05 88.07,31.05 L87.49,31.05 L87.49,27.09 Z M77.05,34.23 C77.8700041,34.0566658 78.6299965,33.8533345 79.33,33.62 C80.0300035,33.3866655 80.6583306,33.1333347 81.215,32.86 C81.7716695,32.5866653 82.2483314,32.2966682 82.645,31.99 C83.0416687,31.6833318 83.3466656,31.3700016 83.56,31.05 C83.4599995,31.05 83.3500006,31.0483334 83.23,31.045 C83.1099994,31.0416666 82.9916673,31.0366667 82.875,31.03 C82.7583328,31.0233333 82.6483339,31.0183334 82.545,31.015 C82.4416662,31.0116666 82.356667,31.0066667 82.29,31 C81.5766631,30.9399997 80.9300029,30.8033344 80.35,30.59 C79.7699971,30.3766656 79.2733354,30.0816685 78.86,29.705 C78.4466646,29.3283315 78.1266678,28.8700027 77.9,28.33 C77.6733322,27.7899973 77.56,27.1666702 77.56,26.46 C77.56,26.0266645 77.6149994,25.5800023 77.725,25.12 C77.8350006,24.6599977 77.989999,24.2100022 78.19,23.77 C78.390001,23.3299978 78.628332,22.9166686 78.905,22.53 C79.181668,22.1433314 79.486665,21.8033348 79.82,21.51 C80.153335,21.2166652 80.5083315,20.9850009 80.885,20.815 C81.2616685,20.6449992 81.649998,20.56 82.05,20.56 C82.5300024,20.56 82.9833312,20.6499991 83.41,20.83 C83.8366688,21.0100009 84.2316649,21.2549984 84.595,21.565 C84.9583351,21.8750016 85.2883318,22.2416645 85.585,22.665 C85.8816681,23.0883354 86.1433322,23.5416643 86.37,24.025 C86.5966678,24.5083358 86.7866659,25.0116641 86.94,25.535 C87.0933341,26.058336 87.2099996,26.5766641 87.29,27.09 L87.89,27.09 L87.89,31.05 L87.06,31.05 C86.7799986,32.0033381 86.3466696,32.8633295 85.76,33.63 C85.1733304,34.3966705 84.480004,35.0716637 83.68,35.655 C82.879996,36.2383363 81.9933382,36.729998 81.02,37.13 C80.0466618,37.530002 79.0333386,37.8433322 77.98,38.07 L77.05,34.23 Z M81.98,24.34 C81.7866657,24.34 81.6066675,24.4033327 81.44,24.53 C81.2733325,24.6566673 81.1283339,24.8149991 81.005,25.005 C80.8816661,25.195001 80.7850004,25.3983322 80.715,25.615 C80.6449997,25.8316678 80.61,26.0333324 80.61,26.22 C80.61,26.3466673 80.6683328,26.4566662 80.785,26.55 C80.9016673,26.6433338 81.0566657,26.7216663 81.25,26.785 C81.4433343,26.8483337 81.6633321,26.8999998 81.91,26.94 C82.1566679,26.9800002 82.408332,27.0099999 82.665,27.03 C82.9216679,27.0500001 83.1716655,27.0633333 83.415,27.07 C83.6583346,27.0766667 83.8766657,27.08 84.07,27.08 C84.0366665,26.7733318 83.9616673,26.4566683 83.845,26.13 C83.7283328,25.8033317 83.5783342,25.5083347 83.395,25.245 C83.2116657,24.9816654 83.0000012,24.7650009 82.76,24.595 C82.5199988,24.4249992 82.2600014,24.34 81.98,24.34 Z M66.43,27.09 L67.32,27.09 C67.6333349,27.09 67.9549983,27.0883333 68.285,27.085 C68.6150016,27.0816666 68.9349984,27.0650001 69.245,27.035 C69.5550016,27.0049999 69.848332,26.961667 70.125,26.905 C70.401668,26.8483331 70.6433323,26.7650005 70.85,26.655 C71.0566677,26.5449995 71.2199994,26.4066675 71.34,26.24 C71.4600006,26.0733325 71.52,25.8666679 71.52,25.62 C71.52,25.3666654 71.4583339,25.101668 71.335,24.825 C71.2116661,24.548332 71.0400011,24.2600015 70.82,23.96 C70.5999989,23.6599985 70.3416682,23.3533349 70.045,23.04 C69.7483318,22.7266651 69.4266684,22.4066683 69.08,22.08 C68.7333316,21.7533317 68.3716685,21.4216684 67.995,21.085 C67.6183314,20.7483317 67.2400019,20.4066684 66.86,20.06 L67.22,16.84 L75.63,13.13 L77.17,16.54 L71.16,19.33 C71.6333357,19.7166686 72.098331,20.1566642 72.555,20.65 C73.011669,21.1433358 73.4183316,21.6699972 73.775,22.23 C74.1316685,22.7900028 74.4199989,23.3683304 74.64,23.965 C74.8600011,24.5616696 74.97,25.159997 74.97,25.76 C74.97,26.5933375 74.8300014,27.3366634 74.55,27.99 C74.2699986,28.6433366 73.8850025,29.1966644 73.395,29.65 C72.9049976,30.1033356 72.32667,30.4499988 71.66,30.69 C70.99333,30.9300012 70.2733372,31.05 69.5,31.05 L66.43,31.05 L66.43,27.09 Z M67.17,14.19 L74.82,11 L75.37,12.19 L67.09,15.69 L67.17,14.19 Z M56,34.23 C56.8200041,34.0566658 57.5799965,33.8533345 58.28,33.62 C58.9800035,33.3866655 59.6083305,33.1333347 60.165,32.86 C60.7216694,32.5866653 61.1983314,32.2966682 61.595,31.99 C61.9916686,31.6833318 62.2966656,31.3700016 62.51,31.05 C62.4099995,31.05 62.3000006,31.0483334 62.18,31.045 C62.0599994,31.0416666 61.9416672,31.0366667 61.825,31.03 C61.7083327,31.0233333 61.5983338,31.0183334 61.495,31.015 C61.3916661,31.0116666 61.306667,31.0066667 61.24,31 C60.5266631,30.9399997 59.8800029,30.8033344 59.3,30.59 C58.7199971,30.3766656 58.2233354,30.0816685 57.81,29.705 C57.3966646,29.3283315 57.0766678,28.8700027 56.85,28.33 C56.6233322,27.7899973 56.51,27.1666702 56.51,26.46 C56.51,26.0266645 56.5649995,25.5800023 56.675,25.12 C56.7850005,24.6599977 56.939999,24.2100022 57.14,23.77 C57.340001,23.3299978 57.5783319,22.9166686 57.855,22.53 C58.1316681,22.1433314 58.436665,21.8033348 58.77,21.51 C59.103335,21.2166652 59.4583315,20.9850009 59.835,20.815 C60.2116685,20.6449992 60.599998,20.56 61,20.56 C61.4800024,20.56 61.9333312,20.6499991 62.36,20.83 C62.7866688,21.0100009 63.1816649,21.2549984 63.545,21.565 C63.9083351,21.8750016 64.2383318,22.2416645 64.535,22.665 C64.8316681,23.0883354 65.0933322,23.5416643 65.32,24.025 C65.5466678,24.5083358 65.7366659,25.0116641 65.89,25.535 C66.0433341,26.058336 66.1599996,26.5766641 66.24,27.09 L66.84,27.09 L66.84,31.05 L66.01,31.05 C65.7299986,32.0033381 65.2966696,32.8633295 64.71,33.63 C64.1233304,34.3966705 63.430004,35.0716637 62.63,35.655 C61.829996,36.2383363 60.9433382,36.729998 59.97,37.13 C58.9966618,37.530002 57.9833386,37.8433322 56.93,38.07 L56,34.23 Z M60.93,24.34 C60.7366657,24.34 60.5566675,24.4033327 60.39,24.53 C60.2233325,24.6566673 60.078334,24.8149991 59.955,25.005 C59.831666,25.195001 59.7350003,25.3983322 59.665,25.615 C59.5949996,25.8316678 59.56,26.0333324 59.56,26.22 C59.56,26.3466673 59.6183327,26.4566662 59.735,26.55 C59.8516672,26.6433338 60.0066657,26.7216663 60.2,26.785 C60.3933343,26.8483337 60.6133321,26.8999998 60.86,26.94 C61.1066679,26.9800002 61.3583321,27.0099999 61.615,27.03 C61.871668,27.0500001 62.1216654,27.0633333 62.365,27.07 C62.6083345,27.0766667 62.8266657,27.08 63.02,27.08 C62.9866665,26.7733318 62.9116672,26.4566683 62.795,26.13 C62.6783327,25.8033317 62.5283343,25.5083347 62.345,25.245 C62.1616657,24.9816654 61.9500012,24.7650009 61.71,24.595 C61.4699988,24.4249992 61.2100014,24.34 60.93,24.34 Z" id="لوگو" fill="#000000"></path>
    </g>
</svg>