<?xml version="1.0" encoding="utf-8"?>
<!-- Generator: Adobe Illustrator 23.0.1, SVG Export Plug-In . SVG Version: 6.00 Build 0)  -->
<svg version="1.1" id="Layer_1" xmlns="http://www.w3.org/2000/svg" xmlns:xlink="http://www.w3.org/1999/xlink" x="0px" y="0px"
	 viewBox="0 0 16 16" style="enable-background:new 0 0 16 16;" xml:space="preserve">
<style type="text/css">
	.st0{fill:#707070;}
</style>
<g id="passenger-icon" transform="translate(-43 -172)">
	<path id="Path_1490" class="st0" d="M56.7,182.3c-0.9-0.9-1.9-1.5-3-1.9c2.1-1.4,2.6-4.3,1.2-6.4c-1.4-2.1-4.3-2.6-6.4-1.2
		s-2.6,4.3-1.2,6.4c0.3,0.5,0.7,0.9,1.2,1.2c-3.2,1.1-5.4,4.2-5.4,7.6h1.3c0-3.7,3-6.8,6.8-6.8s6.8,3,6.8,6.8H59
		C59,185.9,58.2,183.8,56.7,182.3z M51,180c-1.9,0-3.4-1.5-3.4-3.4s1.5-3.4,3.4-3.4s3.4,1.5,3.4,3.4C54.4,178.5,52.9,180,51,180z"/>
</g>
</svg>
