<?xml version="1.0" encoding="utf-8"?>
<!-- Generator: Adobe Illustrator 23.0.1, SVG Export Plug-In . SVG Version: 6.00 Build 0)  -->
<svg version="1.1" id="Layer_1" xmlns="http://www.w3.org/2000/svg" xmlns:xlink="http://www.w3.org/1999/xlink" x="0px" y="0px"
	 viewBox="0 0 16 16" style="enable-background:new 0 0 16 16;" xml:space="preserve">
<style type="text/css">
	.st0{fill:#FFB35B;}
</style>
<g id="passenger-icon--orange" transform="translate(18870 9224)">
	<path id="Path_4829" class="st0" d="M-18856.3-9213.7c-0.9-0.9-1.9-1.5-3-1.9c2.1-1.4,2.6-4.3,1.2-6.4c-1.4-2.1-4.3-2.6-6.4-1.2
		s-2.6,4.3-1.2,6.4c0.3,0.5,0.7,0.9,1.2,1.2c-3.2,1.1-5.4,4.2-5.4,7.6h1.3c0-3.7,3-6.8,6.8-6.8s6.8,3,6.8,6.8h1.3
		C-18854-9210.1-18854.8-9212.2-18856.3-9213.7z M-18862-9216c-1.9,0-3.4-1.5-3.4-3.4s1.5-3.4,3.4-3.4s3.4,1.5,3.4,3.4
		C-18858.6-9217.5-18860.1-9216-18862-9216z"/>
</g>
</svg>
