<?xml version="1.0" encoding="utf-8"?>
<!-- Generator: Adobe Illustrator 23.0.1, SVG Export Plug-In . SVG Version: 6.00 Build 0)  -->
<svg version="1.1" id="Layer_1" xmlns="http://www.w3.org/2000/svg" xmlns:xlink="http://www.w3.org/1999/xlink" x="0px" y="0px"
	 viewBox="0 0 16 16" style="enable-background:new 0 0 16 16;" xml:space="preserve">
<style type="text/css">
	.st0{fill:#575757;}
</style>
<g id="credit-icon" transform="translate(-834 -210)">
	<g id="wallet" transform="translate(836 177.45)">
		<path id="Path_4970-2" class="st0" d="M12.2,39.4h-0.3v-1.9c0-0.8-0.6-1.4-1.4-1.4h-0.3v-0.7c0-0.5-0.4-0.9-0.9-0.9H1.1
			C0.5,34.5,0,35,0,35.7v9.1c0,0.5,0.4,0.9,0.9,0.9h9.6c0.8,0,1.4-0.6,1.4-1.4v-1.9h0.3c0.4,0,0.7-0.3,0.7-0.7v-1.6
			C13,39.7,12.6,39.4,12.2,39.4z M1.1,35.2h8.2c0.2,0,0.3,0.1,0.3,0.3v0.7H1.1c-0.3,0-0.5-0.2-0.5-0.5C0.6,35.4,0.9,35.2,1.1,35.2
			L1.1,35.2z M11.3,44.3c0,0.4-0.3,0.7-0.7,0.7H0.9c-0.2,0-0.3-0.1-0.3-0.3v-8.1c0.2,0.1,0.3,0.1,0.5,0.1h9.4c0.4,0,0.7,0.3,0.7,0.7
			v1.9H9.1c-0.4,0-0.7,0.3-0.7,0.7v1.6c0,0.4,0.3,0.7,0.7,0.7h2.2V44.3z M12.3,41.7C12.3,41.8,12.3,41.8,12.3,41.7
			C12.2,41.8,12.2,41.8,12.3,41.7l-3.2,0.1c0,0-0.1,0-0.1-0.1c0,0,0,0,0,0v-1.6c0,0,0-0.1,0.1-0.1h3.1c0,0,0.1,0,0.1,0.1L12.3,41.7
			L12.3,41.7z"/>
	</g>
</g>
</svg>
