<?xml version="1.0" encoding="utf-8"?>
<!-- Generator: Adobe Illustrator 23.0.1, SVG Export Plug-In . SVG Version: 6.00 Build 0)  -->
<svg version="1.1" id="Layer_1" xmlns="http://www.w3.org/2000/svg" xmlns:xlink="http://www.w3.org/1999/xlink" x="0px" y="0px"
	 viewBox="0 0 32 32" style="enable-background:new 0 0 32 32;" xml:space="preserve">
<style type="text/css">
	.st0{fill:#FFFFFF;}
</style>
<g id="sb-bus" transform="translate(-472.334 -88)">
	<g id="Group_1" transform="translate(473.667 98.667)">
		<path id="Path_1424" class="st0" d="M26,0H2.8C2,0,1.4,0.6,1.4,1.4V11h2.8c0.1,0.6,0.4,1.1,0.9,1.4l-5.1,0v0.9l11,0v-0.9l-3.2,0
			c0.5-0.3,0.8-0.8,0.9-1.4h11.6c0.1,0.6,0.4,1,0.9,1.4h-6.4v0.9h11.9v-0.9h-2.8c0.5-0.3,0.8-0.8,0.9-1.4H28V4L26,0z M6,0.9h2.8v3.2
			H6C6,4.1,6,0.9,6,0.9z M2.3,1.4c0-0.3,0.2-0.5,0.5-0.5h2.3v3.2H2.3L2.3,1.4z M6.4,11.9c-0.8,0-1.4-0.6-1.4-1.4
			c0-0.8,0.6-1.4,1.4-1.4c0.8,0,1.4,0.6,1.4,1.4C7.8,11.3,7.2,11.9,6.4,11.9z M12.4,10.1H8.7c0,0,0,0,0,0c0-0.1-0.1-0.3-0.1-0.4
			c0,0,0-0.1-0.1-0.1c0-0.1-0.1-0.2-0.1-0.2c0,0-0.1-0.1-0.1-0.1C8.2,9.1,8.2,9,8.1,9c0,0-0.1-0.1-0.1-0.1C7.9,8.8,7.9,8.8,7.8,8.7
			c0,0-0.1-0.1-0.1-0.1c-0.1,0-0.1-0.1-0.2-0.1c0,0-0.1,0-0.1-0.1C7.2,8.4,7.1,8.4,7,8.3c0,0-0.1,0-0.1,0C6.6,8.2,6.3,8.2,6,8.3
			c0,0-0.1,0-0.1,0c-0.1,0-0.2,0.1-0.3,0.1c-0.1,0-0.1,0-0.1,0.1c-0.1,0-0.2,0.1-0.2,0.1c0,0-0.1,0.1-0.1,0.1C5,8.8,4.9,8.8,4.9,8.9
			c0,0-0.1,0.1-0.1,0.1C4.7,9.1,4.6,9.1,4.6,9.2c0,0-0.1,0.1-0.1,0.1c0,0.1-0.1,0.2-0.1,0.2c0,0,0,0.1-0.1,0.1
			c-0.1,0.1-0.1,0.3-0.1,0.4c0,0,0,0,0,0H2.3V6.9h1.4V6H2.3V5h10.1V10.1z M12.4,4.1H9.6V0.9h2.8L12.4,4.1z M14.2,10.1h-0.9V0.9h0.9
			V10.1z M16.1,4.1v6h-0.9V0.9h0.9V4.1z M24.3,0.9h1.1L27,4.1h-2.7L24.3,0.9z M20.7,0.9h2.7v3.2h-2.7L20.7,0.9z M17,0.9h2.8v3.2H17
			L17,0.9z M22.5,11.9c-0.8,0-1.4-0.6-1.4-1.4c0-0.8,0.6-1.4,1.4-1.4s1.4,0.6,1.4,1.4C23.9,11.3,23.2,11.9,22.5,11.9L22.5,11.9z
			 M27.1,10.1h-2.3c0,0,0,0,0,0c0-0.1-0.1-0.3-0.1-0.4c0,0,0-0.1-0.1-0.1c0-0.1-0.1-0.2-0.1-0.2c0,0-0.1-0.1-0.1-0.1
			C24.3,9.1,24.2,9,24.2,9c0,0-0.1-0.1-0.1-0.1c-0.1-0.1-0.1-0.1-0.2-0.2c0,0-0.1-0.1-0.1-0.1c-0.1,0-0.1-0.1-0.2-0.1
			c0,0-0.1,0-0.1-0.1c-0.1,0-0.2-0.1-0.3-0.1c0,0-0.1,0-0.1,0c-0.1,0-0.3,0-0.4,0c-0.7,0-1.3,0.3-1.7,0.8c0,0,0,0,0,0.1
			c-0.1,0.1-0.1,0.2-0.2,0.3l0,0c-0.1,0.1-0.1,0.2-0.1,0.3l0,0.1c0,0.1-0.1,0.2-0.1,0.3v0H17V5h6.4v2.5L25,9.2h2L27.1,10.1z
			 M27.1,8.3h-1.6l-1.1-1.1V5.1h1.4v1.8h1.4L27.1,8.3z M27.1,6h-0.5V5h0.5V6z"/>
		<rect id="Rectangle_1583" x="11.9" y="12.4" class="st0" width="1.8" height="0.9"/>
		<rect id="Rectangle_1584" x="27.5" y="12.4" class="st0" width="1.8" height="0.9"/>
		<rect id="Rectangle_1585" x="6" y="10.1" class="st0" width="0.9" height="0.9"/>
		<rect id="Rectangle_1586" x="22" y="10.1" class="st0" width="0.9" height="0.9"/>
	</g>
</g>
</svg>
