<?xml version="1.0" encoding="utf-8"?>
<!-- Generator: Adobe Illustrator 23.0.1, SVG Export Plug-In . SVG Version: 6.00 Build 0)  -->
<svg version="1.1" id="Layer_1" xmlns="http://www.w3.org/2000/svg" xmlns:xlink="http://www.w3.org/1999/xlink" x="0px" y="0px"
	 viewBox="0 0 32 32" style="enable-background:new 0 0 32 32;" xml:space="preserve">
<style type="text/css">
	.st0{fill:#FFFFFF;}
</style>
<g id="sb-hotel" transform="translate(-588.334 -88)">
	<g id="Group_4" transform="translate(593.667 94.02)">
		<path id="Path_1448" class="st0" d="M20.5,8.8v-5c0-2.1-1.7-3.8-3.8-3.8h-4c-0.2,0-0.4,0.2-0.4,0.4c0,0.2,0.2,0.4,0.4,0.4h4
			c1.6,0,3,1.3,3,3v4.5c-0.3-0.1-0.7-0.2-1-0.2h-0.1V5.7c0-0.9-0.7-1.6-1.7-1.6h-4.8c-0.5,0-0.9,0.2-1.2,0.5
			c-0.3-0.3-0.8-0.5-1.2-0.5H4.9C4,4.1,3.2,4.8,3.2,5.7v2.4H3.2c-0.3,0-0.7,0.1-1,0.2V3.8c0-1.6,1.3-3,3-3h4.1
			c0.2,0,0.4-0.2,0.4-0.4C9.6,0.2,9.5,0,9.2,0H5.1C3,0,1.3,1.7,1.3,3.8v5C0.5,9.4,0,10.3,0,11.3v5.5c0,0.2,0.2,0.4,0.4,0.4h0.9v1.9
			c0,0.2,0.2,0.4,0.4,0.4H4c0.2,0,0.4-0.2,0.4-0.4v-1.9h13v1.9c0,0.2,0.2,0.4,0.4,0.4h2.3c0.2,0,0.4-0.2,0.4-0.4v-1.9h0.9
			c0.2,0,0.4-0.2,0.4-0.4v-5.5C21.8,10.3,21.3,9.4,20.5,8.8z M11.3,5.7c0-0.4,0.4-0.8,0.8-0.8h4.8c0.4,0,0.8,0.4,0.8,0.8v2.4h-6.4
			L11.3,5.7z M4.1,5.7c0-0.4,0.4-0.8,0.8-0.8h4.8c0.4,0,0.8,0.4,0.8,0.8v2.4H4.1L4.1,5.7z M3.6,18.7H2.1v-1.4h1.4L3.6,18.7z
			 M19.7,18.7h-1.4v-1.4h1.4L19.7,18.7z M21,14.3h-17c-0.2,0-0.4,0.2-0.4,0.4c0,0.2,0.2,0.4,0.4,0.4l0,0h17v1.2H0.9v-5
			c0-1.3,1-2.3,2.3-2.3h15.5c1.3,0,2.3,1,2.3,2.3L21,14.3z"/>
		<path id="Path_1449" class="st0" d="M11.2,0.1C11,0,10.8,0,10.6,0.1c-0.2,0.2-0.2,0.4,0,0.6s0.4,0.2,0.6,0
			c0.1-0.1,0.1-0.2,0.1-0.3C11.3,0.3,11.3,0.2,11.2,0.1z"/>
		<path id="Path_1450" class="st0" d="M2.5,14.4c-0.2-0.2-0.4-0.2-0.6,0c-0.2,0.2-0.2,0.4,0,0.6c0.2,0.2,0.4,0.2,0.6,0
			c0.1-0.1,0.1-0.2,0.1-0.3C2.6,14.6,2.6,14.5,2.5,14.4z"/>
	</g>
</g>
</svg>
