<?xml version="1.0" encoding="utf-8"?>
<!-- Generator: Adobe Illustrator 23.0.1, SVG Export Plug-In . SVG Version: 6.00 Build 0)  -->
<svg version="1.1" id="Layer_1" xmlns="http://www.w3.org/2000/svg" xmlns:xlink="http://www.w3.org/1999/xlink" x="0px" y="0px"
	 viewBox="0 0 32 32" style="enable-background:new 0 0 32 32;" xml:space="preserve">
<style type="text/css">
	.st0{fill:#FFFFFF;}
</style>
<g id="sb-plane" transform="translate(-627 -88)">
	<g id="Group_5" transform="translate(630.333 94)">
		<path id="Path_1407" class="st0" d="M25.3,1.7l-0.1-0.3c-0.3-0.6-0.8-1-1.4-1.2c-1.4-0.3-2.8-0.1-4.1,0.6l0,0l-6.3,3.5L7.4,1
			C7.2,0.9,7.1,0.9,6.9,1L4.2,2.2C4,2.4,3.9,2.7,4,2.9C4,3,4.1,3.1,4.2,3.1l4.8,3.6L4.8,9L2.7,7.9c-0.1-0.1-0.3-0.1-0.5,0L0.4,8.7
			C0.1,8.8,0,9.1,0.2,9.4c0,0.1,0.1,0.1,0.2,0.2l3.9,3c0.6,0.5,1.4,0.6,2.1,0.2l2-0.9l15.9-7.6c0.5-0.2,0.8-0.6,1-1
			C25.5,2.7,25.5,2.2,25.3,1.7z M7.1,2l7.2,3.9l-1.4,0.7l-1.8-1.3c-0.2-0.2-0.5-0.1-0.7,0.1c-0.2,0.2-0.1,0.5,0.1,0.7c0,0,0,0,0,0
			l1.3,1l-0.5,0.2L5.4,2.8L7.1,2z M23.8,3.3L7.9,10.9l-2,0.9C5.6,12,5.1,12,4.8,11.7L1.6,9.3l0.8-0.4L4.6,10c0.2,0.1,0.3,0.1,0.5,0
			l4.7-2.6L11,8.3c0.2,0.1,0.4,0.1,0.5,0.1l4.2-2C15.9,6.3,16,6,15.9,5.7c0-0.1-0.1-0.2-0.2-0.2l-1.2-0.6l5.7-3.1
			c1-0.6,2.1-0.8,3.2-0.6L21.5,2c-0.3,0.1-0.4,0.4-0.3,0.7C21.3,3,21.6,3.1,21.9,3c0,0,0,0,0,0l2.3-1.1c0,0,0,0,0,0l0.1,0.3
			C24.6,2.6,24.4,3.1,23.8,3.3C23.9,3.3,23.9,3.3,23.8,3.3z"/>
		<path id="Path_1408" class="st0" d="M18.7,15.8H1.6c-0.3,0-0.5,0.2-0.5,0.5c0,0.3,0.2,0.5,0.5,0.5c0,0,0,0,0,0h17.2
			c0.3,0,0.5-0.2,0.5-0.5C19.3,16,19.1,15.8,18.7,15.8C18.8,15.8,18.8,15.8,18.7,15.8z"/>
		<path id="Path_1409" class="st0" d="M23.1,15.8h-1.8c-0.3,0-0.5,0.2-0.5,0.5c0,0.3,0.2,0.5,0.5,0.5c0,0,0,0,0,0h1.8
			c0.3,0,0.5-0.2,0.5-0.5C23.7,16,23.5,15.8,23.1,15.8C23.2,15.8,23.1,15.8,23.1,15.8z"/>
		<path id="Path_1410" class="st0" d="M12.7,18.3H4.3c-0.3,0-0.5,0.2-0.5,0.5c0,0.3,0.2,0.5,0.5,0.5c0,0,0,0,0,0h8.4
			c0.3,0,0.5-0.2,0.5-0.5C13.2,18.5,13,18.3,12.7,18.3C12.7,18.3,12.7,18.3,12.7,18.3z"/>
		<path id="Path_1411" class="st0" d="M0.5,6.6c0.1,0,0.1,0,0.2,0l3.4-1.4c0.3-0.1,0.4-0.4,0.3-0.7C4.2,4.3,3.9,4.2,3.7,4.3
			c0,0,0,0,0,0L0.3,5.7C0.1,5.8-0.1,6.1,0,6.3C0.1,6.5,0.3,6.6,0.5,6.6L0.5,6.6z"/>
	</g>
</g>
</svg>
