<?xml version="1.0" encoding="utf-8"?>
<!-- Generator: Adobe Illustrator 23.0.1, SVG Export Plug-In . SVG Version: 6.00 Build 0)  -->
<svg version="1.1" id="Layer_1" xmlns="http://www.w3.org/2000/svg" xmlns:xlink="http://www.w3.org/1999/xlink" x="0px" y="0px"
	 viewBox="0 0 32 32" style="enable-background:new 0 0 32 32;" xml:space="preserve">
<style type="text/css">
	.st0{fill:#FFFFFF;}
</style>
<g id="sb-tour" transform="translate(-549.666 -88)">
	<g id="Group_3" transform="translate(555 93.333)">
		<path id="Path_1430" class="st0" d="M21.7,0.1C21.6,0,21.4,0,21.3,0l-6.8,3.2l-1.9-0.9c-0.2-0.1-0.5,0-0.6,0.2s0,0.5,0.2,0.6L14,4
			v15.7l-6.2-2.9V5.7h0c0.2,0,0.3,0.1,0.5,0.1c0.2,0.1,0.5-0.1,0.5-0.3C9,5.3,8.9,5,8.6,4.9C8.4,4.9,8.2,4.8,8,4.8c0,0-0.1,0-0.1,0
			V1.1l2.1,1c0.2,0.1,0.5,0,0.6-0.2c0.1-0.2,0-0.5-0.2-0.6L7.6,0l0,0l0,0l0,0h0l0,0h0c0,0-0.1,0-0.1,0h0l0,0h0l0,0h0c0,0,0,0,0,0
			l0,0l-7,3.3C0.1,3.4,0,3.5,0,3.7v16.6c0,0.2,0.2,0.4,0.4,0.4c0.1,0,0.1,0,0.2,0l6.8-3.2l6.8,3.2l0,0h0l0,0h0l0,0h0c0,0,0,0,0.1,0
			h0h0h0l0,0h0l0,0l0,0l0,0l7-3.3c0.2-0.1,0.2-0.2,0.2-0.4V0.4C21.9,0.3,21.8,0.1,21.7,0.1z M7,16.8l-6.2,2.9V4L7,1.1
			C7,1.1,7,16.8,7,16.8z M21,16.8l-6.2,2.9v-3.7c0.1,0,0.3,0,0.4-0.1c0.2-0.1,0.4-0.3,0.3-0.5c-0.1-0.2-0.3-0.4-0.5-0.3
			c-0.1,0-0.2,0-0.2,0V4L21,1.1V16.8z"/>
		<path id="Path_1431" class="st0" d="M3.9,13.8c-0.2,0-0.4,0.2-0.4,0.4v0.3c0,0.2,0.2,0.4,0.4,0.4c0.2,0,0.4-0.2,0.4-0.4v-0.3
			C4.4,14,4.2,13.8,3.9,13.8C3.9,13.8,3.9,13.8,3.9,13.8z"/>
		<path id="Path_1432" class="st0" d="M3.9,9.7c-0.2,0-0.4,0.2-0.4,0.4l0,0v0.6c0,0.2,0.2,0.4,0.4,0.4c0.2,0,0.4-0.2,0.4-0.4v-0.6
			C4.4,9.9,4.2,9.7,3.9,9.7C3.9,9.7,3.9,9.7,3.9,9.7z"/>
		<path id="Path_1433" class="st0" d="M11.4,12.3c0-0.1,0-0.2,0-0.2v-0.3l0,0c0-0.2-0.2-0.4-0.4-0.4c-0.2,0-0.4,0.2-0.4,0.4l0,0V12
			c0,0.1,0,0.2,0,0.3c0,0.2,0.2,0.4,0.4,0.4h0C11.2,12.7,11.4,12.5,11.4,12.3C11.4,12.3,11.4,12.3,11.4,12.3z"/>
		<path id="Path_1434" class="st0" d="M10.9,9.3c-0.2,0-0.4,0.2-0.4,0.4l0,0v0.6c0,0.2,0.2,0.4,0.4,0.4c0.2,0,0.4-0.2,0.4-0.4V9.7
			C11.4,9.5,11.2,9.3,10.9,9.3C11,9.3,11,9.3,10.9,9.3z"/>
		<path id="Path_1435" class="st0" d="M4.1,7.7c-0.2,0-0.5,0.1-0.5,0.4c0,0,0,0,0,0c0,0.2-0.1,0.4-0.1,0.6v0c0,0.2,0.2,0.4,0.4,0.4
			c0.2,0,0.4-0.2,0.4-0.4v0c0-0.2,0-0.3,0-0.5C4.4,8,4.3,7.7,4.1,7.7C4.1,7.7,4.1,7.7,4.1,7.7z"/>
		<path id="Path_1436" class="st0" d="M12,13.9c-0.1-0.1-0.2-0.3-0.3-0.4c-0.1-0.2-0.4-0.3-0.6-0.2c-0.2,0.1-0.3,0.4-0.2,0.6
			c0.1,0.2,0.2,0.4,0.4,0.6c0.1,0.2,0.4,0.2,0.6,0.1S12.1,14.1,12,13.9L12,13.9z"/>
		<path id="Path_1437" class="st0" d="M10.5,6.2c-0.1-0.1-0.2-0.2-0.3-0.3c-0.1-0.1-0.1-0.1-0.2-0.2c-0.2-0.2-0.5-0.1-0.6,0
			s-0.1,0.5,0,0.6l0,0c0.1,0,0.1,0.1,0.2,0.2c0.1,0.1,0.1,0.1,0.2,0.2C10,6.9,10.2,7,10.4,6.8C10.6,6.6,10.6,6.4,10.5,6.2L10.5,6.2z
			"/>
		<path id="Path_1438" class="st0" d="M3.9,11.7c-0.2,0-0.4,0.2-0.4,0.4v0.6c0,0.2,0.2,0.4,0.4,0.4c0.2,0,0.4-0.2,0.4-0.4v-0.6
			C4.4,11.9,4.2,11.7,3.9,11.7C3.9,11.7,3.9,11.7,3.9,11.7z"/>
		<path id="Path_1439" class="st0" d="M11.4,8.2c0-0.2-0.1-0.4-0.1-0.6c-0.1-0.2-0.3-0.4-0.5-0.3s-0.4,0.3-0.3,0.5
			c0,0.2,0.1,0.3,0.1,0.5c0,0.2,0.2,0.4,0.4,0.4H11C11.2,8.7,11.4,8.5,11.4,8.2C11.4,8.2,11.4,8.2,11.4,8.2z"/>
		<path id="Path_1440" class="st0" d="M13.4,14.9c-0.2-0.1-0.3-0.1-0.5-0.2c-0.2-0.1-0.5,0-0.6,0.2s0,0.5,0.2,0.6
			c0.2,0.1,0.4,0.2,0.6,0.3c0.2,0.1,0.5,0,0.6-0.3S13.6,15,13.4,14.9L13.4,14.9z"/>
		<path id="Path_1441" class="st0" d="M17.3,14.2c-0.2-0.2-0.4-0.2-0.6,0c0,0,0,0,0,0l0,0c-0.1,0.1-0.2,0.2-0.4,0.3
			c-0.2,0.1-0.2,0.4-0.1,0.6s0.4,0.2,0.6,0.1c0.2-0.1,0.3-0.3,0.5-0.4l0,0C17.4,14.6,17.4,14.3,17.3,14.2
			C17.3,14.2,17.3,14.2,17.3,14.2z"/>
		<path id="Path_1442" class="st0" d="M6.9,5.2C6.9,5,6.6,4.8,6.4,4.9C6.2,5,6,5,5.8,5.1C5.6,5.2,5.5,5.5,5.6,5.7S5.9,6,6.2,5.9
			c0.2-0.1,0.3-0.1,0.5-0.2C6.9,5.7,7,5.4,6.9,5.2C6.9,5.2,6.9,5.2,6.9,5.2z"/>
		<path id="Path_1443" class="st0" d="M18,12.3c-0.2,0-0.5,0.1-0.5,0.3c0,0.2-0.1,0.3-0.1,0.5c-0.1,0.2,0,0.5,0.2,0.6s0.5,0,0.6-0.2
			c0.1-0.2,0.1-0.4,0.2-0.6C18.4,12.6,18.2,12.4,18,12.3z"/>
		<path id="Path_1444" class="st0" d="M5.1,6C5,5.9,4.7,5.9,4.5,6.1C4.4,6.2,4.2,6.4,4.1,6.6C4,6.8,4.1,7,4.3,7.2
			C4.5,7.3,4.7,7.2,4.8,7l0,0C4.9,6.9,5,6.8,5.2,6.6C5.3,6.5,5.3,6.2,5.1,6z"/>
		<path id="Path_1445" class="st0" d="M18,8.3c-0.2,0-0.4,0.2-0.4,0.4v0.6c0,0.2,0.2,0.4,0.4,0.4s0.4-0.2,0.4-0.4V8.7
			C18.4,8.5,18.2,8.3,18,8.3C18,8.3,18,8.3,18,8.3z"/>
		<path id="Path_1446" class="st0" d="M18,10.3c-0.2,0-0.4,0.2-0.4,0.4v0.6c0,0.2,0.2,0.4,0.4,0.4s0.4-0.2,0.4-0.4v-0.6
			C18.4,10.5,18.2,10.3,18,10.3C18,10.3,18,10.3,18,10.3z"/>
		<path id="Path_1447" class="st0" d="M18.4,6l0.7-0.8c0.2-0.2,0.1-0.4,0-0.6c-0.2-0.2-0.4-0.1-0.6,0l0,0l-0.6,0.7l-0.6-0.7
			c-0.2-0.2-0.4-0.2-0.6,0c-0.2,0.2-0.2,0.4,0,0.6L17.3,6l-0.7,0.8c-0.2,0.2-0.1,0.4,0,0.6c0.2,0.2,0.4,0.1,0.6,0l0.6-0.7l0.6,0.7
			c0.2,0.2,0.4,0.2,0.6,0c0.2-0.2,0.2-0.4,0-0.6L18.4,6z"/>
		<ellipse id="Ellipse_220" class="st0" cx="11.3" cy="2.2" rx="0.4" ry="0.4"/>
	</g>
</g>
</svg>
