<?xml version="1.0" encoding="utf-8"?>
<!-- Generator: Adobe Illustrator 23.0.1, SVG Export Plug-In . SVG Version: 6.00 Build 0)  -->
<svg version="1.1" id="Layer_1" xmlns="http://www.w3.org/2000/svg" xmlns:xlink="http://www.w3.org/1999/xlink" x="0px" y="0px"
	 viewBox="0 0 32 32" style="enable-background:new 0 0 32 32;" xml:space="preserve">
<style type="text/css">
	.st0{fill:#FFFFFF;}
</style>
<g id="sb-train" transform="translate(-511 -88)">
	<path id="Path_1387" class="st0" d="M540.5,109.5h-5c0.1-0.2,0.1-0.4,0.1-0.6v-0.7h2.6c1.6,0,2.9-1.3,2.9-2.9
		c0-0.6-0.1-1.3-0.3-1.9v0v0c-1.9-3.8-5.8-6.1-10-6.1h-17.8c-0.3,0-0.6,0.3-0.6,0.6v9.8c0,0.3,0.3,0.6,0.6,0.6h2.3v0.7
		c0,0.2,0,0.4,0.1,0.6h-2.4c-0.3,0-0.6,0.3-0.6,0.6c0,0.3,0.3,0.6,0.6,0.6h27.6c0.3,0,0.6-0.3,0.6-0.6
		C541.1,109.7,540.8,109.5,540.5,109.5L540.5,109.5z M539.3,103.2h-0.9c-1.7,0-3.4-0.6-4.8-1.6l0,0c-0.4-0.4-0.8-0.7-1.2-1.1
		c-0.5-0.6-0.9-1.2-1.3-2C534.4,98.6,537.5,100.3,539.3,103.2z M523.7,98.5h2.5v4.7h-2.4L523.7,98.5z M517,98.5h5.5v4.7H517
		L517,98.5z M513.5,98.5h2.5v4.7h-2.5L513.5,98.5z M513.5,107.1v-2.8h13.3c0.3,0,0.6-0.3,0.6-0.6v-5.3h2.6c0.4,1,1,1.9,1.7,2.7l0,0
		c0.4,0.5,0.9,0.9,1.4,1.3c1.6,1.2,3.5,1.8,5.5,1.8h1.4c0.1,0.4,0.1,0.7,0.1,1.1c0,1-0.8,1.8-1.8,1.8L513.5,107.1z M517.4,108.9
		c0,0.3-0.3,0.6-0.6,0.6s-0.6-0.3-0.6-0.6v-0.7h1.1L517.4,108.9z M518.5,109.5c0.1-0.2,0.1-0.4,0.1-0.6v-0.7h5.1v0.7
		c0,0.2,0,0.4,0.1,0.6H518.5z M525.9,108.9c0,0.3-0.3,0.6-0.6,0.6s-0.6-0.3-0.6-0.6v-0.7h1.1V108.9z M527,109.5
		c0.1-0.2,0.1-0.4,0.1-0.6v-0.7h5.1v0.7c0,0.2,0,0.4,0.1,0.6H527z M534.5,108.9c0,0.3-0.3,0.6-0.6,0.6c-0.3,0-0.6-0.3-0.6-0.6v-0.7
		h1.1V108.9z"/>
	<path id="Path_1388" class="st0" d="M517.8,105.1h-3.3c-0.3,0-0.6,0.3-0.6,0.6s0.3,0.6,0.6,0.6c0,0,0,0,0,0h3.3
		c0.3,0,0.6-0.3,0.6-0.6S518.1,105.1,517.8,105.1C517.8,105.1,517.8,105.1,517.8,105.1z"/>
	<ellipse id="Ellipse_214" class="st0" cx="519.8" cy="105.7" rx="0.6" ry="0.6"/>
</g>
</svg>
