<?xml version="1.0" encoding="utf-8"?>
<!-- Generator: Adobe Illustrator 23.0.1, SVG Export Plug-In . SVG Version: 6.00 Build 0)  -->
<svg version="1.1" id="Layer_1" xmlns="http://www.w3.org/2000/svg" xmlns:xlink="http://www.w3.org/1999/xlink" x="0px" y="0px"
	 viewBox="0 0 16 16" style="enable-background:new 0 0 16 16;" xml:space="preserve">
<style type="text/css">
	.st0{fill:#CCCCCC;}
</style>
<g id="star-icon--gray" transform="translate(-201.998 -209)">
	<path id="Path_1607" class="st0" d="M210.4,209.3l2,5.1l5.2,0.5c0.2,0,0.4,0.3,0.4,0.5c0,0.1-0.1,0.2-0.1,0.3l-4,3.6l1.2,5.3
		c0.1,0.2-0.1,0.4-0.3,0.5c-0.1,0-0.2,0-0.3,0l-4.5-2.8l-4.5,2.8c-0.2,0.1-0.5,0.1-0.6-0.1c-0.1-0.1-0.1-0.2,0-0.3l1.2-5.3l-4-3.6
		c-0.2-0.2-0.2-0.4,0-0.6c0.1-0.1,0.2-0.1,0.3-0.1l5.2-0.5l2-5.1c0.1-0.2,0.3-0.3,0.5-0.2C210.2,209.1,210.3,209.1,210.4,209.3z"/>
</g>
</svg>
