<?xml version="1.0" encoding="utf-8"?>
<!-- Generator: Adobe Illustrator 23.0.1, SVG Export Plug-In . SVG Version: 6.00 Build 0)  -->
<svg version="1.1" id="Layer_1" xmlns="http://www.w3.org/2000/svg" xmlns:xlink="http://www.w3.org/1999/xlink" x="0px" y="0px"
	 viewBox="0 0 48 48" style="enable-background:new 0 0 48 48;" xml:space="preserve">
<style type="text/css">
	.st0{fill:#0B9443;}
</style>
<g id="successful-icon" transform="translate(-2431 -1178)">
	<path id="checked_1_" class="st0" d="M2438.4,1203c-0.5-0.5-0.5-1.2,0-1.7c0,0,0,0,0,0l1.8-1.8c0.5-0.5,1.2-0.5,1.7,0c0,0,0,0,0,0
		l0.1,0.1l7,7.5c0.2,0.2,0.6,0.3,0.9,0c0,0,0,0,0,0l17-17.7h0.1c0.5-0.5,1.2-0.5,1.7,0c0,0,0,0,0,0l1.8,1.8c0.5,0.5,0.5,1.2,0,1.7
		c0,0,0,0,0,0l0,0l-20.3,21.1c-0.5,0.5-1.2,0.5-1.7,0c0,0,0,0,0,0l-9.9-10.7C2438.6,1203.4,2438.4,1203,2438.4,1203z"/>
</g>
</svg>
